{
.appVersion = "3109";
.formatVersion = 3;
DisplayStrings = (
"ਵ"
);
axes = (
{
name = Weight;
tag = wght;
},
{
name = Width;
tag = wdth;
}
);
classes = (
{
code = "bhaguru caguru chaguru daguru ddaguru ddhaguru haguru laguru lanuktaguru naguru nnaguru nyaguru phaguru phanuktaguru raguru taguru ttaguru tthaguru vaguru";
name = class1;
},
{
code = "bhanuktaguru chanuktaguru danuktaguru ddhanuktaguru hanuktaguru jhanuktaguru lanuktaguru nanuktaguru nganuktaguru nnanuktaguru nyanuktaguru ranuktaguru tanuktaguru ttanuktaguru tthanuktaguru vanuktaguru";
name = class2;
},
{
code = "aibindiguru aimatrabindiguru aubindiguru aumatrabindiguru bindiguru eebindiguru eematrabindiguru iibindiguru iimatrabindiguru oobindiguru oomatrabindiguru tippiguru ubindiguru ubindinuktaguru uubindiguru uubindinuktaguru";
name = class3;
},
{

glyphs = (
{
glyphname = .notdef;
lastChange = "2020-02-26 16:12:49 +0000";
layers = (
{
layerId = UUID0;
shapes = (
{
closed = 1;
nodes = (
(505,0,l),
(505,714,l),
(94,714,l),
(94,0,l)
);
},
{
closed = 1;
nodes = (
(145,663,l),
(454,663,l),
(454,51,l),
(145,51,l)
);
}
);
width = 600;
},
{
layerId = "397B4BA1-1DC1-423A-91EE-9CBCF179C3D0";
shapes = (
{
closed = 1;
nodes = (
(505,0,l),
(505,714,l),
(94,714,l),
(94,0,l)
);
},
{
closed = 1;
nodes = (
(145,663,l),
(454,663,l),
(454,51,l),
(145,51,l)
);
}
);
width = 600;
},
{
layerId = "AD832606-5186-48BF-AC4A-95D20F9D6762";
shapes = (
{
closed = 1;
nodes = (
(505,0,l),
(505,714,l),
(94,714,l),
(94,0,l)
);
},
{
closed = 1;
nodes = (
(145,663,l),
(454,663,l),
(454,51,l),
(145,51,l)
);
}
);
width = 600;
},
{
layerId = "F506C8C4-888D-41F0-91C9-49F2C7D2D9C4";
shapes = (
{
closed = 1;
nodes = (
(505,0,l),
(505,714,l),
(94,714,l),
(94,0,l)
);
},
{
closed = 1;
nodes = (
(145,663,l),
(454,663,l),
(454,51,l),
(145,51,l)
);
}
);
width = 600;
},
{
layerId = "C86CFEE0-D181-456A-AA08-2B118FAF25CE";
shapes = (
{
closed = 1;
nodes = (
(505,0,l),
(505,714,l),
(94,714,l),
(94,0,l)
);
},
{
closed = 1;
nodes = (
(145,663,l),
(454,663,l),
(454,51,l),
(145,51,l)
);
}
);
width = 600;
},
{
layerId = "CBEC276F-1F9B-404D-BC73-2CB92054D876";
shapes = (
{
closed = 1;
nodes = (
(505,0,l),
(505,714,l),
(94,714,l),
(94,0,l)
);
},
{
closed = 1;
nodes = (
(145,663,l),
(454,663,l),
(454,51,l),
(145,51,l)
);
}
);
width = 600;
},
{
layerId = "04B5D069-3E89-43E6-853C-EFCF876AEDC5";
shapes = (
{
closed = 1;
nodes = (
(505,0,l),
(505,714,l),
(94,714,l),
(94,0,l)
);
},
{
closed = 1;
nodes = (
(145,663,l),
(454,663,l),
(454,51,l),
(145,51,l)
);
}
);
width = 600;
}
);
},
{
category = Mark;
glyphname = adakbindiguru;
lastChange = "2020-02-26 16:12:49 +0000";
layers = (
{
anchors = (
{
name = _Anchor2;
pos = (-89,622);
}
);
layerId = UUID0;
shapes = (
{
closed = 1;
nodes = (
(-9,671,o),
(45,753,o),
(57,858,c),
(-16,868,l),
(-24,778,o),
(-61,738,o),
(-130,738,cs),
(-198,738,o),
(-233,777,o),
(-244,868,c),
(-316,858,l),
(-307,752,o),
(-250,671,o),
(-129,671,cs)
);
},
{
closed = 1;
nodes = (
(-100,788,o),
(-78,808,o),
(-78,842,cs),
(-78,876,o),
(-101,896,o),
(-130,896,cs),
(-159,896,o),
(-182,876,o),
(-182,842,cs),
(-182,808,o),
(-159,788,o),
(-130,788,cs)
);
}
);
width = 0;
},
{
anchors = (
{
name = _Anchor2;
pos = (-80,622);
}
);
layerId = "397B4BA1-1DC1-423A-91EE-9CBCF179C3D0";
shapes = (
{
closed = 1;
nodes = (
(1,661,o),
(60,749,o),
(74,858,c),
(-37,875,l),
(-51,789,o),
(-85,755,o),
(-147,755,cs),
(-212,755,o),
(-243,791,o),
(-256,875,c),
(-368,858,l),
(-354,749,o),
(-296,661,o),
(-146,661,cs)
);
},
{
closed = 1;
nodes = (
(-108,785,o),
(-85,809,o),
(-85,841,cs),
(-85,873,o),
(-108,896,o),
(-147,896,cs),
(-185,896,o),
(-210,873,o),
(-210,841,cs),
(-210,809,o),
(-188,785,o),
(-147,785,cs)
);
}
);
width = 0;
},
{
anchors = (
{
name = _Anchor2;
pos = (-94,622);
}
);
layerId = "AD832606-5186-48BF-AC4A-95D20F9D6762";
shapes = (
{
closed = 1;
nodes = (
(-19,683,o),
(31,739,o),
(46,847,c),
(20,850,l),
(7,757,o),
(-27,708,o),
(-112,708,cs),
(-199,708,o),
(-233,757,o),
(-246,850,c),
(-272,847,l),
(-257,739,o),
(-207,683,o),
(-112,683,cs)
);
},
{
closed = 1;
nodes = (
(-96,797,o),
(-83,809,o),
(-83,835,cs),
(-83,858,o),
(-94,873,o),
(-113,873,cs),
(-131,873,o),
(-144,859,o),
(-144,835,cs),
(-144,810,o),
(-129,797,o),
(-113,797,cs)
);
}
);
width = 0;
},
{
anchors = (
{
name = _Anchor2;
pos = (-70,622);
}
);
layerId = "F506C8C4-888D-41F0-91C9-49F2C7D2D9C4";
shapes = (
{
closed = 1;
nodes = (
(-16,648,o),
(64,724,o),
(82,858,c),
(-55,877,l),
(-66,788,o),
(-96,755,o),
(-157,755,cs),
(-216,755,o),
(-247,788,o),
(-259,877,c),
(-396,858,l),
(-378,723,o),
(-297,648,o),
(-157,648,cs)
);
},
{
closed = 1;
nodes = (
(-114,777,o),
(-89,802,o),
(-89,837,cs),
(-89,872,o),
(-114,896,o),
(-157,896,cs),
(-199,896,o),
(-225,872,o),
(-225,837,cs),
(-225,802,o),
(-202,777,o),
(-157,777,cs)
);
}
);
width = 0;
},
{
anchors = (
{
name = _Anchor2;
pos = (-77,622);
}
);
layerId = "C86CFEE0-D181-456A-AA08-2B118FAF25CE";
shapes = (
{
closed = 1;
nodes = (
(-17,683,o),
(19,739,o),
(31,847,c),
(5,850,l),
(-5,757,o),
(-30,708,o),
(-90,708,cs),
(-149,708,o),
(-175,757,o),
(-185,850,c),
(-211,847,l),
(-199,739,o),
(-163,683,o),
(-90,683,cs)
);
},
{
closed = 1;
nodes = (
(-76,797,o),
(-64,809,o),
(-64,835,cs),
(-64,861,o),
(-75,873,o),
(-90,873,cs),
(-104,873,o),
(-117,860,o),
(-117,835,cs),
(-117,809,o),
(-103,797,o),
(-90,797,cs)
);
}
);
width = 0;
},
{
anchors = (
{
name = _Anchor2;
pos = (-54,622);
}
);
layerId = "CBEC276F-1F9B-404D-BC73-2CB92054D876";
shapes = (
{
closed = 1;
nodes = (
(-1,651,o),
(68,728,o),
(84,862,c),
(-42,876,l),
(-49,786,o),
(-74,753,o),
(-130,753,cs),
(-182,753,o),
(-210,786,o),
(-218,876,c),
(-343,862,l),
(-327,727,o),
(-257,651,o),
(-130,651,cs)
);
},
{
closed = 1;
nodes = (
(-92,779,o),
(-72,803,o),
(-72,838,cs),
(-72,873,o),
(-92,896,o),
(-131,896,cs),
(-167,896,o),
(-188,873,o),
(-188,838,cs),
(-188,803,o),
(-171,779,o),
(-131,779,cs)
);
}
);
width = 0;
},
{
anchors = (
{
name = _Anchor2;
pos = (-64,622);
}
);
layerId = "04B5D069-3E89-43E6-853C-EFCF876AEDC5";
shapes = (
{
closed = 1;
nodes = (
(0,673,o),
(36,755,o),
(45,860,c),
(-21,867,l),
(-29,775,o),
(-50,736,o),
(-103,736,cs),
(-156,736,o),
(-176,775,o),
(-185,867,c),
(-251,860,l),
(-242,754,o),
(-204,673,o),
(-102,673,cs)
);
},
{
closed = 1;
nodes = (
(-76,790,o),
(-59,809,o),
(-59,842,cs),
(-59,876,o),
(-76,895,o),
(-103,895,cs),
(-128,895,o),
(-146,876,o),
(-146,842,cs),
(-146,809,o),
(-129,790,o),
(-103,790,cs)
);
}
);
width = 0;
}
);
subCategory = Nonspacing;
unicode = 2561;
},
{
category = Mark;
glyphname = bindiguru;
lastChange = "2020-02-26 16:12:49 +0000";
layers = (
{
anchors = (
{
name = _Anchor2;
pos = (-90,622);
}
);
layerId = UUID0;
shapes = (
{
closed = 1;
nodes = (
(-98,721,o),
(-75,742,o),
(-75,778,cs),
(-75,814,o),
(-100,835,o),
(-130,835,cs),
(-160,835,o),
(-185,814,o),
(-185,778,cs),
(-185,742,o),
(-160,721,o),
(-130,721,cs)
);
}
);
width = 0;
},
{
anchors = (
{
name = _Anchor2;
pos = (-80,622);
}
);
layerId = "397B4BA1-1DC1-423A-91EE-9CBCF179C3D0";
shapes = (
{
closed = 1;
nodes = (
(-98,704,o),
(-69,732,o),
(-69,776,cs),
(-69,819,o),
(-98,848,o),
(-147,848,cs),
(-197,848,o),
(-226,819,o),
(-226,776,cs),
(-226,732,o),
(-197,704,o),
(-147,704,cs)
);
}
);
width = 0;
},
{
anchors = (
{
name = _Anchor2;
pos = (-95,622);
}
);
layerId = "AD832606-5186-48BF-AC4A-95D20F9D6762";
shapes = (
{
closed = 1;
nodes = (
(-96,740,o),
(-83,752,o),
(-83,778,cs),
(-83,801,o),
(-94,816,o),
(-113,816,cs),
(-131,816,o),
(-144,802,o),
(-144,778,cs),
(-144,753,o),
(-129,740,o),
(-113,740,cs)
);
}
);
width = 0;
},
{
anchors = (
{
name = _Anchor2;
pos = (-70,622);
}
);
layerId = "F506C8C4-888D-41F0-91C9-49F2C7D2D9C4";
shapes = (
{
closed = 1;
nodes = (
(-102,695,o),
(-70,726,o),
(-70,776,cs),
(-70,824,o),
(-102,857,o),
(-158,857,cs),
(-215,857,o),
(-247,824,o),
(-247,776,cs),
(-247,726,o),
(-215,695,o),
(-158,695,cs)
);
}
);
width = 0;
},
{
anchors = (
{
name = _Anchor2;
pos = (-77,622);
}
);
layerId = "C86CFEE0-D181-456A-AA08-2B118FAF25CE";
shapes = (
{
closed = 1;
nodes = (
(-76,738,o),
(-64,749,o),
(-64,776,cs),
(-64,800,o),
(-75,814,o),
(-90,814,cs),
(-104,814,o),
(-117,801,o),
(-117,776,cs),
(-117,750,o),
(-103,738,o),
(-91,738,cs)
);
}
);
width = 0;
},
{
anchors = (
{
name = _Anchor2;
pos = (-54,622);
}
);
layerId = "CBEC276F-1F9B-404D-BC73-2CB92054D876";
shapes = (
{
closed = 1;
nodes = (
(-80,700,o),
(-53,732,o),
(-53,778,cs),
(-53,823,o),
(-80,856,o),
(-129,856,cs),
(-179,856,o),
(-206,823,o),
(-206,778,cs),
(-206,732,o),
(-179,700,o),
(-129,700,cs)
);
}
);
width = 0;
},
{
anchors = (
{
name = _Anchor2;
pos = (-64,622);
}
);
layerId = "04B5D069-3E89-43E6-853C-EFCF876AEDC5";
shapes = (
{
closed = 1;
nodes = (
(-69,723,o),
(-52,745,o),
(-52,778,cs),
(-52,810,o),
(-69,833,o),
(-101,833,cs),
(-132,833,o),
(-150,810,o),
(-150,778,cs),
(-150,745,o),
(-132,723,o),
(-101,723,cs)
);
}
);
width = 0;
}
);
subCategory = Nonspacing;
unicode = 2562;
},
{
glyphname = visargaguru;
lastChange = "2020-02-26 16:12:49 +0000";
layers = (
{
layerId = UUID0;
shapes = (
{
closed = 1;
nodes = (
(288,362,o),
(344,410,o),
(344,492,cs),
(344,572,o),
(288,622,o),
(203,622,cs),
(117,622,o),
(62,569,o),
(62,492,cs),
(62,411,o),
(117,362,o),
(203,362,cs)
);
},
{
closed = 1;
nodes = (
(158,425,o),
(134,453,o),
(134,492,cs),
(134,530,o),
(158,559,o),
(203,559,cs),
(247,559,o),
(272,530,o),
(272,492,cs),
(272,454,o),
(247,425,o),
(203,425,cs)
);
},
{
closed = 1;
nodes = (
(288,0,o),
(344,48,o),
(344,130,cs),
(344,211,o),
(288,260,o),
(203,260,cs),
(117,260,o),
(62,208,o),
(62,130,cs),
(62,50,o),
(117,0,o),
(203,0,cs)
);
},
{
closed = 1;
nodes = (
(158,63,o),
(134,92,o),
(134,130,cs),
(134,168,o),
(158,197,o),
(203,197,cs),
(247,197,o),
(272,168,o),
(272,130,cs),
(272,92,o),
(247,63,o),
(203,63,cs)
);
}
);
width = 405;
},
{
layerId = "397B4BA1-1DC1-423A-91EE-9CBCF179C3D0";
shapes = (
{
closed = 1;
nodes = (
(325,336,o),
(392,389,o),
(392,479,cs),
(392,567,o),
(325,622,o),
(223,622,cs),
(120,622,o),
(54,564,o),
(54,479,cs),
(54,391,o),
(120,336,o),
(223,336,cs)
);
},
{
closed = 1;
nodes = (
(188,430,o),
(169,451,o),
(169,479,cs),
(169,507,o),
(188,528,o),
(223,528,cs),
(257,528,o),
(277,507,o),
(277,479,cs),
(277,452,o),
(257,430,o),
(223,430,cs)
);
},
{
closed = 1;
nodes = (
(325,0,o),
(392,53,o),
(392,143,cs),
(392,231,o),
(325,286,o),
(223,286,cs),
(120,286,o),
(54,228,o),
(54,143,cs),
(54,55,o),
(120,0,o),
(223,0,cs)
);
},
{
closed = 1;
nodes = (
(188,94,o),
(169,115,o),
(169,143,cs),
(169,170,o),
(188,192,o),
(223,192,cs),
(257,192,o),
(277,170,o),
(277,143,cs),
(277,115,o),
(257,94,o),
(223,94,cs)
);
}
);
width = 445;
},
{
layerId = "AD832606-5186-48BF-AC4A-95D20F9D6762";
shapes = (
{
closed = 1;
nodes = (
(280,366,o),
(334,419,o),
(334,494,cs),
(334,571,o),
(279,622,o),
(200,622,cs),
(121,622,o),
(66,571,o),
(66,494,cs),
(66,417,o),
(121,366,o),
(200,366,cs)
);
},
{
closed = 1;
nodes = (
(131,392,o),
(93,436,o),
(93,494,cs),
(93,552,o),
(131,596,o),
(200,596,cs),
(269,596,o),
(307,552,o),
(307,494,cs),
(307,436,o),
(269,392,o),
(200,392,cs)
);
},
{
closed = 1;
nodes = (
(280,0,o),
(334,53,o),
(334,128,cs),
(334,205,o),
(273,256,o),
(200,256,cs),
(121,256,o),
(66,205,o),
(66,128,cs),
(66,51,o),
(121,0,o),
(200,0,cs)
);
},
{
closed = 1;
nodes = (
(131,26,o),
(93,70,o),
(93,128,cs),
(93,186,o),
(131,230,o),
(200,230,cs),
(269,230,o),
(307,186,o),
(307,128,cs),
(307,70,o),
(269,26,o),
(200,26,cs)
);
}
);
width = 400;
},
{
layerId = "F506C8C4-888D-41F0-91C9-49F2C7D2D9C4";
shapes = (
{
closed = 1;
nodes = (
(341,328,o),
(408,381,o),
(408,475,cs),
(408,566,o),
(341,622,o),
(228,622,cs),
(114,622,o),
(47,564,o),
(47,475,cs),
(47,383,o),
(114,328,o),
(228,328,cs)
);
},
{
closed = 1;
nodes = (
(203,434,o),
(186,449,o),
(186,475,cs),
(186,501,o),
(201,516,o),
(228,516,cs),
(254,516,o),
(269,501,o),
(269,475,cs),
(269,450,o),
(254,434,o),
(228,434,cs)
);
},
{
closed = 1;
nodes = (
(341,0,o),
(408,53,o),
(408,147,cs),
(408,238,o),
(341,294,o),
(228,294,cs),
(114,294,o),
(47,236,o),
(47,147,cs),
(47,55,o),
(114,0,o),
(228,0,cs)
);
},
{
closed = 1;
nodes = (
(203,106,o),
(186,121,o),
(186,147,cs),
(186,173,o),
(201,188,o),
(228,188,cs),
(254,188,o),
(269,173,o),
(269,147,cs),
(269,122,o),
(254,106,o),
(228,106,cs)
);
}
);
width = 455;
},
{
layerId = "C86CFEE0-D181-456A-AA08-2B118FAF25CE";
shapes = (
{
closed = 1;
nodes = (
(218,366,o),
(259,411,o),
(259,494,cs),
(259,577,o),
(218,622,o),
(156,622,cs),
(94,622,o),
(53,577,o),
(53,494,cs),
(53,411,o),
(94,366,o),
(156,366,cs)
);
},
{
closed = 1;
nodes = (
(99,392,o),
(79,438,o),
(79,494,cs),
(79,550,o),
(99,596,o),
(156,596,cs),
(213,596,o),
(233,550,o),
(233,494,cs),
(233,438,o),
(213,392,o),
(156,392,cs)
);
},
{
closed = 1;
nodes = (
(218,0,o),
(259,45,o),
(259,128,cs),
(259,211,o),
(218,256,o),
(156,256,cs),
(94,256,o),
(53,211,o),
(53,128,cs),
(53,45,o),
(94,0,o),
(156,0,cs)
);
},
{
closed = 1;
nodes = (
(99,26,o),
(79,72,o),
(79,128,cs),
(79,184,o),
(99,230,o),
(156,230,cs),
(213,230,o),
(233,184,o),
(233,128,cs),
(233,72,o),
(213,26,o),
(156,26,cs)
);
}
);
width = 312;
},
{
layerId = "CBEC276F-1F9B-404D-BC73-2CB92054D876";
shapes = (
{
closed = 1;
nodes = (
(307,330,o),
(362,388,o),
(362,476,cs),
(362,564,o),
(307,622,o),
(201,622,cs),
(95,622,o),
(40,564,o),
(40,476,cs),
(40,388,o),
(95,330,o),
(201,330,cs)
);
},
{
closed = 1;
nodes = (
(176,429,o),
(166,450,o),
(166,476,cs),
(166,502,o),
(176,523,o),
(201,523,cs),
(226,523,o),
(236,502,o),
(236,476,cs),
(236,450,o),
(226,429,o),
(201,429,cs)
);
},
{
closed = 1;
nodes = (
(307,0,o),
(362,58,o),
(362,146,cs),
(362,234,o),
(307,292,o),
(201,292,cs),
(95,292,o),
(40,234,o),
(40,146,cs),
(40,58,o),
(95,0,o),
(201,0,cs)
);
},
{
closed = 1;
nodes = (
(176,99,o),
(166,120,o),
(166,146,cs),
(166,172,o),
(176,193,o),
(201,193,cs),
(226,193,o),
(236,172,o),
(236,146,cs),
(236,120,o),
(226,99,o),
(201,99,cs)
);
}
);
width = 402;
},
{
layerId = "04B5D069-3E89-43E6-853C-EFCF876AEDC5";
shapes = (
{
closed = 1;
nodes = (
(226,364,o),
(269,408,o),
(269,493,cs),
(269,578,o),
(226,622,o),
(157,622,cs),
(88,622,o),
(45,578,o),
(45,493,cs),
(45,408,o),
(88,364,o),
(157,364,cs)
);
},
{
closed = 1;
nodes = (
(129,425,o),
(112,445,o),
(112,493,cs),
(112,541,o),
(129,561,o),
(157,561,cs),
(185,561,o),
(202,541,o),
(202,493,cs),
(202,445,o),
(185,425,o),
(157,425,cs)
);
},
{
closed = 1;
nodes = (
(226,0,o),
(269,44,o),
(269,129,cs),
(269,214,o),
(226,258,o),
(157,258,cs),
(88,258,o),
(45,214,o),
(45,129,cs),
(45,44,o),
(88,0,o),
(157,0,cs)
);
},
{
closed = 1;
nodes = (
(129,61,o),
(112,81,o),
(112,129,cs),
(112,177,o),
(129,197,o),
(157,197,cs),
(185,197,o),
(202,177,o),
(202,129,cs),
(202,81,o),
(185,61,o),
(157,61,cs)
);
}
);
width = 314;
}
);
unicode = 2563;
},
{
glyphname = aguru;
lastChange = "2020-02-26 16:12:49 +0000";
layers = (
{
anchors = (
{
name = Anchor4;
pos = (294,0);
}
);
layerId = UUID0;
shapes = (
{
closed = 1;
nodes = (
(653,0,l),
(653,551,l),
(749,551,l),
(749,622,l),
(572,622,l),
(572,405,l),
(584,433,l),
(509,416,o),
(443,383,o),
(407,353,c),
(424,339,l),
(424,402,o),
(401,509,o),
(374,554,c),
(289,536,o),
(196,485,o),
(173,456,c),
(186,445,l),
(186,506,o),
(163,581,o),
(144,622,c),
(-7,622,l),
(-7,551,l),
(120,551,l),
(77,558,l),
(91,547,o),
(114,503,o),
(118,419,c),
(83,381,o),
(56,320,o),
(56,271,cs),
(56,226,o),
(76,212,o),
(104,212,cs),
(165,212,o),
(189,297,o),
(189,422,c),
(175,379,l),
(208,410,o),
(281,453,o),
(348,473,c),
(316,478,l),
(337,451,o),
(354,379,o),
(356,317,c),
(320,278,o),
(292,217,o),
(292,166,cs),
(292,122,o),
(313,108,o),
(341,108,cs),
(399,108,o),
(425,191,o),
(425,305,c),
(406,271,l),
(458,313,o),
(513,339,o),
(584,356,c),
(572,373,l),
(572,0,l)
);
}
);
width = 742;
},
{
anchors = (
{
name = Anchor4;
pos = (342,0);
}
);
layerId = "397B4BA1-1DC1-423A-91EE-9CBCF179C3D0";
shapes = (
{
closed = 1;
nodes = (
(740,0,l),
(740,512,l),
(828,512,l),
(828,622,l),
(606,622,l),
(606,406,l),
(616,437,l),
(550,419,o),
(476,381,o),
(431,338,c),
(485,363,l),
(485,415,o),
(456,526,o),
(432,563,c),
(336,546,o),
(232,490,o),
(180,442,c),
(231,455,l),
(231,510,o),
(211,586,o),
(195,622,c),
(-7,622,l),
(-7,512,l),
(123,512,l),
(81,551,l),
(94,533,o),
(113,485,o),
(115,412,c),
(78,372,o),
(50,325,o),
(50,275,cs),
(50,218,o),
(86,195,o),
(128,195,cs),
(207,195,o),
(238,264,o),
(239,378,c),
(227,362,l),
(260,385,o),
(318,418,o),
(357,428,c),
(341,429,l),
(352,420,o),
(369,354,o),
(370,307,c),
(324,261,o),
(306,206,o),
(306,175,cs),
(306,114,o),
(342,91,o),
(384,91,cs),
(457,91,o),
(493,154,o),
(495,276,c),
(482,259,l),
(523,287,o),
(573,307,o),
(616,318,c),
(606,352,l),
(606,0,l)
);
}
);
width = 820;
},
{
anchors = (
{
name = Anchor4;
pos = (297,0);
}
);
layerId = "AD832606-5186-48BF-AC4A-95D20F9D6762";
shapes = (
{
closed = 1;
nodes = (
(605,0,l),
(605,596,l),
(712,596,l),
(712,622,l),
(579,622,l),
(579,427,l),
(591,435,l),
(488,417,o),
(409,365,o),
(380,331,c),
(394,333,l),
(393,405,o),
(370,493,o),
(342,549,c),
(250,522,o),
(174,472,o),
(139,431,c),
(151,432,l),
(151,490,o),
(129,570,o),
(102,622,c),
(-7,622,l),
(-7,596,l),
(109,596,l),
(80,608,l),
(107,557,o),
(126,492,o),
(128,423,c),
(91,369,o),
(64,304,o),
(64,260,cs),
(64,247,o),
(70,237,o),
(80,237,cs),
(108,237,o),
(139,314,o),
(150,412,c),
(141,400,l),
(192,455,o),
(266,497,o),
(342,520,c),
(320,525,l),
(345,491,o),
(369,386,o),
(369,323,c),
(332,269,o),
(305,204,o),
(305,160,cs),
(305,147,o),
(311,137,o),
(321,137,cs),
(348,137,o),
(381,214,o),
(392,312,c),
(383,300,l),
(430,349,o),
(502,392,o),
(591,408,c),
(579,415,l),
(579,0,l)
);
}
);
width = 705;
},
{
anchors = (
{
name = Anchor4;
pos = (352,0);
}
);
layerId = "F506C8C4-888D-41F0-91C9-49F2C7D2D9C4";
shapes = (
{
closed = 1;
nodes = (
(803,0,l),
(803,484,l),
(880,484,l),
(880,622,l),
(626,622,l),
(626,428,l),
(645,449,l),
(561,432,o),
(482,379,o),
(439,340,c),
(550,342,l),
(550,430,o),
(514,536,o),
(491,577,c),
(369,560,o),
(249,499,o),
(185,437,c),
(276,434,l),
(276,491,o),
(253,586,o),
(237,622,c),
(-7,622,l),
(-7,484,l),
(133,484,l),
(70,547,l),
(88,515,o),
(105,462,o),
(107,411,c),
(59,365,o),
(42,322,o),
(42,273,cs),
(42,223,o),
(70,177,o),
(140,177,cs),
(215,177,o),
(281,222,o),
(281,390,c),
(216,300,l),
(279,355,o),
(353,393,o),
(417,409,c),
(342,466,l),
(366,422,o),
(380,363,o),
(381,317,c),
(333,271,o),
(316,232,o),
(316,180,cs),
(316,130,o),
(344,84,o),
(414,84,cs),
(489,84,o),
(555,129,o),
(555,297,c),
(506,222,l),
(547,259,o),
(604,287,o),
(647,298,c),
(626,374,l),
(626,0,l)
);
}
);
width = 873;
},
{
anchors = (
{
name = Anchor4;
pos = (217,0);
}
);
layerId = "C86CFEE0-D181-456A-AA08-2B118FAF25CE";
shapes = (
{
closed = 1;
nodes = (
(455,0,l),
(455,596,l),
(539,596,l),
(539,622,l),
(429,622,l),
(429,437,l),
(444,445,l),
(388,431,o),
(316,378,o),
(285,331,c),
(295,325,l),
(293,405,o),
(268,504,o),
(249,548,c),
(188,521,o),
(131,470,o),
(102,426,c),
(113,422,l),
(111,490,o),
(92,573,o),
(74,622,c),
(-7,622,l),
(-7,596,l),
(77,596,l),
(52,604,l),
(70,559,o),
(87,483,o),
(89,414,c),
(68,365,o),
(49,305,o),
(49,264,cs),
(49,242,o),
(57,237,o),
(66,237,cs),
(89,237,o),
(109,307,o),
(115,412,c),
(104,389,l),
(136,444,o),
(195,496,o),
(247,518,c),
(227,530,l),
(246,498,o),
(270,386,o),
(271,317,c),
(250,268,o),
(231,208,o),
(231,167,cs),
(231,145,o),
(239,140,o),
(248,140,cs),
(271,140,o),
(291,210,o),
(297,315,c),
(286,292,l),
(321,352,o),
(391,406,o),
(444,419,c),
(429,425,l),
(429,0,l)
);
}
);
width = 532;
},
{
anchors = (
{
name = Anchor4;
pos = (287,0);
}
);
layerId = "CBEC276F-1F9B-404D-BC73-2CB92054D876";
shapes = (
{
closed = 1;
nodes = (
(655,0,l),
(655,489,l),
(716,489,l),
(716,622,l),
(505,622,l),
(505,406,l),
(526,437,l),
(482,429,o),
(422,404,o),
(381,368,c),
(451,366,l),
(451,431,o),
(428,537,o),
(405,576,c),
(306,557,o),
(213,515,o),
(155,462,c),
(233,458,l),
(233,515,o),
(218,586,o),
(206,622,c),
(-7,622,l),
(-7,489,l),
(122,489,l),
(74,515,l),
(84,497,o),
(90,458,o),
(90,432,c),
(50,380,o),
(30,320,o),
(30,272,cs),
(30,209,o),
(64,177,o),
(115,177,cs),
(189,177,o),
(235,241,o),
(235,399,c),
(195,330,l),
(240,375,o),
(299,410,o),
(351,425,c),
(295,434,l),
(302,409,o),
(308,366,o),
(308,340,c),
(268,288,o),
(248,228,o),
(248,180,cs),
(248,117,o),
(282,85,o),
(333,85,cs),
(407,85,o),
(453,149,o),
(453,307,c),
(413,229,l),
(441,262,o),
(504,285,o),
(542,296,c),
(505,352,l),
(505,0,l)
);
}
);
width = 709;
},
{
anchors = (
{
name = Anchor4;
pos = (236,0);
}
);
layerId = "04B5D069-3E89-43E6-853C-EFCF876AEDC5";
shapes = (
{
closed = 1;
nodes = (
(502,0,l),
(502,554,l),
(574,554,l),
(574,622,l),
(427,622,l),
(427,405,l),
(431,439,l),
(390,422,o),
(343,392,o),
(303,347,c),
(329,336,l),
(329,415,o),
(306,504,o),
(284,555,c),
(229,532,o),
(166,488,o),
(130,450,c),
(153,438,l),
(152,507,o),
(134,581,o),
(120,622,c),
(-7,622,l),
(-7,554,l),
(88,554,l),
(55,562,l),
(69,532,o),
(80,486,o),
(86,418,c),
(54,363,o),
(40,307,o),
(40,272,cs),
(40,225,o),
(65,213,o),
(86,213,cs),
(132,213,o),
(155,294,o),
(155,424,c),
(143,375,l),
(167,408,o),
(221,447,o),
(259,467,c),
(228,479,l),
(241,452,o),
(260,387,o),
(262,316,c),
(230,261,o),
(216,205,o),
(216,170,cs),
(216,123,o),
(241,111,o),
(261,111,cs),
(307,111,o),
(331,190,o),
(331,321,c),
(318,274,l),
(350,319,o),
(402,352,o),
(436,364,c),
(427,374,l),
(427,0,l)
);
}
);
width = 567;
}
);
unicode = 2565;
},
{
glyphname = aaguru;
lastChange = "2020-02-26 16:12:49 +0000";
layers = (
{
anchors = (
{
name = Anchor2;
pos = (896,622);
},
{
name = Anchor4;
pos = (294,0);
}
);
layerId = UUID0;
shapes = (
{
closed = 1;
nodes = (
(896,261,l),
(896,551,l),
(984,551,l),
(984,622,l),
(735,622,l),
(735,551,l),
(815,551,l),
(815,261,l)
);
},
{
ref = aguru;
}
);
width = 977;
},
{
anchors = (
{
name = Anchor2;
pos = (1013,622);
},
{
name = Anchor4;
pos = (342,0);
}
);
layerId = "397B4BA1-1DC1-423A-91EE-9CBCF179C3D0";
shapes = (
{
closed = 1;
nodes = (
(1013,242,l),
(1013,512,l),
(1086,512,l),
(1086,622,l),
(813,622,l),
(813,512,l),
(879,512,l),
(879,242,l)
);
},
{
ref = aguru;
}
);
width = 1079;
},
{
anchors = (
{
name = Anchor2;
pos = (855,622);
},
{
name = Anchor4;
pos = (297,0);
}
);
layerId = "AD832606-5186-48BF-AC4A-95D20F9D6762";
shapes = (
{
closed = 1;
nodes = (
(813,261,l),
(813,596,l),
(911,596,l),
(911,622,l),
(698,622,l),
(698,596,l),
(787,596,l),
(787,261,l)
);
},
{
ref = aguru;
}
);
width = 904;
},
{
anchors = (
{
name = Anchor2;
pos = (1101,622);
},
{
name = Anchor4;
pos = (350,0);
}
);
layerId = "F506C8C4-888D-41F0-91C9-49F2C7D2D9C4";
shapes = (
{
closed = 1;
nodes = (
(1101,242,l),
(1101,484,l),
(1166,484,l),
(1166,622,l),
(864,622,l),
(864,484,l),
(924,484,l),
(924,242,l)
);
},
{
ref = aguru;
}
);
width = 1159;
},
{
anchors = (
{
name = Anchor2;
pos = (623,622);
},
{
name = Anchor4;
pos = (217,0);
}
);
layerId = "C86CFEE0-D181-456A-AA08-2B118FAF25CE";
shapes = (
{
closed = 1;
nodes = (
(623,261,l),
(623,596,l),
(702,596,l),
(702,622,l),
(525,622,l),
(525,596,l),
(597,596,l),
(597,261,l)
);
},
{
ref = aguru;
}
);
width = 695;
},
{
anchors = (
{
name = Anchor2;
pos = (901,622);
},
{
name = Anchor4;
pos = (287,0);
}
);
layerId = "CBEC276F-1F9B-404D-BC73-2CB92054D876";
shapes = (
{
closed = 1;
nodes = (
(901,242,l),
(901,489,l),
(954,489,l),
(954,622,l),
(702,622,l),
(702,489,l),
(751,489,l),
(751,242,l)
);
},
{
ref = aguru;
}
);
width = 947;
},
{
anchors = (
{
name = Anchor2;
pos = (690,622);
},
{
name = Anchor4;
pos = (236,0);
}
);
layerId = "04B5D069-3E89-43E6-853C-EFCF876AEDC5";
shapes = (
{
closed = 1;
nodes = (
(694,261,l),
(694,554,l),
(757,554,l),
(757,622,l),
(560,622,l),
(560,554,l),
(619,554,l),
(619,261,l)
);
},
{
alignment = -1;
ref = aguru;
}
);
width = 750;
}
);
unicode = 2566;
},
{
glyphname = ooguru;
lastChange = "2020-02-26 16:12:49 +0000";
layers = (
{
anchors = (
{
name = Anchor4;
pos = (336,0);
}
);
layerId = UUID0;
shapes = (
{
closed = 1;
nodes = (
(495,0,o),
(563,66,o),
(563,175,cs),
(563,232,o),
(532,304,o),
(431,331,c),
(418,309,l),
(534,325,o),
(629,394,o),
(629,577,c),
(629,591,l),
(548,574,l),
(548,563,l),
(548,478,o),
(528,423,o),
(469,391,cs),
(430,370,o),
(383,362,o),
(281,362,cs),
(120,362,l),
(130,291,l),
(265,291,ls),
(376,291,o),
(405,281,o),
(437,261,cs),
(466,243,o),
(481,213,o),
(481,176,cs),
(481,107,o),
(443,73,o),
(355,73,cs),
(253,73,o),
(148,133,o),
(148,424,cs),
(148,597,o),
(179,692,o),
(252,737,cs),
(293,762,o),
(351,772,o),
(463,772,cs),
(603,772,l),
(607,843,l),
(454,843,ls),
(339,843,o),
(266,833,o),
(204,794,cs),
(107,733,o),
(66,619,o),
(66,421,cs),
(66,127,o),
(181,0,o),
(359,0,cs)
);
},
{
closed = 1;
nodes = (
(679,551,l),
(679,622,l),
(-7,622,l),
(-7,551,l)
);
}
);
width = 662;
},
{
anchors = (
{
name = Anchor4;
pos = (359,0);
}
);
layerId = "397B4BA1-1DC1-423A-91EE-9CBCF179C3D0";
shapes = (
{
closed = 1;
nodes = (
(541,0,o),
(618,66,o),
(618,175,cs),
(618,232,o),
(586,313,o),
(457,338,c),
(453,298,l),
(586,324,o),
(684,399,o),
(684,570,c),
(684,601,l),
(549,591,l),
(549,549,l),
(549,484,o),
(533,434,o),
(475,406,cs),
(440,389,o),
(401,381,o),
(315,381,cs),
(148,381,l),
(158,271,l),
(288,271,ls),
(390,271,o),
(416,264,o),
(444,249,cs),
(468,236,o),
(482,214,o),
(482,187,cs),
(482,136,o),
(449,110,o),
(373,110,cs),
(276,110,o),
(191,167,o),
(191,408,cs),
(191,555,o),
(202,629,o),
(250,678,cs),
(310,739,o),
(402,739,o),
(508,739,cs),
(618,739,l),
(625,849,l),
(511,849,ls),
(320,849,o),
(255,829,o),
(189,783,cs),
(98,719,o),
(57,605,o),
(57,421,cs),
(57,127,o),
(179,0,o),
(389,0,cs)
);
},
{
closed = 1;
nodes = (
(735,512,l),
(735,622,l),
(-7,622,l),
(-7,512,l)
);
}
);
width = 708;
},
{
anchors = (
{
name = Anchor4;
pos = (320,0);
}
);
layerId = "AD832606-5186-48BF-AC4A-95D20F9D6762";
shapes = (
{
closed = 1;
nodes = (
(441,0,o),
(508,59,o),
(508,168,cs),
(508,269,o),
(448,331,o),
(338,345,c),
(336,341,l),
(473,351,o),
(574,408,o),
(574,586,c),
(574,605,l),
(548,600,l),
(548,578,l),
(548,486,o),
(516,432,o),
(462,400,cs),
(416,372,o),
(358,359,o),
(245,359,cs),
(88,359,l),
(98,333,l),
(238,333,ls),
(323,333,o),
(367,323,o),
(403,304,cs),
(456,276,o),
(481,234,o),
(481,167,cs),
(481,74,o),
(424,26,o),
(331,26,cs),
(202,26,o),
(101,130,o),
(101,419,cs),
(101,585,o),
(136,701,o),
(219,762,cs),
(265,797,o),
(319,814,o),
(433,814,cs),
(570,814,l),
(572,840,l),
(435,840,ls),
(315,840,o),
(256,822,o),
(202,782,cs),
(117,719,o),
(74,602,o),
(74,419,cs),
(74,123,o),
(181,0,o),
(332,0,cs)
);
},
{
closed = 1;
nodes = (
(634,596,l),
(634,622,l),
(-7,622,l),
(-7,596,l)
);
}
);
width = 617;
},
{
anchors = (
{
name = Anchor4;
pos = (359,0);
}
);
layerId = "F506C8C4-888D-41F0-91C9-49F2C7D2D9C4";
shapes = (
{
closed = 1;
nodes = (
(564,0,o),
(644,62,o),
(644,170,cs),
(644,245,o),
(591,317,o),
(459,338,c),
(473,277,l),
(634,317,o),
(710,392,o),
(710,550,c),
(710,574,l),
(533,566,l),
(533,540,l),
(533,470,o),
(514,427,o),
(472,403,cs),
(440,385,o),
(406,378,o),
(320,378,cs),
(151,378,l),
(161,242,l),
(331,242,ls),
(395,242,o),
(421,238,o),
(438,230,cs),
(456,222,o),
(465,208,o),
(465,189,cs),
(465,161,o),
(443,138,o),
(377,138,cs),
(268,138,o),
(216,211,o),
(216,412,cs),
(216,540,o),
(225,618,o),
(273,663,cs),
(310,698,o),
(358,715,o),
(504,715,cs),
(645,715,l),
(654,854,l),
(512,854,ls),
(327,854,o),
(252,832,o),
(184,786,cs),
(88,721,o),
(39,622,o),
(39,421,cs),
(39,134,o),
(163,0,o),
(391,0,cs)
);
},
{
closed = 1;
nodes = (
(764,484,l),
(764,622,l),
(-7,622,l),
(-7,484,l)
);
}
);
width = 723;
},
{
anchors = (
{
name = Anchor4;
pos = (231,0);
}
);
layerId = "C86CFEE0-D181-456A-AA08-2B118FAF25CE";
shapes = (
{
closed = 1;
nodes = (
(345,0,o),
(387,63,o),
(387,155,cs),
(387,259,o),
(323,340,o),
(191,348,c),
(190,337,l),
(329,340,o),
(439,399,o),
(439,605,c),
(439,611,l),
(413,613,l),
(413,592,l),
(413,496,o),
(381,430,o),
(325,396,cs),
(288,373,o),
(250,359,o),
(160,359,cs),
(83,359,l),
(81,333,l),
(138,333,ls),
(198,333,o),
(229,326,o),
(262,311,cs),
(316,286,o),
(360,239,o),
(360,154,cs),
(360,81,o),
(334,26,o),
(252,26,cs),
(159,26,o),
(90,124,o),
(90,404,cs),
(90,594,o),
(112,710,o),
(183,768,cs),
(221,800,o),
(266,814,o),
(358,814,cs),
(430,814,l),
(433,840,l),
(355,840,ls),
(260,840,o),
(207,823,o),
(166,788,cs),
(83,719,o),
(64,589,o),
(64,404,cs),
(64,111,o),
(139,0,o),
(253,0,cs)
);
},
{
closed = 1;
nodes = (
(496,596,l),
(496,622,l),
(-7,622,l),
(-7,596,l)
);
}
);
width = 473;
},
{
anchors = (
{
name = Anchor4;
pos = (281,0);
}
);
layerId = "CBEC276F-1F9B-404D-BC73-2CB92054D876";
shapes = (
{
closed = 1;
nodes = (
(450,0,o),
(508,73,o),
(508,171,cs),
(508,252,o),
(455,327,o),
(343,336,c),
(297,277,l),
(500,303,o),
(557,390,o),
(557,566,c),
(557,597,l),
(406,569,l),
(406,538,l),
(405,471,o),
(390,428,o),
(356,403,cs),
(328,383,o),
(301,376,o),
(212,376,cs),
(135,376,l),
(143,245,l),
(222,245,ls),
(291,245,o),
(313,241,o),
(330,232,cs),
(350,222,o),
(358,205,o),
(358,183,cs),
(358,158,o),
(343,132,o),
(294,132,cs),
(215,132,o),
(186,195,o),
(186,404,cs),
(186,568,o),
(203,655,o),
(264,693,cs),
(289,709,o),
(322,720,o),
(409,720,cs),
(507,720,l),
(514,854,l),
(423,854,ls),
(294,854,o),
(226,833,o),
(172,796,cs),
(75,730,o),
(36,622,o),
(36,404,cs),
(36,125,o),
(126,0,o),
(302,0,cs)
);
},
{
closed = 1;
nodes = (
(593,489,l),
(593,622,l),
(-7,622,l),
(-7,489,l)
);
}
);
width = 566;
},
{
anchors = (
{
name = Anchor4;
pos = (232,0);
}
);
layerId = "04B5D069-3E89-43E6-853C-EFCF876AEDC5";
shapes = (
{
closed = 1;
nodes = (
(375,0,o),
(427,66,o),
(427,163,cs),
(427,246,o),
(378,319,o),
(266,331,c),
(256,305,l),
(397,324,o),
(479,398,o),
(479,583,c),
(479,603,l),
(404,589,l),
(404,563,l),
(404,464,o),
(369,417,o),
(320,388,cs),
(285,367,o),
(242,361,o),
(184,361,cs),
(93,361,l),
(109,293,l),
(157,293,ls),
(227,293,o),
(254,287,o),
(284,273,cs),
(326,253,o),
(350,217,o),
(350,161,cs),
(350,103,o),
(322,69,o),
(264,69,cs),
(192,69,o),
(126,120,o),
(126,405,cs),
(126,593,o),
(146,692,o),
(209,738,cs),
(243,763,o),
(283,775,o),
(369,775,cs),
(468,775,l),
(471,843,l),
(367,843,ls),
(258,843,o),
(205,824,o),
(162,792,cs),
(69,723,o),
(51,591,o),
(51,405,cs),
(51,102,o),
(135,0,o),
(270,0,cs)
);
},
{
closed = 1;
nodes = (
(522,554,l),
(522,622,l),
(-7,622,l),
(-7,554,l)
);
}
);
width = 501;
}
);
unicode = 2579;
},
{
glyphname = kaguru;
lastChange = "2020-02-26 16:12:49 +0000";
layers = (
{
anchors = (
{
name = Anchor2;
pos = (513,622);
},
{
name = Anchor6;
pos = (488,0);
}
);
layerId = UUID0;
shapes = (
{
closed = 1;
nodes = (
(569,0,l),
(558,102,o),
(535,223,o),
(471,309,c),
(458,326,l),
(403,400,o),
(333,441,o),
(230,441,cs),
(122,441,o),
(35,379,o),
(35,268,cs),
(35,159,o),
(110,94,o),
(229,94,cs),
(335,94,o),
(413,146,o),
(462,221,c),
(475,243,l),
(519,307,o),
(535,385,o),
(535,458,cs),
(535,486,o),
(530,531,o),
(526,551,c),
(629,551,l),
(629,622,l),
(-7,622,l),
(-7,551,l),
(445,551,l),
(450,526,o),
(455,485,o),
(455,458,cs),
(455,414,o),
(450,359,o),
(430,312,c),
(423,286,l),
(388,222,o),
(328,166,o),
(230,166,cs),
(165,166,o),
(117,200,o),
(117,267,cs),
(117,336,o),
(167,370,o),
(237,370,cs),
(317,370,o),
(379,327,o),
(425,254,c),
(435,230,l),
(464,168,o),
(481,91,o),
(488,0,c)
);
}
);
width = 622;
},
{
anchors = (
{
name = Anchor2;
pos = (558,622);
},
{
name = Anchor6;
pos = (482,0);
}
);
layerId = "397B4BA1-1DC1-423A-91EE-9CBCF179C3D0";
shapes = (
{
closed = 1;
nodes = (
(617,0,l),
(605,101,o),
(580,220,o),
(509,305,c),
(495,319,l),
(429,396,o),
(357,436,o),
(244,436,cs),
(122,436,o),
(29,369,o),
(29,249,cs),
(29,131,o),
(114,62,o),
(245,62,cs),
(362,62,o),
(448,115,o),
(502,193,c),
(517,212,l),
(565,277,o),
(583,355,o),
(583,430,cs),
(583,454,o),
(580,494,o),
(576,512,c),
(666,512,l),
(666,622,l),
(-7,622,l),
(-7,512,l),
(440,512,l),
(445,493,o),
(449,468,o),
(449,437,cs),
(449,397,o),
(445,348,o),
(428,305,c),
(422,281,l),
(393,223,o),
(342,172,o),
(260,172,cs),
(203,172,o),
(165,198,o),
(165,248,cs),
(165,300,o),
(205,325,o),
(268,325,cs),
(336,325,o),
(389,287,o),
(429,223,c),
(437,203,l),
(461,148,o),
(477,80,o),
(482,0,c)
);
}
);
width = 658;
},
{
anchors = (
{
name = Anchor2;
pos = (490,622);
},
{
name = Anchor6;
pos = (490,0);
}
);
guides = (
{
pos = (395,287);
}
);
layerId = "AD832606-5186-48BF-AC4A-95D20F9D6762";
shapes = (
{
closed = 1;
nodes = (
(519,0,l),
(509,117,o),
(487,222,o),
(445,303,c),
(440,311,l),
(390,400,o),
(317,453,o),
(215,453,cs),
(114,453,o),
(43,394,o),
(43,290,cs),
(43,201,o),
(101,129,o),
(213,129,cs),
(317,129,o),
(397,175,o),
(444,271,c),
(449,282,l),
(473,334,o),
(485,400,o),
(485,476,cs),
(485,517,o),
(478,562,o),
(470,596,c),
(589,596,l),
(589,622,l),
(-7,622,l),
(-7,596,l),
(443,596,l),
(453,562,o),
(459,507,o),
(459,476,cs),
(459,410,o),
(451,354,o),
(433,307,c),
(427,293,l),
(385,200,o),
(313,155,o),
(213,155,cs),
(129,155,o),
(71,202,o),
(71,290,cs),
(71,377,o),
(125,427,o),
(215,427,cs),
(313,427,o),
(382,372,o),
(428,281,c),
(433,271,l),
(466,199,o),
(483,105,o),
(492,0,c)
);
}
);
width = 582;
},
{
anchors = (
{
name = Anchor2;
pos = (603,622);
},
{
name = Anchor6;
pos = (478,0);
}
);
guides = (
{
pos = (423,252);
}
);
layerId = "F506C8C4-888D-41F0-91C9-49F2C7D2D9C4";
shapes = (
{
closed = 1;
nodes = (
(655,0,l),
(646,132,o),
(611,235,o),
(532,320,c),
(491,341,l),
(428,405,o),
(360,434,o),
(253,434,cs),
(110,434,o),
(23,365,o),
(23,242,cs),
(23,121,o),
(116,49,o),
(260,49,cs),
(374,49,o),
(462,95,o),
(526,181,c),
(551,203,l),
(599,266,o),
(623,337,o),
(623,432,cs),
(623,449,o),
(622,467,o),
(620,484,c),
(696,484,l),
(696,622,l),
(-7,622,l),
(-7,484,l),
(445,484,l),
(448,470,o),
(450,452,o),
(450,435,cs),
(450,407,o),
(447,369,o),
(439,339,c),
(413,278,l),
(386,227,o),
(342,188,o),
(277,188,cs),
(217,188,o),
(200,216,o),
(200,243,cs),
(200,280,o),
(233,296,o),
(277,296,cs),
(343,296,o),
(389,259,o),
(422,210,c),
(441,172,l),
(461,124,o),
(476,62,o),
(478,0,c)
);
}
);
width = 689;
},
{
anchors = (
{
name = Anchor2;
pos = (350,622);
},
{
name = Anchor6;
pos = (364,0);
}
);
guides = (
{
pos = (264,291);
}
);
layerId = "C86CFEE0-D181-456A-AA08-2B118FAF25CE";
shapes = (
{
closed = 1;
nodes = (
(391,0,l),
(391,110,o),
(375,221,o),
(338,308,c),
(331,320,l),
(295,402,o),
(245,453,o),
(172,453,cs),
(89,453,o),
(37,389,o),
(37,291,cs),
(37,200,o),
(79,129,o),
(173,129,cs),
(253,129,o),
(306,183,o),
(337,271,c),
(342,284,l),
(359,336,o),
(366,391,o),
(366,458,cs),
(366,504,o),
(360,554,o),
(351,596,c),
(453,596,l),
(453,622,l),
(-7,622,l),
(-7,596,l),
(325,596,l),
(333,565,o),
(340,516,o),
(340,459,cs),
(340,407,o),
(335,356,o),
(325,313,c),
(320,299,l),
(296,213,o),
(248,155,o),
(172,155,cs),
(99,155,o),
(64,206,o),
(64,291,cs),
(64,372,o),
(101,427,o),
(173,427,cs),
(245,427,o),
(289,367,o),
(321,281,c),
(325,271,l),
(352,194,o),
(364,95.007,o),
(364,0,c)
);
}
);
width = 446;
},
{
anchors = (
{
name = Anchor2;
pos = (464,622);
},
{
name = Anchor6;
pos = (357,0);
}
);
guides = (
{
pos = (312,245);
}
);
layerId = "CBEC276F-1F9B-404D-BC73-2CB92054D876";
shapes = (
{
closed = 1;
nodes = (
(508,0,l),
(502,127,o),
(479,228,o),
(426,310,c),
(383,330,l),
(336,397,o),
(289,434,o),
(207,434,cs),
(97,434,o),
(19,365,o),
(19,246,cs),
(19,101,o),
(117,51,o),
(210,51,cs),
(299,51,o),
(354,96,o),
(390,161,c),
(423,189,l),
(464,261,o),
(483,353,o),
(483,434,cs),
(483,452,o),
(482,476,o),
(480,489,c),
(545,489,l),
(545,622,l),
(-7,622,l),
(-7,489,l),
(332,489,l),
(335,471,o),
(336,452,o),
(336,434,cs),
(336,406,o),
(333,358,o),
(328,326,c),
(318,285,l),
(302,217,o),
(267,184,o),
(222,184,cs),
(181,184,o),
(169,213,o),
(169,242,cs),
(169,279,o),
(190,301,o),
(224,301,cs),
(269,301,o),
(302,265,o),
(320,207,c),
(329,180,l),
(344,132,o),
(354,68,o),
(357,0,c)
);
}
);
width = 538;
},
{
anchors = (
{
name = Anchor2;
pos = (385,622);
},
{
name = Anchor6;
pos = (351,0);
}
);
guides = (
{
pos = (247,270);
}
);
layerId = "04B5D069-3E89-43E6-853C-EFCF876AEDC5";
shapes = (
{
closed = 1;
nodes = (
(426,0,l),
(420,112,o),
(400,227,o),
(354,314,c),
(337,333,l),
(297,405,o),
(249,441,o),
(178,441,cs),
(92,441,o),
(26,378,o),
(26,270,cs),
(26,150,o),
(94,95,o),
(181,95,cs),
(256,95,o),
(312,139,o),
(344,214,c),
(358,235,l),
(390,302,o),
(402,382,o),
(402,458,cs),
(402,487,o),
(397,532,o),
(393,554,c),
(472,554,l),
(472,622,l),
(-7,622,l),
(-7,554,l),
(318,554,l),
(324,523,o),
(327,489,o),
(327,452,cs),
(327,407,o),
(324,363,o),
(316,324,c),
(310,296,l),
(290,217,o),
(250,164,o),
(183,164,cs),
(139,164,o),
(101,188,o),
(101,269,cs),
(101,341,o),
(141,372,o),
(186,372,cs),
(246,372,o),
(286,319,o),
(311,246,c),
(318,226,l),
(338,159,o),
(348,77,o),
(351,0,c)
);
}
);
width = 465;
}
);
unicode = 2581;
},
{
glyphname = khaguru;
lastChange = "2020-02-26 16:12:49 +0000";
layers = (
{
layerId = UUID0;
shapes = (
{
closed = 1;
nodes = (
(509,0,l),
(509,551,l),
(605,551,l),
(605,622,l),
(428,622,l),
(428,239,l),
(429,251,l),
(381,222,o),
(338,206,o),
(284,206,cs),
(206,206,o),
(161,257,o),
(118,357,c),
(114,313,l),
(158,344,o),
(188,389,o),
(188,460,cs),
(188,509,o),
(171,568,o),
(142,622,c),
(-7,622,l),
(-7,551,l),
(84,551,l),
(99,525,o),
(108,488,o),
(108,459,cs),
(108,405,o),
(78,367,o),
(38,333,c),
(88,210,o),
(166,132,o),
(284,132,cs),
(341,132,o),
(383,144,o),
(429,165,c),
(428,180,l),
(428,0,l)
);
},
{
closed = 1;
nodes = (
(465,385,l),
(465,454,l),
(118,454,l),
(118,385,l)
);
}
);
width = 598;
},
{
layerId = "397B4BA1-1DC1-423A-91EE-9CBCF179C3D0";
shapes = (
{
closed = 1;
nodes = (
(568,0,l),
(568,512,l),
(655,512,l),
(655,622,l),
(434,622,l),
(434,253,l),
(435,263,l),
(395,241,o),
(359,231,o),
(313,231,cs),
(246,231,o),
(194,274,o),
(168,374,c),
(156,291,l),
(206,338,o),
(234,380,o),
(234,451,cs),
(234,507,o),
(218,567,o),
(188,622,c),
(-7,622,l),
(-7,512,l),
(85,512,l),
(96,494,o),
(101,467,o),
(101,441,cs),
(101,387,o),
(67,351,o),
(31,327,c),
(87,195,o),
(171,119,o),
(308,119,cs),
(351,119,o),
(391,123,o),
(435,139,c),
(434,145,l),
(434,0,l)
);
},
{
closed = 1;
nodes = (
(497,377,l),
(497,478,l),
(147,478,l),
(171,377,l)
);
}
);
width = 648;
},
{
layerId = "AD832606-5186-48BF-AC4A-95D20F9D6762";
shapes = (
{
closed = 1;
nodes = (
(445,0,l),
(445,596,l),
(552,596,l),
(552,622,l),
(419,622,l),
(419,227,l),
(421,246,l),
(373,207,o),
(321,194,o),
(271,194,cs),
(184,194,o),
(114,243,o),
(78,334,c),
(77,322,l),
(122,370,o),
(150,414,o),
(150,479,cs),
(150,530,o),
(136,575,o),
(115,622,c),
(-7,622,l),
(-7,596,l),
(95,596,l),
(111,564,o),
(123,527,o),
(123,479,cs),
(123,420,o),
(97,379,o),
(50,333,c),
(102,209,o),
(183,168,o),
(271,168,cs),
(332,168,o),
(378,184,o),
(423,215,c),
(419,221,l),
(419,0,l)
);
},
{
closed = 1;
nodes = (
(429,406,l),
(429,432,l),
(132,432,l),
(132,406,l)
);
}
);
width = 545;
},
{
layerId = "F506C8C4-888D-41F0-91C9-49F2C7D2D9C4";
shapes = (
{
closed = 1;
nodes = (
(606,0,l),
(606,484,l),
(683,484,l),
(683,622,l),
(429,622,l),
(429,252,l),
(455,288,l),
(424,265,o),
(381,248,o),
(328,248,cs),
(274,248,o),
(237,278,o),
(214,334,c),
(182,278,l),
(244,325,o),
(269,381,o),
(269,445,cs),
(269,504,o),
(249,562,o),
(220,622,c),
(-7,622,l),
(-7,484,l),
(81,484,l),
(89,467,o),
(92,450,o),
(92,434,cs),
(92,387,o),
(66,359,o),
(25,330,c),
(92,171,o),
(185,109,o),
(322,109,cs),
(379,109,o),
(417,116,o),
(457,135,c),
(429,145,l),
(429,0,l)
);
},
{
closed = 1;
nodes = (
(500,368,l),
(500,492,l),
(150,492,l),
(174,368,l)
);
}
);
width = 676;
},
{
layerId = "C86CFEE0-D181-456A-AA08-2B118FAF25CE";
shapes = (
{
closed = 1;
nodes = (
(343,0,l),
(343,596,l),
(427,596,l),
(427,622,l),
(317,622,l),
(317,233,l),
(328,252,l),
(292,213,o),
(255,194,o),
(209,194,cs),
(130,194,o),
(93,246,o),
(65,342,c),
(59,319,l),
(99,372,o),
(119,408,o),
(119,474,cs),
(119,523,o),
(103,576,o),
(83,622,c),
(-7,622,l),
(-7,596,l),
(65,596,l),
(79,567,o),
(92,520,o),
(92,474,cs),
(92,416,o),
(74,382,o),
(39,336,c),
(75,219,o),
(124,168,o),
(208,168,cs),
(260,168,o),
(300,188,o),
(331,220,c),
(317,227,l),
(317,0,l)
);
},
{
closed = 1;
nodes = (
(335,406,l),
(333,432,l),
(102,432,l),
(102,406,l)
);
}
);
width = 420;
},
{
layerId = "CBEC276F-1F9B-404D-BC73-2CB92054D876";
shapes = (
{
closed = 1;
nodes = (
(473,0,l),
(473,489,l),
(534,489,l),
(534,622,l),
(323,622,l),
(323,246,l),
(329,265,l),
(316,254,o),
(292,242,o),
(258,242,cs),
(219,242,o),
(196,270,o),
(177,341,c),
(148,266,l),
(194,307,o),
(224,358,o),
(224,434,cs),
(224,497,o),
(207,561,o),
(181,622,c),
(-7,622,l),
(-7,489,l),
(66,489,l),
(72,472,o),
(74,454,o),
(74,433,cs),
(74,389,o),
(53,352,o),
(21,320,c),
(65,173,o),
(139,109,o),
(256,109,cs),
(297,109,o),
(330,119,o),
(357,138,c),
(323,155,l),
(323,0,l)
);
},
{
closed = 1;
nodes = (
(414,371,l),
(414,490,l),
(94,490,l),
(118,371,l)
);
}
);
width = 527;
},
{
layerId = "04B5D069-3E89-43E6-853C-EFCF876AEDC5";
shapes = (
{
closed = 1;
nodes = (
(387,0,l),
(387,554,l),
(458,554,l),
(458,622,l),
(312,622,l),
(312,223,l),
(317,238,l),
(289,217,o),
(264,204,o),
(224,204,cs),
(162,204,o),
(128,257,o),
(104,355,c),
(98,314,l),
(132,350,o),
(157,391,o),
(157,462,cs),
(157,512,o),
(141,569,o),
(120,622,c),
(-7,622,l),
(-7,554,l),
(63,554,l),
(74,523,o),
(82,492,o),
(82,461,cs),
(82,409,o),
(57,370,o),
(28,333,c),
(68,191,o),
(128,134,o),
(221,134,cs),
(265,134,o),
(297,145,o),
(324,163,c),
(312,183,l),
(312,0,l)
);
},
{
closed = 1;
nodes = (
(338,387,l),
(338,453,l),
(96,453,l),
(105,387,l)
);
}
);
width = 451;
}
);
unicode = 2582;
},
{
glyphname = gaguru;
lastChange = "2020-02-26 16:12:49 +0000";
layers = (
{
layerId = UUID0;
shapes = (
{
closed = 1;
nodes = (
(376,0,o),
(432,54,o),
(432,170,cs),
(432,551,l),
(521,551,l),
(521,622,l),
(-7,622,l),
(-7,551,l),
(351,551,l),
(351,408,l),
(247,408,ls),
(153,408,o),
(110,394,o),
(78,362,cs),
(54,338,o),
(37,302,o),
(37,258,cs),
(37,132,o),
(145,0,o),
(275,0,cs)
);
},
{
closed = 1;
nodes = (
(195,73,o),
(118,173,o),
(118,252,cs),
(118,276,o),
(123,296,o),
(137,311,cs),
(157,331,o),
(182,337,o),
(263,337,cs),
(351,337,l),
(351,176,ls),
(351,124,o),
(345,107,o),
(334,94,cs),
(318,77,o),
(298,73,o),
(274,73,cs)
);
},
{
closed = 1;
nodes = (
(661,0,l),
(661,551,l),
(757,551,l),
(757,622,l),
(484,622,l),
(485,551,l),
(580,551,l),
(580,0,l)
);
}
);
width = 750;
},
{
layerId = "397B4BA1-1DC1-423A-91EE-9CBCF179C3D0";
shapes = (
{
closed = 1;
nodes = (
(436,0,o),
(493,60,o),
(493,175,cs),
(493,512,l),
(581,512,l),
(581,622,l),
(-7,622,l),
(-7,512,l),
(359,512,l),
(359,420,l),
(261,420,ls),
(162,420,o),
(109,402,o),
(76,370,cs),
(50,345,o),
(32,311,o),
(32,265,cs),
(32,122,o),
(155,0,o),
(312,0,cs)
);
},
{
closed = 1;
nodes = (
(237,110,o),
(167,184,o),
(167,246,cs),
(167,264,o),
(169,279,o),
(184,292,cs),
(197,303,o),
(219,310,o),
(281,310,cs),
(359,310,l),
(359,188,ls),
(359,149,o),
(355,137,o),
(347,127,cs),
(336,114,o),
(318,110,o),
(303,110,cs)
);
},
{
closed = 1;
nodes = (
(756,0,l),
(756,512,l),
(844,512,l),
(844,622,l),
(535,622,l),
(535,512,l),
(622,512,l),
(622,0,l)
);
}
);
width = 836;
},
{
layerId = "AD832606-5186-48BF-AC4A-95D20F9D6762";
shapes = (
{
closed = 1;
nodes = (
(359,0,o),
(384,62,o),
(384,137,cs),
(384,596,l),
(517,596,l),
(517,622,l),
(-7,622,l),
(-7,596,l),
(358,596,l),
(358,397,l),
(221,397,ls),
(144,397,o),
(107,382,o),
(81,357,cs),
(57,333,o),
(46,300,o),
(46,261,cs),
(46,142,o),
(157,0,o),
(279,0,cs)
);
},
{
closed = 1;
nodes = (
(171,26,o),
(73,158,o),
(73,260,cs),
(73,294,o),
(81,321,o),
(101,340,cs),
(122,360,o),
(153,371,o),
(214,371,cs),
(358,371,l),
(358,145,ls),
(358,104,o),
(353,69,o),
(334,48,cs),
(321,34,o),
(303,26,o),
(279,26,cs)
);
},
{
closed = 1;
nodes = (
(574,0,l),
(574,596,l),
(681,596,l),
(681,622,l),
(437,622,l),
(437,596,l),
(548,596,l),
(548,0,l)
);
}
);
width = 674;
},
{
layerId = "F506C8C4-888D-41F0-91C9-49F2C7D2D9C4";
shapes = (
{
closed = 1;
nodes = (
(457,0,o),
(528,51,o),
(528,187,cs),
(528,484,l),
(598,484,l),
(598,622,l),
(-7,622,l),
(-7,484,l),
(354,484,l),
(354,425,l),
(273,425,ls),
(172,425,o),
(113,410,o),
(72,374,cs),
(43,348,o),
(25,313,o),
(25,265,cs),
(25,112,o),
(163,0,o),
(323,0,cs)
);
},
{
closed = 1;
nodes = (
(260,139,o),
(203,202,o),
(203,248,cs),
(203,259,o),
(207,269,o),
(214,275,cs),
(224,284,o),
(236,287,o),
(266,287,cs),
(351,287,l),
(351,191,ls),
(351,168,o),
(348,155,o),
(340,147,cs),
(334,142,o),
(328,139,o),
(315,139,cs)
);
},
{
closed = 1;
nodes = (
(817,0,l),
(817,484,l),
(894,484,l),
(894,622,l),
(572,622,l),
(572,484,l),
(640,484,l),
(640,0,l)
);
}
);
width = 887;
},
{
layerId = "C86CFEE0-D181-456A-AA08-2B118FAF25CE";
shapes = (
{
closed = 1;
nodes = (
(275,0,o),
(294,51,o),
(294,106,cs),
(294,596,l),
(385,596,l),
(385,622,l),
(-7,622,l),
(-7,596,l),
(268,596,l),
(268,398,l),
(197,398,ls),
(143,398,o),
(109,390,o),
(84,372,cs),
(54,350,o),
(39,314,o),
(39,260,cs),
(39,152,o),
(103,0,o),
(209,0,cs)
);
},
{
closed = 1;
nodes = (
(124,26,o),
(66,164,o),
(66,260,cs),
(66,305,o),
(77,334,o),
(100,351,cs),
(120,366,o),
(147,372,o),
(201,372,cs),
(268,372,l),
(268,116,ls),
(268,79,o),
(263,56,o),
(250,42,cs),
(240,31,o),
(227,26,o),
(209,26,cs)
);
},
{
closed = 1;
nodes = (
(440,0,l),
(440,596,l),
(524,596,l),
(524,622,l),
(331,622,l),
(331,596,l),
(414,596,l),
(414,0,l)
);
}
);
width = 517;
},
{
layerId = "CBEC276F-1F9B-404D-BC73-2CB92054D876";
shapes = (
{
closed = 1;
nodes = (
(367,0,o),
(422,53,o),
(422,149,cs),
(422,489,l),
(466,489,l),
(466,622,l),
(-7,622,l),
(-7,489,l),
(275,489,l),
(275,424,l),
(226,424,ls),
(147,424,o),
(105,413,o),
(71,387,cs),
(40,364,o),
(22,328,o),
(22,277,cs),
(22,136,o),
(109,0,o),
(254,0,cs)
);
},
{
closed = 1;
nodes = (
(210,133,o),
(173,194,o),
(173,252,cs),
(173,267,o),
(177,277,o),
(185,283,cs),
(194,290,o),
(204,292,o),
(234,292,cs),
(272,292,l),
(272,172,ls),
(272,153,o),
(270,144,o),
(265,139,cs),
(260,134,o),
(255,133,o),
(246,133,cs)
);
},
{
closed = 1;
nodes = (
(656,0,l),
(656,489,l),
(717,489,l),
(717,622,l),
(453,622,l),
(453,489,l),
(506,489,l),
(506,0,l)
);
}
);
width = 710;
},
{
layerId = "04B5D069-3E89-43E6-853C-EFCF876AEDC5";
shapes = (
{
closed = 1;
nodes = (
(301,0,o),
(332,66,o),
(332,129,cs),
(332,554,l),
(395,554,l),
(395,622,l),
(-7,622,l),
(-7,554,l),
(257,554,l),
(257,405,l),
(205,405,ls),
(135,405,o),
(102,396,o),
(75,377,cs),
(45,355,o),
(29,319,o),
(29,268,cs),
(29,132,o),
(106,0,o),
(213,0,cs)
);
},
{
closed = 1;
nodes = (
(150,69,o),
(104,178,o),
(104,262,cs),
(104,290,o),
(111,308,o),
(124,320,cs),
(139,333,o),
(160,337,o),
(205,337,cs),
(257,337,l),
(257,137,ls),
(257,110,o),
(254,92,o),
(244,81,cs),
(236,72,o),
(227,69,o),
(212,69,cs)
);
},
{
closed = 1;
nodes = (
(507,0,l),
(507,554,l),
(578,554,l),
(578,622,l),
(366,622,l),
(366,554,l),
(432,554,l),
(432,0,l)
);
}
);
width = 571;
}
);
unicode = 2583;
},
{
glyphname = ghaguru;
lastChange = "2020-02-26 16:12:49 +0000";
layers = (
{
layerId = UUID0;
shapes = (
{
closed = 1;
nodes = (
(318,133,o),
(377,182,o),
(405,315,c),
(352,327,l),
(358,222,o),
(400,133,o),
(514,133,cs),
(551,133,o),
(581,143,o),
(604,162,c),
(589,240,l),
(573,219,o),
(553,206,o),
(520,206,cs),
(475,206,o),
(436,236,o),
(415,315,c),
(427,384,o),
(436,454,o),
(436,508,cs),
(436,567,o),
(424,608,o),
(381,608,cs),
(343,608,o),
(326,570,o),
(326,509,cs),
(326,451,o),
(332,386,o),
(342,317,c),
(322,238,o),
(283,206,o),
(235,206,cs),
(182,206,o),
(140,248,o),
(118,362,c),
(107,309,l),
(159,342,o),
(188,389,o),
(188,460,cs),
(188,509,o),
(171,568,o),
(142,622,c),
(-7,622,l),
(-7,551,l),
(120,551,l),
(72,568,l),
(94,544,o),
(108,495,o),
(108,459,cs),
(108,405,o),
(78,367,o),
(38,333,c),
(83,199,o),
(124,133,o),
(229,133,cs)
);
},
{
closed = 1;
nodes = (
(668,0,l),
(668,551,l),
(764,551,l),
(764,622,l),
(587,622,l),
(587,0,l)
);
}
);
width = 757;
},
{
layerId = "397B4BA1-1DC1-423A-91EE-9CBCF179C3D0";
shapes = (
{
closed = 1;
nodes = (
(356,133,o),
(420,182,o),
(453,315,c),
(365,327,l),
(372,222,o),
(409,133,o),
(534,133,cs),
(576,133,o),
(609,143,o),
(635,162,c),
(620,279,l),
(606,262,o),
(589,245,o),
(551,245,cs),
(519,245,o),
(490,262,o),
(475,315,c),
(486,378,o),
(494,451,o),
(494,490,cs),
(494,558,o),
(474,608,o),
(412,608,cs),
(355,608,o),
(329,569,o),
(329,490,cs),
(329,451,o),
(337,386,o),
(347,317,c),
(332,264,o),
(298,245,o),
(265,245,cs),
(212,245,o),
(191,291,o),
(157,376,c),
(143,295,l),
(206,332,o),
(234,378,o),
(234,451,cs),
(234,507,o),
(218,568,o),
(188,622,c),
(-7,622,l),
(-7,512,l),
(107,512,l),
(78,524,l),
(97,498,o),
(101,466,o),
(101,441,cs),
(101,393,o),
(72,354,o),
(31,327,c),
(81,202,o),
(132,133,o),
(256,133,cs)
);
},
{
closed = 1;
nodes = (
(735,0,l),
(735,512,l),
(822,512,l),
(822,622,l),
(601,622,l),
(601,0,l)
);
}
);
width = 815;
},
{
layerId = "AD832606-5186-48BF-AC4A-95D20F9D6762";
shapes = (
{
closed = 1;
nodes = (
(311,169,o),
(361,238,o),
(366,355,c),
(348,355,l),
(353,225,o),
(406,169,o),
(492,169,cs),
(546,169,o),
(577,191,o),
(603,220,c),
(588,238,l),
(564,212,o),
(536,195,o),
(492,195,cs),
(430,195,o),
(378,241,o),
(368,335,c),
(373,409,o),
(379,478,o),
(379,529,cs),
(379,588,o),
(374,606,o),
(356,606,cs),
(340,606,o),
(333,587,o),
(333,529,cs),
(333,475,o),
(339,409,o),
(344,336,c),
(334,253,o),
(295,195,o),
(220,195,cs),
(151,195,o),
(103,235,o),
(77,336,c),
(77,322,l),
(122,370,o),
(150,414,o),
(150,479,cs),
(150,530,o),
(136,575,o),
(115,622,c),
(-7,622,l),
(-7,596,l),
(115,596,l),
(89,606,l),
(111,568,o),
(123,527,o),
(123,479,cs),
(123,419,o),
(97,379,o),
(50,333,c),
(84,208,o),
(144,169,o),
(220,169,cs)
);
},
{
closed = 1;
nodes = (
(606,0,l),
(606,596,l),
(713,596,l),
(713,622,l),
(580,622,l),
(580,0,l)
);
}
);
width = 706;
},
{
layerId = "F506C8C4-888D-41F0-91C9-49F2C7D2D9C4";
shapes = (
{
closed = 1;
nodes = (
(420,115,o),
(472,195,o),
(501,308,c),
(381,327,l),
(388,212,o),
(428,115,o),
(561,115,cs),
(605,115,o),
(642,127,o),
(668,146,c),
(641,287,l),
(626,261,o),
(604,253,o),
(579,253,cs),
(548,253,o),
(528,273,o),
(516,311,c),
(530,366,o),
(539,428,o),
(539,486,cs),
(539,565,o),
(506,611,o),
(439,611,cs),
(373,611,o),
(339,562,o),
(339,485,cs),
(339,434,o),
(347,371,o),
(363,313,c),
(349,275,o),
(329,254,o),
(292,254,cs),
(252,254,o),
(228,285,o),
(212,336,c),
(186,278,l),
(248,325,o),
(273,382,o),
(273,445,cs),
(273,505,o),
(253,562,o),
(224,622,c),
(-7,622,l),
(-7,484,l),
(107,484,l),
(68,515,l),
(87,489,o),
(96,459,o),
(96,434,cs),
(96,387,o),
(70,359,o),
(29,330,c),
(71,189,o),
(154,115,o),
(277,115,cs)
);
},
{
closed = 1;
nodes = (
(793,0,l),
(793,484,l),
(870,484,l),
(870,622,l),
(616,622,l),
(616,0,l)
);
}
);
width = 863;
},
{
layerId = "C86CFEE0-D181-456A-AA08-2B118FAF25CE";
shapes = (
{
closed = 1;
nodes = (
(238,169,o),
(274,219,o),
(277,329,c),
(261,329,l),
(266,209,o),
(300,169,o),
(368,169,cs),
(408,169,o),
(433,185,o),
(457,205,c),
(446,231,l),
(426,209,o),
(401,195,o),
(368,195,cs),
(327,195,o),
(291,215,o),
(282,305,c),
(288,382,o),
(291,453,o),
(291,527,cs),
(291,590,o),
(284,606,o),
(270,606,cs),
(257,606,o),
(249,591,o),
(249,527,cs),
(249,454,o),
(254,382,o),
(258,305,c),
(247,229,o),
(217,195,o),
(167,195,cs),
(118,195,o),
(86,236,o),
(65,342,c),
(59,319,l),
(99,372,o),
(119,408,o),
(119,474,cs),
(119,523,o),
(103,576,o),
(83,622,c),
(-7,622,l),
(-7,596,l),
(88,596,l),
(63,600,l),
(79,567,o),
(92,520,o),
(92,474,cs),
(92,416,o),
(74,382,o),
(39,336,c),
(66,207,o),
(107,169,o),
(167,169,cs)
);
},
{
closed = 1;
nodes = (
(464,0,l),
(464,596,l),
(548,596,l),
(548,622,l),
(438,622,l),
(438,0,l)
);
}
);
width = 541;
},
{
layerId = "CBEC276F-1F9B-404D-BC73-2CB92054D876";
shapes = (
{
closed = 1;
nodes = (
(334,115,o),
(406,194,o),
(417,327,c),
(307,327,l),
(322,202,o),
(356,115,o),
(465,115,cs),
(490,115,o),
(521,125,o),
(541,144,c),
(528,285,l),
(509,259,o),
(497,249,o),
(476,249,cs),
(459,249,o),
(436,261,o),
(434,304,c),
(446,371,o),
(454,427,o),
(454,483,cs),
(454,563,o),
(423,608,o),
(365,608,cs),
(307,608,o),
(270,566,o),
(270,486,cs),
(270,429,o),
(278,371,o),
(290,301,c),
(285,273,o),
(265,249,o),
(236,249,cs),
(202,249,o),
(184,283,o),
(181,343,c),
(148,266,l),
(194,307,o),
(224,358,o),
(224,434,cs),
(224,497,o),
(207,561,o),
(181,622,c),
(-7,622,l),
(-7,489,l),
(82,489,l),
(62,499,l),
(72,479,o),
(74,454,o),
(74,433,cs),
(74,389,o),
(53,352,o),
(21,320,c),
(57,171,o),
(125,115,o),
(224,115,cs)
);
},
{
closed = 1;
nodes = (
(667,0,l),
(667,489,l),
(728,489,l),
(728,622,l),
(517,622,l),
(517,0,l)
);
}
);
width = 721;
},
{
layerId = "04B5D069-3E89-43E6-853C-EFCF876AEDC5";
shapes = (
{
closed = 1;
nodes = (
(243,135,o),
(295,170,o),
(311,288,c),
(266,289,l),
(274,182,o),
(305,135,o),
(379,135,cs),
(407,135,o),
(429,142,o),
(450,162,c),
(442,240,l),
(429,216,o),
(412,204,o),
(387,204,cs),
(359,204,o),
(330,220,o),
(321,288,c),
(332,365,o),
(338,435,o),
(338,492,cs),
(338,575,o),
(328,608,o),
(288,608,cs),
(251,608,o),
(237,575,o),
(237,495,cs),
(237,435,o),
(244,365,o),
(254,288,c),
(240,218,o),
(211,204,o),
(187,204,cs),
(145,204,o),
(123,248,o),
(102,360,c),
(98,314,l),
(132,350,o),
(157,391,o),
(157,462,cs),
(157,512,o),
(141,569,o),
(120,622,c),
(-7,622,l),
(-7,554,l),
(85,554,l),
(54,571,l),
(73,539,o),
(82,492,o),
(82,461,cs),
(82,409,o),
(57,370,o),
(28,333,c),
(60,200,o),
(98,135,o),
(183,135,cs)
);
},
{
closed = 1;
nodes = (
(506,0,l),
(506,554,l),
(577,554,l),
(577,622,l),
(431,622,l),
(431,0,l)
);
}
);
width = 570;
}
);
unicode = 2584;
},
{
glyphname = ngaguru;
lastChange = "2020-02-26 16:12:49 +0000";
layers = (
{
anchors = (
{
name = Anchor6;
pos = (414,0);
}
);
layerId = UUID0;
shapes = (
{
closed = 1;
nodes = (
(496,13,l),
(480,48,o),
(458,91,o),
(429,132,cs),
(374,210,o),
(301,273,o),
(188,273,cs),
(90,273,o),
(42,222,o),
(42,164,cs),
(42,86,o),
(102,37,o),
(236,37,cs),
(423,37,o),
(542,154,o),
(542,278,cs),
(542,325,o),
(527,360,o),
(499,386,cs),
(464,418,o),
(418,433,o),
(323,433,cs),
(170,433,l),
(170,551,l),
(586,551,l),
(586,622,l),
(-7,622,l),
(-7,551,l),
(89,551,l),
(89,391,l),
(119,362,l),
(301,362,ls),
(388,362,o),
(414,353,o),
(436,335,cs),
(453,321,o),
(461,299,o),
(461,275,cs),
(461,223,o),
(433,175,o),
(384,144,cs),
(346,120,o),
(297,106,o),
(238,106,cs),
(163,106,o),
(123,123,o),
(123,160,cs),
(123,186,o),
(145,202,o),
(188,202,cs),
(312,202,o),
(382,81,o),
(418,-8,c)
);
}
);
width = 579;
},
{
anchors = (
{
name = Anchor6;
pos = (430,0);
}
);
layerId = "397B4BA1-1DC1-423A-91EE-9CBCF179C3D0";
shapes = (
{
closed = 1;
nodes = (
(551,18,l),
(523,75,o),
(491,131,o),
(458,173,c),
(394,251,o),
(322,302,o),
(209,302,cs),
(97,302,o),
(39,248,o),
(39,174,cs),
(39,84,o),
(112,28,o),
(261,28,cs),
(458,28,o),
(602,128,o),
(602,291,cs),
(602,342,o),
(577,378,o),
(555,396,cs),
(509,435,o),
(453,443,o),
(365,443,cs),
(217,443,l),
(217,512,l),
(643,512,l),
(643,622,l),
(-7,622,l),
(-7,512,l),
(83,512,l),
(83,368,l),
(118,333,l),
(349,333,ls),
(411,333,o),
(430,330,o),
(447,317,cs),
(461,306,o),
(467,292,o),
(467,272,cs),
(467,239,o),
(451,207,o),
(416,180,cs),
(382,153,o),
(335,135,o),
(259,135,cs),
(198,135,o),
(170,147,o),
(170,171,cs),
(170,193,o),
(188,201,o),
(223,201,cs),
(291,201,o),
(370,148,o),
(436,-15,c)
);
}
);
width = 635;
},
{
anchors = (
{
name = Anchor6;
pos = (423,0);
}
);
layerId = "AD832606-5186-48BF-AC4A-95D20F9D6762";
shapes = (
{
closed = 1;
nodes = (
(460,0,l),
(441,42,o),
(419,83,o),
(394,118,c),
(331,210,o),
(259,260,o),
(173,260,cs),
(99,260,o),
(51,218,o),
(51,155,cs),
(51,89,o),
(109,40,o),
(220,40,cs),
(373,40,o),
(491,149,o),
(491,281,cs),
(491,327,o),
(477,362,o),
(450,387,cs),
(418,417,o),
(375,431,o),
(288,431,cs),
(126,431,l),
(126,596,l),
(544,596,l),
(544,622,l),
(-7,622,l),
(-7,596,l),
(100,596,l),
(100,420,l),
(117,405,l),
(278,405,ls),
(370,405,o),
(405,392,o),
(432,367,cs),
(454,347,o),
(464,318,o),
(464,281,cs),
(464,216,o),
(433,157,o),
(382,118,cs),
(338,84,o),
(284,66,o),
(221,66,cs),
(125,66,o),
(78,102,o),
(78,155,cs),
(78,206,o),
(119,234,o),
(174,234,cs),
(304,234,o),
(391,93,o),
(435,-7,c)
);
}
);
width = 537;
},
{
anchors = (
{
name = Anchor6;
pos = (419,0);
}
);
layerId = "F506C8C4-888D-41F0-91C9-49F2C7D2D9C4";
shapes = (
{
closed = 1;
nodes = (
(574,21,l),
(547,70,o),
(519,115,o),
(487,152,c),
(404,247,o),
(333,288,o),
(207,288,cs),
(80,288,o),
(27,237,o),
(27,162,cs),
(27,46,o),
(155,18,o),
(272,18,cs),
(477,18,o),
(633,117,o),
(633,278,cs),
(633,327,o),
(614,365,o),
(580,392,cs),
(542,422,o),
(495,437,o),
(396,437,cs),
(250,437,l),
(250,484,l),
(665,484,l),
(665,622,l),
(-7,622,l),
(-7,484,l),
(76,484,l),
(76,349,l),
(121,304,l),
(383,304,ls),
(415,304,o),
(430,301,o),
(443,291,cs),
(452,284,o),
(457,273,o),
(457,258,cs),
(457,220,o),
(439,194,o),
(407,172,c),
(372,149,o),
(320,137,o),
(267,137,cs),
(218,137,o),
(202,145,o),
(202,159,cs),
(202,173,o),
(215,178,o),
(236,178,cs),
(295,178,o),
(366,128,o),
(427,-19,c)
);
}
);
width = 658;
},
{
anchors = (
{
name = Anchor6;
pos = (333,0);
}
);
layerId = "C86CFEE0-D181-456A-AA08-2B118FAF25CE";
shapes = (
{
closed = 1;
nodes = (
(360,1,l),
(348,48,o),
(334,89,o),
(318,125,c),
(284,201,o),
(233,252,o),
(155,252,cs),
(84,252,o),
(44,209,o),
(44,150,cs),
(44,78,o),
(97,40,o),
(169,40,cs),
(287,40,o),
(372,144,o),
(372,275,cs),
(372,332,o),
(356,374,o),
(325,399,cs),
(298,422,o),
(264,431,o),
(198,431,cs),
(103,431,l),
(103,596,l),
(418,596,l),
(418,622,l),
(-7,622,l),
(-7,596,l),
(77,596,l),
(77,422,l),
(93,405,l),
(196,405,ls),
(257,405,o),
(286,397,o),
(308,379,cs),
(333,358,o),
(345,325,o),
(345,275,cs),
(345,219,o),
(330,169,o),
(302,132,cs),
(271,91,o),
(226,66,o),
(169,66,cs),
(110,66,o),
(71,96,o),
(71,150,cs),
(71,190,o),
(95,226,o),
(155,226,cs),
(249,226,o),
(301,133,o),
(334,-5,c)
);
}
);
width = 411;
},
{
anchors = (
{
name = Anchor6;
pos = (341,0);
}
);
layerId = "CBEC276F-1F9B-404D-BC73-2CB92054D876";
shapes = (
{
closed = 1;
nodes = (
(482,11,l),
(458,78,o),
(430,131,o),
(401,173,c),
(336,259,o),
(274,288,o),
(179,288,cs),
(70,288,o),
(20,235,o),
(20,162,cs),
(20,83,o),
(75,18,o),
(218,18,cs),
(371,18,o),
(506,112,o),
(506,264,cs),
(506,327,o),
(485,373,o),
(444,401,cs),
(409,426,o),
(367,437,o),
(284,437,cs),
(203,437,l),
(203,489,l),
(533,489,l),
(533,622,l),
(-7,622,l),
(-7,489,l),
(56,489,l),
(56,355,l),
(112,307,l),
(282,307,ls),
(317,307,o),
(331,303,o),
(343,294,cs),
(353,286,o),
(358,274,o),
(358,255,cs),
(358,223,o),
(341,195,o),
(316,173,cs),
(290,151,o),
(252,137,o),
(216,137,cs),
(183,137,o),
(168,142,o),
(168,159,cs),
(168,175,o),
(184,180,o),
(202,180,cs),
(256,180,o),
(308,137,o),
(344,-14,c)
);
}
);
width = 526;
},
{
anchors = (
{
name = Anchor6;
pos = (321,0);
}
);
layerId = "04B5D069-3E89-43E6-853C-EFCF876AEDC5";
shapes = (
{
closed = 1;
nodes = (
(395,8,l),
(381,60,o),
(362,110,o),
(341,148,c),
(302,223,o),
(247,268,o),
(162,268,cs),
(78,268,o),
(31,219,o),
(31,158,cs),
(31,86,o),
(79,37,o),
(181,37,cs),
(317,37,o),
(412,144,o),
(412,273,cs),
(412,329,o),
(395,367,o),
(365,393,cs),
(333,421,o),
(293,432,o),
(206,432,cs),
(143,432,l),
(143,554,l),
(448,554,l),
(448,622,l),
(-7,622,l),
(-7,554,l),
(68,554,l),
(68,393,l),
(92,364,l),
(197,364,ls),
(262,364,o),
(288,358,o),
(310,340,cs),
(328,326,o),
(337,303,o),
(337,269,cs),
(337,230,o),
(326,190,o),
(297,156,c),
(272,126,o),
(236,104,o),
(180,104,cs),
(132,104,o),
(105,121,o),
(105,156,cs),
(105,185,o),
(129,201,o),
(166,201,cs),
(250,201,o),
(299,120,o),
(322,-6,c)
);
}
);
width = 441;
}
);
unicode = 2585;
},
{
glyphname = caguru;
lastChange = "2020-02-26 16:12:49 +0000";
layers = (
{
anchors = (
{
name = Anchor6;
pos = (438,0);
}
);
layerId = UUID0;
shapes = (
{
closed = 1;
nodes = (
(513,0,o),
(568,57,o),
(568,175,cs),
(568,556,l),
(487,556,l),
(487,183,ls),
(487,128,o),
(480,110,o),
(468,96,cs),
(452,78,o),
(426,73,o),
(395,73,cs),
(285,73,o),
(186,174,o),
(181,306,c),
(160,291,l),
(525,291,l),
(532,362,l),
(182,362,l),
(182,387,ls),
(182,416,o),
(171,442,o),
(139,442,cs),
(96,442,o),
(32,377,o),
(32,329,cs),
(32,308,o),
(46,291,o),
(83,291,cs),
(112,291,l),
(100,302,l),
(104,224,o),
(138,145,o),
(182,96,cs),
(230,41,o),
(301,0,o),
(388,0,cs)
);
},
{
closed = 1;
nodes = (
(664,551,l),
(664,622,l),
(-7,622,l),
(-7,551,l)
);
}
);
width = 657;
},
{
anchors = (
{
name = Anchor6;
pos = (432,0);
}
);
layerId = "397B4BA1-1DC1-423A-91EE-9CBCF179C3D0";
shapes = (
{
closed = 1;
nodes = (
(553,0,o),
(622,51,o),
(622,175,cs),
(622,523,l),
(488,523,l),
(488,188,ls),
(488,149,o),
(482,137,o),
(472,127,cs),
(458,114,o),
(436,110,o),
(410,110,cs),
(325,110,o),
(246,183,o),
(230,289,c),
(212,269,l),
(516,269,l),
(496,379,l),
(235,379,l),
(235,390,ls),
(235,433,o),
(213,459,o),
(170,459,cs),
(96,459,o),
(24,375,o),
(24,321,cs),
(24,290,o),
(42,269,o),
(87,269,cs),
(111,269,l),
(99,281,l),
(107,223,o),
(135,153,o),
(181,101,cs),
(232,43,o),
(312,0,o),
(415,0,cs)
);
},
{
closed = 1;
nodes = (
(709,512,l),
(709,622,l),
(-7,622,l),
(-7,512,l)
);
}
);
width = 702;
},
{
anchors = (
{
name = Anchor6;
pos = (427,0);
}
);
layerId = "AD832606-5186-48BF-AC4A-95D20F9D6762";
shapes = (
{
closed = 1;
nodes = (
(467,0,o),
(489,60,o),
(489,143,cs),
(489,601,l),
(463,601,l),
(463,154,ls),
(463,104,o),
(458,71,o),
(439,50,cs),
(427,37,o),
(410,26,o),
(369,26,cs),
(263,26,o),
(134,128,o),
(116,343,c),
(109,333,l),
(471,333,l),
(478,359,l),
(119,359,l),
(119,386,ls),
(119,403,o),
(116,419,o),
(101,419,cs),
(76,419,o),
(40,378,o),
(40,354,cs),
(40,337,o),
(57,333,o),
(80,333,cs),
(99,333,l),
(89,340,l),
(94,269,o),
(117,192,o),
(151,138,cs),
(203,54,o),
(282,0,o),
(370,0,cs)
);
},
{
closed = 1;
nodes = (
(596,596,l),
(596,622,l),
(-7,622,l),
(-7,596,l)
);
}
);
width = 589;
},
{
anchors = (
{
name = Anchor6;
pos = (411,0);
}
);
layerId = "F506C8C4-888D-41F0-91C9-49F2C7D2D9C4";
shapes = (
{
closed = 1;
nodes = (
(568,0,o),
(639,52,o),
(639,193,cs),
(639,523,l),
(462,523,l),
(462,203,ls),
(462,172,o),
(459,159,o),
(451,151,cs),
(442,142,o),
(429,139,o),
(404,139,cs),
(350,139,o),
(276,176,o),
(256,262,c),
(205,244,l),
(509,244,l),
(489,382,l),
(259,382,l),
(259,384,ls),
(259,423,o),
(237,453,o),
(180,453,cs),
(100,453,o),
(13,369,o),
(13,305,cs),
(13,262,o),
(40,242,o),
(80,242,cs),
(123,242,l),
(73,278,l),
(92,192,o),
(122,135,o),
(172,89,cs),
(235,30,o),
(322,0,o),
(411,0,cs)
);
},
{
closed = 1;
nodes = (
(716,484,l),
(716,622,l),
(-7,622,l),
(-7,484,l)
);
}
);
width = 709;
},
{
anchors = (
{
name = Anchor6;
pos = (317,0);
}
);
layerId = "C86CFEE0-D181-456A-AA08-2B118FAF25CE";
shapes = (
{
closed = 1;
nodes = (
(357,0,o),
(384,42,o),
(384,124,cs),
(384,603,l),
(358,603,l),
(358,141,ls),
(358,92,o),
(354,61,o),
(336,43,cs),
(325,32,o),
(310,26,o),
(284,26,cs),
(187,26,o),
(105,153,o),
(93,351,c),
(89,333,l),
(372,333,l),
(377,359,l),
(96,359,l),
(96,386,ls),
(96,404,o),
(92,413,o),
(81,413,cs),
(60,413,o),
(32,375,o),
(32,351,cs),
(32,335,o),
(45,333,o),
(60,333,cs),
(77,333,l),
(67,340,l),
(74,266,o),
(89,193,o),
(117,133,cs),
(154,53,o),
(214,0,o),
(284,0,cs)
);
},
{
closed = 1;
nodes = (
(468,596,l),
(468,622,l),
(-7,622,l),
(-7,596,l)
);
}
);
width = 461;
},
{
anchors = (
{
name = Anchor6;
pos = (311,0);
}
);
layerId = "CBEC276F-1F9B-404D-BC73-2CB92054D876";
shapes = (
{
closed = 1;
nodes = (
(464,0,o),
(501,76,o),
(501,155,cs),
(501,523,l),
(351,523,l),
(351,179,ls),
(351,155,o),
(350,147,o),
(344,141,cs),
(339,136,o),
(333,133,o),
(318,133,cs),
(285,133,o),
(214,176,o),
(211,278,c),
(169,248,l),
(398,248,l),
(382,379,l),
(209,379,l),
(209,382,ls),
(209,423,o),
(191,444,o),
(148,444,cs),
(84,444,o),
(10,361,o),
(10,296,cs),
(10,261,o),
(31,246,o),
(53,246,cs),
(89,246,l),
(59,282,l),
(66,199,o),
(105,122,o),
(151,75,cs),
(190,34,o),
(253,0,o),
(326,0,cs)
);
},
{
closed = 1;
nodes = (
(562,489,l),
(562,622,l),
(-7,622,l),
(-7,489,l)
);
}
);
width = 555;
},
{
anchors = (
{
name = Anchor6;
pos = (316,0);
}
);
layerId = "04B5D069-3E89-43E6-853C-EFCF876AEDC5";
shapes = (
{
closed = 1;
nodes = (
(391,0,o),
(430,59,o),
(430,146,cs),
(430,559,l),
(355,559,l),
(355,159,ls),
(355,114,o),
(351,96,o),
(340,84,cs),
(331,74,o),
(318,69,o),
(300,69,cs),
(228,69,o),
(162,156,o),
(151,300,c),
(135,293,l),
(360,293,l),
(355,361,l),
(151,361,l),
(151,397,ls),
(151,422,o),
(140,439,o),
(118,439,cs),
(73,439,o),
(24,372,o),
(24,329,cs),
(24,309,o),
(35,292,o),
(71,292,cs),
(88,292,l),
(75,311,l),
(81,214,o),
(104,150,o),
(138,97,cs),
(172,44,o),
(229,0,o),
(301,0,cs)
);
},
{
closed = 1;
nodes = (
(501,554,l),
(501,622,l),
(-7,622,l),
(-7,554,l)
);
}
);
width = 494;
}
);
unicode = 2586;
},
{
glyphname = chaguru;
lastChange = "2020-02-26 16:12:49 +0000";
layers = (
{
anchors = (
{
name = Anchor2;
pos = (534,622);
},
{
name = Anchor4;
pos = (317,0);
},
{
name = Anchor6;
pos = (450,0);
}
);
layerId = UUID0;
shapes = (
{
closed = 1;
nodes = (
(513,0,o),
(596,47,o),
(596,146,cs),
(596,244,o),
(512,287,o),
(399,287,cs),
(230,287,ls),
(174,287,o),
(132,295,o),
(132,338,cs),
(132,355,o),
(139,366,o),
(151,373,cs),
(167,383,o),
(195,386,o),
(229,386,cs),
(505,386,l),
(534,415,l),
(534,551,l),
(642,551,l),
(642,622,l),
(-7,622,l),
(-7,551,l),
(454,551,l),
(454,457,l),
(243,457,ls),
(161,457,o),
(123,449,o),
(88,420,cs),
(66,402,o),
(51,373,o),
(51,341,cs),
(51,279,o),
(96,246,o),
(158,229,c),
(158,218,l),
(379,218,ls),
(451,218,o),
(516,205,o),
(516,147,cs),
(516,90,o),
(462,68,o),
(336,68,cs),
(314,68,ls),
(180,68,o),
(126,91,o),
(126,146,cs),
(126,196,o),
(177,218,o),
(246,218,c),
(157,254,l),
(67,231,o),
(46,180,o),
(46,144,cs),
(46,42,o),
(133,0,o),
(316,0,cs)
);
},
{
closed = 1;
nodes = (
(359,233,l),
(284,233,l),
(284,50,l),
(359,50,l)
);
}
);
width = 634;
},
{
anchors = (
{
name = Anchor2;
pos = (593,622);
},
{
name = Anchor4;
pos = (344,0);
},
{
name = Anchor6;
pos = (444,0);
}
);
layerId = "397B4BA1-1DC1-423A-91EE-9CBCF179C3D0";
shapes = (
{
closed = 1;
nodes = (
(563,0,o),
(655,47,o),
(655,148,cs),
(655,254,o),
(563,284,o),
(442,284,cs),
(252,284,ls),
(213,284,o),
(188,290,o),
(188,318,cs),
(188,331,o),
(193,338,o),
(202,343,cs),
(213,349,o),
(224,351,o),
(260,351,cs),
(563,351,l),
(593,388,l),
(593,512,l),
(696,512,l),
(696,622,l),
(-7,622,l),
(-7,512,l),
(458,512,l),
(458,451,l),
(262,451,ls),
(178,451,o),
(129,443,o),
(94,420,cs),
(64,400,o),
(46,370,o),
(46,326,cs),
(46,266,o),
(85,225,o),
(169,198,c),
(169,183,l),
(425,183,ls),
(479,183,o),
(521,182,o),
(521,145,cs),
(521,112,o),
(480,101,o),
(400,101,cs),
(276,101,ls),
(209,101,o),
(176,113,o),
(176,146,cs),
(176,173,o),
(203,183,o),
(261,183,c),
(148,254,l),
(62,223,o),
(42,178,o),
(42,144,cs),
(42,42,o),
(137,0,o),
(345,0,cs)
);
},
{
closed = 1;
nodes = (
(414,233,l),
(284,233,l),
(284,50,l),
(414,49,l)
);
}
);
width = 689;
},
{
anchors = (
{
name = Anchor2;
pos = (513,622);
},
{
name = Anchor4;
pos = (309,0);
},
{
name = Anchor6;
pos = (448,0);
}
);
layerId = "AD832606-5186-48BF-AC4A-95D20F9D6762";
shapes = (
{
closed = 1;
nodes = (
(489,0,o),
(555,39,o),
(555,135,cs),
(555,211,o),
(502,261,o),
(370,261,cs),
(255,261,ls),
(146,261,o),
(86,279,o),
(86,347,cs),
(86,371,o),
(96,388,o),
(113,400,cs),
(133,414,o),
(160,419,o),
(208,419,cs),
(475,419,l),
(492,434,l),
(492,596,l),
(609,596,l),
(609,622,l),
(-7,622,l),
(-7,596,l),
(466,596,l),
(466,445,l),
(211,445,ls),
(161,445,o),
(125,440,o),
(100,423,cs),
(75,406,o),
(59,383,o),
(59,347,cs),
(59,283,o),
(104,251,o),
(185,245,c),
(184,235,l),
(371,235,ls),
(480,235,o),
(528,200,o),
(528,135,cs),
(528,64,o),
(483,25,o),
(312,25,cs),
(290,25,ls),
(158,25,o),
(82,54,o),
(82,135,cs),
(82,196,o),
(132,235,o),
(246,235,c),
(185,248,l),
(90,240,o),
(55,187,o),
(55,135,cs),
(55,35,o),
(146,0,o),
(307,0,cs)
);
},
{
closed = 1;
nodes = (
(314,252,l),
(288,252,l),
(288,10,l),
(314,10,l)
);
}
);
width = 602;
},
{
anchors = (
{
name = Anchor2;
pos = (625,622);
},
{
name = Anchor4;
pos = (354,0);
},
{
name = Anchor6;
pos = (436,0);
}
);
layerId = "F506C8C4-888D-41F0-91C9-49F2C7D2D9C4";
shapes = (
{
closed = 1;
nodes = (
(575,0,o),
(686,28,o),
(686,149,cs),
(686,250,o),
(594,287,o),
(463,287,cs),
(271,287,ls),
(237,287,o),
(219,292,o),
(219,308,cs),
(219,314,o),
(221,319,o),
(226,322,cs),
(230,325,o),
(237,327,o),
(258,327,cs),
(575,327,l),
(625,367,l),
(625,484,l),
(715,484,l),
(715,622,l),
(-7,622,l),
(-7,484,l),
(453,484,l),
(453,446,l),
(258,446,ls),
(181,446,o),
(142,439,o),
(106,421,cs),
(66,401,o),
(39,370,o),
(39,313,cs),
(39,248,o),
(89,213,o),
(168,190,c),
(167,175,l),
(438,175,ls),
(489,175,o),
(506,165,o),
(506,145,cs),
(506,122,o),
(490,112,o),
(412,112,cs),
(294,112,ls),
(226,112,o),
(212,123,o),
(212,146,cs),
(212,165,o),
(231,175,o),
(276,175,c),
(152,253,l),
(76,230,o),
(35,191,o),
(35,141,cs),
(35,38,o),
(135,0,o),
(343,0,cs)
);
},
{
closed = 1;
nodes = (
(428,233,l),
(288,233,l),
(288,71,l),
(428,70,l)
);
}
);
width = 708;
},
{
anchors = (
{
name = Anchor2;
pos = (365,622);
},
{
name = Anchor4;
pos = (225,0);
},
{
name = Anchor6;
pos = (307,0);
}
);
layerId = "C86CFEE0-D181-456A-AA08-2B118FAF25CE";
shapes = (
{
closed = 1;
nodes = (
(354,0,o),
(409,46,o),
(409,134,cs),
(409,217,o),
(351,261,o),
(253,261,cs),
(194,261,ls),
(123,261,o),
(78,286,o),
(78,343,cs),
(78,371,o),
(91,390,o),
(111,402,cs),
(132,414,o),
(156,419,o),
(201,419,cs),
(352,419,l),
(365,434,l),
(365,596,l),
(458,596,l),
(458,622,l),
(-7,622,l),
(-7,596,l),
(339,596,l),
(339,445,l),
(204,445,ls),
(152,445,o),
(123,439,o),
(98,425,cs),
(69,409,o),
(51,382,o),
(51,343,cs),
(51,279,o),
(94,251,o),
(163,241,c),
(152,235,l),
(255,235,ls),
(339,235,o),
(382,199,o),
(382,134,cs),
(382,64,o),
(341,26,o),
(235,26,cs),
(222,26,ls),
(136,26,o),
(74,58,o),
(74,134,cs),
(74,199,o),
(125,235,o),
(201,235,c),
(174,253,l),
(93,247,o),
(47,200,o),
(47,133,cs),
(47,42,o),
(122,0,o),
(228,0,cs)
);
},
{
closed = 1;
nodes = (
(242,252,l),
(216,252,l),
(216,10,l),
(242,10,l)
);
}
);
width = 451;
},
{
anchors = (
{
name = Anchor2;
pos = (489,622);
},
{
name = Anchor4;
pos = (275,0);
},
{
name = Anchor6;
pos = (337,0);
}
);
layerId = "CBEC276F-1F9B-404D-BC73-2CB92054D876";
shapes = (
{
closed = 1;
nodes = (
(448,0,o),
(533,53,o),
(533,152,cs),
(533,252,o),
(450,286,o),
(333,286,cs),
(222,286,ls),
(200,286,o),
(188,293,o),
(188,309,cs),
(188,315,o),
(190,320,o),
(195,324,cs),
(201,329,o),
(210,330,o),
(225,330,cs),
(455,330,l),
(489,365,l),
(489,489,l),
(558,489,l),
(558,622,l),
(-7,622,l),
(-7,489,l),
(339,489,l),
(339,445,l),
(252,445,ls),
(180,445,o),
(145,440,o),
(114,427,cs),
(64,406,o),
(32,368,o),
(32,313,cs),
(32,241,o),
(78,214,o),
(141,191,c),
(133,178,l),
(331,178,ls),
(362,178,o),
(379,169,o),
(379,144,cs),
(379,121,o),
(364,108,o),
(322,108,cs),
(232,108,ls),
(191,108,o),
(176,122,o),
(176,146,cs),
(176,168,o),
(194,178,o),
(225,178,c),
(131,252,l),
(85,238,o),
(28,210,o),
(28,139,cs),
(28,47,o),
(107,0,o),
(277,0,cs)
);
},
{
closed = 1;
nodes = (
(335,233,l),
(221,233,l),
(221,40,l),
(335,39,l)
);
}
);
width = 551;
},
{
anchors = (
{
name = Anchor2;
pos = (407,622);
},
{
name = Anchor4;
pos = (238,0);
},
{
name = Anchor6;
pos = (326,0);
}
);
layerId = "04B5D069-3E89-43E6-853C-EFCF876AEDC5";
shapes = (
{
closed = 1;
nodes = (
(385,0,o),
(451,55,o),
(451,145,cs),
(451,238,o),
(379,284,o),
(280,284,cs),
(197,284,ls),
(156,284,o),
(117,293,o),
(117,338,cs),
(117,354,o),
(124,366,o),
(134,374,cs),
(146,383,o),
(159,388,o),
(198,388,cs),
(381,388,l),
(407,416,l),
(407,554,l),
(488,554,l),
(488,622,l),
(-7,622,l),
(-7,554,l),
(332,554,l),
(332,456,l),
(221,456,ls),
(162,456,o),
(125,450,o),
(99,436,cs),
(63,418,o),
(41,385,o),
(41,340,cs),
(41,283,o),
(78,244,o),
(141,230,c),
(142,220,l),
(272,220,ls),
(334,220,o),
(376,199,o),
(376,145,cs),
(376,87,o),
(322,64,o),
(251,64,cs),
(238,64,ls),
(156,64,o),
(112,95,o),
(112,146,cs),
(112,198,o),
(157,220,o),
(207,220,c),
(144,254,l),
(73,240,o),
(37,193,o),
(37,141,cs),
(37,46,o),
(120,0,o),
(241,0,cs)
);
},
{
closed = 1;
nodes = (
(280,234,l),
(209,234,l),
(209,47,l),
(280,47,l)
);
}
);
width = 481;
}
);
unicode = 2587;
},
{
glyphname = jaguru;
lastChange = "2020-02-26 16:12:49 +0000";
layers = (
{
layerId = UUID0;
shapes = (
{
closed = 1;
nodes = (
(187,0,l),
(187,291,l),
(442,291,l),
(442,0,l),
(523,0,l),
(523,551,l),
(619,551,l),
(619,622,l),
(-7,622,l),
(-7,551,l),
(442,551,l),
(442,362,l),
(187,362,l),
(187,387,ls),
(187,416,o),
(176,442,o),
(144,442,cs),
(101,442,o),
(37,377,o),
(37,329,cs),
(37,308,o),
(51,291,o),
(88,291,cs),
(106,291,l),
(106,0,l)
);
}
);
width = 612;
},
{
layerId = "397B4BA1-1DC1-423A-91EE-9CBCF179C3D0";
shapes = (
{
closed = 1;
nodes = (
(238,0,l),
(238,259,l),
(445,259,l),
(445,0,l),
(579,0,l),
(579,512,l),
(666,512,l),
(666,622,l),
(-7,622,l),
(-7,512,l),
(445,512,l),
(445,369,l),
(238,369,l),
(238,380,ls),
(238,423,o),
(216,449,o),
(173,449,cs),
(99,449,o),
(27,365,o),
(27,311,cs),
(27,280,o),
(44,259,o),
(89,259,cs),
(104,259,l),
(104,0,l)
);
}
);
width = 659;
},
{
layerId = "AD832606-5186-48BF-AC4A-95D20F9D6762";
shapes = (
{
closed = 1;
nodes = (
(130,0,l),
(130,333,l),
(436,333,l),
(436,0,l),
(462,0,l),
(462,596,l),
(569,596,l),
(569,622,l),
(-7,622,l),
(-7,596,l),
(436,596,l),
(436,359,l),
(132,359,l),
(132,386,ls),
(132,403,o),
(129,419,o),
(114,419,cs),
(89,419,o),
(53,378,o),
(53,354,cs),
(53,337,o),
(70,333,o),
(94,333,cs),
(104,333,l),
(104,0,l)
);
}
);
width = 562;
},
{
layerId = "F506C8C4-888D-41F0-91C9-49F2C7D2D9C4";
shapes = (
{
closed = 1;
nodes = (
(265,0,l),
(265,223,l),
(427,223,l),
(427,0,l),
(604,0,l),
(604,484,l),
(681,484,l),
(681,622,l),
(-7,622,l),
(-7,484,l),
(427,484,l),
(427,361,l),
(263,361,l),
(263,363,ls),
(263,402,o),
(241,432,o),
(184,432,cs),
(104,432,o),
(17,348,o),
(17,284,cs),
(17,241,o),
(44,221,o),
(84,221,cs),
(88,221,l),
(88,0,l)
);
}
);
width = 674;
},
{
layerId = "C86CFEE0-D181-456A-AA08-2B118FAF25CE";
shapes = (
{
closed = 1;
nodes = (
(104,0,l),
(104,333,l),
(318,333,l),
(318,0,l),
(344,0,l),
(344,596,l),
(428,596,l),
(428,622,l),
(-7,622,l),
(-7,596,l),
(318,596,l),
(318,359,l),
(106,359,l),
(106,387,ls),
(106,404,o),
(102,413,o),
(91,413,cs),
(70,413,o),
(42,375,o),
(42,351,cs),
(42,335,o),
(55,333,o),
(71,333,cs),
(78,333,l),
(78,0,l)
);
}
);
width = 421;
},
{
layerId = "CBEC276F-1F9B-404D-BC73-2CB92054D876";
shapes = (
{
closed = 1;
nodes = (
(219,0,l),
(219,228,l),
(337,228,l),
(337,0,l),
(487,0,l),
(487,489,l),
(548,489,l),
(548,622,l),
(-7,622,l),
(-7,489,l),
(337,489,l),
(337,361,l),
(217,361,l),
(217,365,ls),
(217,405,o),
(199,426,o),
(155,426,cs),
(88,426,o),
(14,343,o),
(14,278,cs),
(14,243,o),
(35,228,o),
(57,228,cs),
(69,228,l),
(69,0,l)
);
}
);
width = 541;
},
{
layerId = "04B5D069-3E89-43E6-853C-EFCF876AEDC5";
shapes = (
{
closed = 1;
nodes = (
(155,0,l),
(155,293,l),
(319,293,l),
(319,0,l),
(394,0,l),
(394,554,l),
(465,554,l),
(465,622,l),
(-7,622,l),
(-7,554,l),
(319,554,l),
(319,361,l),
(155,361,l),
(155,397,ls),
(155,422,o),
(144,439,o),
(122,439,cs),
(77,439,o),
(28,372,o),
(28,329,cs),
(28,309,o),
(39,292,o),
(75,292,cs),
(80,292,l),
(80,0,l)
);
}
);
width = 458;
}
);
unicode = 2588;
},
{
glyphname = jhaguru;
lastChange = "2020-02-26 16:12:49 +0000";
layers = (
{
anchors = (
{
name = Anchor2;
pos = (508,622);
}
);
layerId = UUID0;
shapes = (
{
closed = 1;
nodes = (
(235,74,o),
(262,75,o),
(288,77,c),
(323,83,l),
(463,100,o),
(540,161,o),
(540,253,cs),
(540,354,o),
(458,411,o),
(276,411,cs),
(220,411,o),
(118,396,o),
(30,368,c),
(55,302,l),
(140,330,o),
(217,341,o),
(283,341,cs),
(402,341,o),
(458,316,o),
(458,253,cs),
(458,198,o),
(410,160,o),
(290,150,c),
(255,166,o),
(217,181,o),
(160,181,cs),
(106,181,o),
(83,162,o),
(83,134,cs),
(83,96,o),
(129,74,o),
(205,74,cs)
);
},
{
closed = 1;
nodes = (
(432,38,l),
(391,74,o),
(349,101,o),
(303,123,c),
(229,94,l),
(279,70,o),
(328,31,o),
(377,-14,c)
);
},
{
closed = 1;
nodes = (
(310,411,l),
(204,411,o),
(167,476,o),
(167,601,c),
(84,605,l),
(84,494,o),
(120,414,o),
(200,375,c)
);
},
{
closed = 1;
nodes = (
(601,551,l),
(601,622,l),
(-7,622,l),
(-7,551,l)
);
},
{
closed = 1;
nodes = (
(480,414,o),
(516,494,o),
(516,605,c),
(434,601,l),
(434,480,o),
(397,411,o),
(290,411,c),
(400,375,l)
);
}
);
width = 594;
},
{
anchors = (
{
name = Anchor2;
pos = (548,622);
}
);
layerId = "397B4BA1-1DC1-423A-91EE-9CBCF179C3D0";
shapes = (
{
closed = 1;
nodes = (
(268,66,o),
(287,67,o),
(305,68,c),
(351,73,l),
(483,93,o),
(567,155,o),
(567,253,cs),
(567,360,o),
(481,420,o),
(289,420,cs),
(221,420,o),
(118,406,o),
(25,377,c),
(63,276,l),
(141,302,o),
(216,314,o),
(293,314,cs),
(380,314,o),
(431,295,o),
(431,250,cs),
(431,212,o),
(396,185,o),
(303,174,c),
(264,195,o),
(215,217,o),
(159,217,cs),
(107,217,o),
(75,190,o),
(75,149,cs),
(75,86,o),
(143,66,o),
(248,66,cs)
);
},
{
closed = 1;
nodes = (
(461,32,l),
(420,68,o),
(374,99,o),
(327,125,c),
(200,94,l),
(273,46,o),
(315,9,o),
(364,-40,c)
);
},
{
closed = 1;
nodes = (
(344,416,l),
(235,416,o),
(200,478,o),
(200,577,c),
(64,582,l),
(64,479,o),
(99,411,o),
(180,376,c)
);
},
{
closed = 1;
nodes = (
(610,512,l),
(610,622,l),
(-7,622,l),
(-7,512,l)
);
},
{
closed = 1;
nodes = (
(514,411,o),
(549,479,o),
(549,582,c),
(413,577,l),
(413,467,o),
(372,417,o),
(270,417,c),
(434,376,l)
);
}
);
width = 603;
},
{
anchors = (
{
name = Anchor2;
pos = (491,622);
}
);
layerId = "AD832606-5186-48BF-AC4A-95D20F9D6762";
shapes = (
{
closed = 1;
nodes = (
(240,91,o),
(261,92,o),
(271,93,c),
(276,93,l),
(392,96,o),
(496,154,o),
(496,258,cs),
(496,346,o),
(416,406,o),
(266,406,cs),
(211,406,o),
(119,396,o),
(38,370,c),
(46,344,l),
(131,370,o),
(185,383,o),
(268,383,cs),
(373,383,o),
(469,349,o),
(469,257,cs),
(469,167,o),
(375,119,o),
(258,117,c),
(218,132,o),
(183,143,o),
(136,143,cs),
(96,143,o),
(84,137,o),
(84,123,cs),
(84,101,o),
(133,91,o),
(211,91,cs)
);
},
{
closed = 1;
nodes = (
(398,9,l),
(359,45,o),
(304,87,o),
(257,111,c),
(227,103,l),
(284,75,o),
(338,29,o),
(379,-10,c)
);
},
{
closed = 1;
nodes = (
(290,407,l),
(184,407,o),
(118,466,o),
(118,601,c),
(92,605,l),
(92,480,o),
(137,410,o),
(245,391,c)
);
},
{
closed = 1;
nodes = (
(567,596,l),
(567,622,l),
(-7,622,l),
(-7,596,l)
);
},
{
closed = 1;
nodes = (
(427,410,o),
(472,480,o),
(472,605,c),
(446,601,l),
(446,466,o),
(380,407,o),
(273,407,c),
(319,391,l)
);
}
);
width = 560;
},
{
anchors = (
{
name = Anchor2;
pos = (575,622);
}
);
layerId = "F506C8C4-888D-41F0-91C9-49F2C7D2D9C4";
shapes = (
{
closed = 1;
nodes = (
(281,54,o),
(304,56,o),
(332,58,c),
(361,63,l),
(508,83,o),
(601,148,o),
(601,254,cs),
(601,373,o),
(494,415,o),
(309,415,cs),
(207,415,o),
(109,404,o),
(17,374,c),
(66,245,l),
(140,272,o),
(232,290,o),
(306,290,cs),
(394,290,o),
(422,273,o),
(422,247,cs),
(422,211,o),
(382,196,o),
(316,187,c),
(271,213,o),
(226,231,o),
(170,231,cs),
(98,231,o),
(68,192,o),
(68,152,cs),
(68,69,o),
(158,54,o),
(263,54,cs)
);
},
{
closed = 1;
nodes = (
(500,44,l),
(461,73,o),
(379,123,o),
(333,145,c),
(195,101,l),
(257,57,o),
(326,0,o),
(375,-46,c)
);
},
{
closed = 1;
nodes = (
(369,411,l),
(268,411,o),
(228,451,o),
(228,572,c),
(48,577,l),
(48,454,o),
(102,393,o),
(175,360,c)
);
},
{
closed = 1;
nodes = (
(637,484,l),
(637,622,l),
(-7,622,l),
(-7,484,l)
);
},
{
closed = 1;
nodes = (
(531,382,o),
(586,462,o),
(586,577,c),
(406,572,l),
(406,456,o),
(363,411,o),
(277,411,c),
(451,357,l)
);
}
);
width = 630;
},
{
anchors = (
{
name = Anchor2;
pos = (335,622);
}
);
layerId = "C86CFEE0-D181-456A-AA08-2B118FAF25CE";
shapes = (
{
closed = 1;
nodes = (
(166,91,o),
(181,91,o),
(190,92,c),
(200,93,l),
(282,108,o),
(353,155,o),
(353,259,cs),
(353,346,o),
(284,405,o),
(187,405,cs),
(133,405,o),
(85,397,o),
(31,375,c),
(40,350,l),
(91,372,o),
(128,382,o),
(187,382,cs),
(263,382,o),
(326,339,o),
(326,259,cs),
(326,171,o),
(264,125,o),
(191,116,c),
(158,133,o),
(129,140,o),
(98,140,cs),
(76,140,o),
(64,135,o),
(64,123,cs),
(64,102,o),
(110,91,o),
(145,91,cs)
);
},
{
closed = 1;
nodes = (
(306,7,l),
(278,40,o),
(227,86,o),
(192,110,c),
(160,104,l),
(201,77,o),
(247,34,o),
(286,-10,c)
);
},
{
closed = 1;
nodes = (
(220,403,l),
(125,410,o),
(91,469,o),
(91,597,c),
(65,601,l),
(65,480,o),
(86,418,o),
(178,389,c)
);
},
{
closed = 1;
nodes = (
(398,596,l),
(398,622,l),
(-7,622,l),
(-7,596,l)
);
},
{
closed = 1;
nodes = (
(316,416,o),
(338,480,o),
(338,601,c),
(312,597,l),
(312,469,o),
(278,410,o),
(183,403,c),
(224,387,l)
);
}
);
width = 391;
},
{
anchors = (
{
name = Anchor2;
pos = (452,622);
}
);
layerId = "CBEC276F-1F9B-404D-BC73-2CB92054D876";
shapes = (
{
closed = 1;
nodes = (
(226,55,o),
(242,56,o),
(256,57,c),
(276,62,l),
(400,85,o),
(469,146,o),
(469,247,cs),
(469,348,o),
(384,416,o),
(231,416,cs),
(160,416,o),
(91,405,o),
(14,379,c),
(61,259,l),
(126,282,o),
(173,293,o),
(234,293,cs),
(291,293,o),
(318,277,o),
(318,245,cs),
(318,214,o),
(298,193,o),
(253,183,c),
(217,208,o),
(183,222,o),
(140,222,cs),
(89,222,o),
(48,198,o),
(48,145,cs),
(48,72,o),
(129,55,o),
(212,55,cs)
);
},
{
closed = 1;
nodes = (
(402,48,l),
(364,82,o),
(328,106,o),
(285,125,c),
(149,100,l),
(216,56,o),
(250,23,o),
(306,-37,c)
);
},
{
closed = 1;
nodes = (
(291,406,l),
(211,414,o),
(201,463,o),
(201,552,c),
(48,563,l),
(48,450,o),
(84,379,o),
(151,349,c)
);
},
{
closed = 1;
nodes = (
(504,489,l),
(504,622,l),
(-7,622,l),
(-7,489,l)
);
},
{
closed = 1;
nodes = (
(417,369,o),
(456,450,o),
(456,563,c),
(303,552,l),
(303,463,o),
(293,414,o),
(213,406,c),
(354,344,l)
);
}
);
width = 497;
},
{
anchors = (
{
name = Anchor2;
pos = (380,622);
}
);
layerId = "04B5D069-3E89-43E6-853C-EFCF876AEDC5";
shapes = (
{
closed = 1;
nodes = (
(182,76,o),
(199,77,o),
(215,79,c),
(244,85,l),
(333,107,o),
(398,158,o),
(398,253,cs),
(398,353,o),
(328,410,o),
(203,410,cs),
(153,410,o),
(88,400,o),
(23,376,c),
(47,313,l),
(107,336,o),
(155,345,o),
(210,345,cs),
(278,345,o),
(322,318,o),
(322,253,cs),
(322,195,o),
(281,161,o),
(215,145,c),
(184,163,o),
(158,177,o),
(118,177,cs),
(80,177,o),
(59,159,o),
(59,132,cs),
(59,94,o),
(105,76,o),
(164,76,cs)
);
},
{
closed = 1;
nodes = (
(338,38,l),
(303,73,o),
(257,104,o),
(224,123,c),
(157,98,l),
(205,68,o),
(248,28,o),
(285,-12,c)
);
},
{
closed = 1;
nodes = (
(241,405,l),
(150,411,o),
(134,475,o),
(134,601,c),
(58,605,l),
(58,480,o),
(88,415,o),
(145,378,c)
);
},
{
closed = 1;
nodes = (
(442,554,l),
(442,622,l),
(-7,622,l),
(-7,554,l)
);
},
{
closed = 1;
nodes = (
(354,412,o),
(383,475,o),
(383,605,c),
(307,601,l),
(307,480,o),
(291,413,o),
(200,405,c),
(299,375,l)
);
}
);
width = 435;
}
);
unicode = 2589;
},
{
glyphname = nyaguru;
lastChange = "2020-02-26 16:12:49 +0000";
layers = (
{
anchors = (
{
name = Anchor2;
pos = (478,622);
},
{
name = Anchor4;
pos = (292,0);
}
);
layerId = UUID0;
shapes = (
{
closed = 1;
nodes = (
(238,425,l),
(217,477,o),
(184,533,o),
(143,589,c),
(65,563,l),
(105,512,o),
(142,450,o),
(171,389,c)
);
},
{
ref = vaguru;
}
);
width = 567;
},
{
anchors = (
{
name = Anchor2;
pos = (517,622);
},
{
name = Anchor4;
pos = (324,0);
}
);
layerId = "397B4BA1-1DC1-423A-91EE-9CBCF179C3D0";
shapes = (
{
closed = 1;
nodes = (
(272,416,l),
(251,467,o),
(218,533,o),
(177,589,c),
(50,563,l),
(91,512,o),
(127,440,o),
(156,379,c)
);
},
{
ref = vaguru;
}
);
width = 602;
},
{
anchors = (
{
name = Anchor2;
pos = (458,622);
},
{
name = Anchor4;
pos = (288,0);
}
);
layerId = "AD832606-5186-48BF-AC4A-95D20F9D6762";
shapes = (
{
closed = 1;
nodes = (
(197,436,l),
(175,489,o),
(134,562,o),
(96,613,c),
(70,603,l),
(110,553,o),
(149,483,o),
(175,427,c)
);
},
{
ref = vaguru;
}
);
width = 530;
},
{
anchors = (
{
name = Anchor2;
pos = (548,622);
},
{
name = Anchor4;
pos = (326,0);
}
);
layerId = "F506C8C4-888D-41F0-91C9-49F2C7D2D9C4";
shapes = (
{
closed = 1;
nodes = (
(301,416,l),
(280,467,o),
(241,535,o),
(199,589,c),
(44,553,l),
(85,502,o),
(126,430,o),
(155,369,c)
);
},
{
ref = vaguru;
}
);
width = 618;
},
{
anchors = (
{
name = Anchor2;
pos = (321,622);
},
{
name = Anchor4;
pos = (209,0);
}
);
layerId = "C86CFEE0-D181-456A-AA08-2B118FAF25CE";
shapes = (
{
closed = 1;
nodes = (
(141,437,l),
(125,489,o),
(93,558,o),
(62,613,c),
(40,599,l),
(70,549,o),
(96,493,o),
(117,432,c)
);
},
{
ref = vaguru;
}
);
width = 398;
},
{
anchors = (
{
name = Anchor2;
pos = (436,622);
},
{
name = Anchor4;
pos = (258,0);
}
);
layerId = "CBEC276F-1F9B-404D-BC73-2CB92054D876";
shapes = (
{
closed = 1;
nodes = (
(240,402,l),
(223,453,o),
(191,535,o),
(156,582,c),
(24,556,l),
(59,505,o),
(96,425,o),
(117,358,c)
);
},
{
ref = vaguru;
}
);
width = 490;
},
{
anchors = (
{
name = Anchor2;
pos = (360,622);
},
{
name = Anchor4;
pos = (218,0);
}
);
layerId = "04B5D069-3E89-43E6-853C-EFCF876AEDC5";
shapes = (
{
closed = 1;
nodes = (
(183,427,l),
(168,479,o),
(145,535,o),
(115,591,c),
(45,566,l),
(75,515,o),
(100,453,o),
(121,392,c)
);
},
{
ref = vaguru;
}
);
width = 424;
}
);
unicode = 2590;
},
{
glyphname = ttaguru;
lastChange = "2020-02-26 16:12:49 +0000";
layers = (
{
anchors = (
{
name = Anchor4;
pos = (292,0);
}
);
layerId = UUID0;
shapes = (
{
closed = 1;
nodes = (
(402,0,o),
(466,16,o),
(538,51,c),
(510,122,l),
(435,86,o),
(395,73,o),
(322,73,cs),
(218,73,o),
(165,147,o),
(114,253,c),
(107,204,l),
(148,256,o),
(178,289,o),
(221,315,cs),
(269,345,o),
(302,349,o),
(419,349,cs),
(456,349,l),
(485,378,l),
(485,551,l),
(583,551,l),
(583,622,l),
(-7,622,l),
(-7,551,l),
(405,551,l),
(405,420,l),
(370,420,ls),
(259,420,o),
(210,401,o),
(155,361,cs),
(113,330,o),
(76,289,o),
(34,234,c),
(95,98,o),
(171,0,o),
(322,0,cs)
);
}
);
width = 575;
},
{
anchors = (
{
name = Anchor4;
pos = (334,0);
}
);
layerId = "397B4BA1-1DC1-423A-91EE-9CBCF179C3D0";
shapes = (
{
closed = 1;
nodes = (
(436,0,o),
(523,15,o),
(589,44,c),
(545,152,l),
(470,121,o),
(429,112,o),
(371,112,cs),
(281,112,o),
(220,153,o),
(152,272,c),
(144,178,l),
(197,246,o),
(232,275,o),
(275,292,cs),
(305,305,o),
(343,310,o),
(432,310,cs),
(500,310,l),
(536,346,l),
(536,512,l),
(624,512,l),
(624,622,l),
(-7,622,l),
(-7,512,l),
(402,512,l),
(402,420,l),
(364,420,ls),
(286,420,o),
(233,407,o),
(186,383,cs),
(126,352,o),
(80,302,o),
(26,234,c),
(92,115,o),
(165,0,o),
(363,0,cs)
);
}
);
width = 616;
},
{
anchors = (
{
name = Anchor4;
pos = (292,0);
}
);
guides = (
{
pos = (155,226);
},
{
pos = (198,233);
}
);
layerId = "AD832606-5186-48BF-AC4A-95D20F9D6762";
shapes = (
{
closed = 1;
nodes = (
(381,0,o),
(437,13,o),
(497,44,c),
(487,67,l),
(427,39,o),
(382,26,o),
(314,26,cs),
(199,26,o),
(125,92,o),
(65,249,c),
(60,208,l),
(96,265,o),
(136,311,o),
(187,346,cs),
(235,379,o),
(282,392,o),
(385,392,cs),
(418,392,l),
(435,407,l),
(435,596,l),
(542,596,l),
(542,622,l),
(-7,622,l),
(-7,596,l),
(409,596,l),
(409,418,l),
(382,418,ls),
(275,418,o),
(222,403,o),
(168,365,cs),
(121,332,o),
(79,286,o),
(42,230,c),
(108,76,o),
(182,0,o),
(314,0,cs)
);
}
);
width = 535;
},
{
anchors = (
{
name = Anchor4;
pos = (332,0);
}
);
layerId = "F506C8C4-888D-41F0-91C9-49F2C7D2D9C4";
shapes = (
{
closed = 1;
nodes = (
(446,0,o),
(540,17,o),
(608,51,c),
(552,184,l),
(480,150,o),
(428,139,o),
(365,139,cs),
(284,139,o),
(236,163,o),
(171,277,c),
(180,167,l),
(221,218,o),
(256,246,o),
(292,261,cs),
(318,272,o),
(344,277,o),
(409,277,cs),
(510,277,l),
(556,323,l),
(556,484,l),
(633,484,l),
(633,622,l),
(-7,622,l),
(-7,484,l),
(379,484,l),
(379,415,l),
(373,415,ls),
(280,415,o),
(237,403,o),
(193,383,cs),
(127,353,o),
(75,303,o),
(16,231,c),
(82,65,o),
(201,0,o),
(360,0,cs)
);
}
);
width = 626;
},
{
anchors = (
{
name = Anchor4;
pos = (232,0);
}
);
layerId = "C86CFEE0-D181-456A-AA08-2B118FAF25CE";
shapes = (
{
closed = 1;
nodes = (
(314,0,o),
(353,14,o),
(389,30,c),
(379,55,l),
(343,38,o),
(314,26,o),
(259,26,cs),
(155,26,o),
(109,86,o),
(57,248,c),
(56,209,l),
(77,258,o),
(117,315,o),
(160,349,cs),
(196,378,o),
(241,392,o),
(317,392,cs),
(320,392,l),
(336,408,l),
(336,596,l),
(420,596,l),
(420,622,l),
(-7,622,l),
(-7,596,l),
(310,596,l),
(310,418,l),
(309,418,l),
(242,417,o),
(187,405,o),
(141,368,cs),
(94,330,o),
(59,276,o),
(35,229,c),
(86,75,o),
(138,0,o),
(259,0,cs)
);
}
);
width = 413;
},
{
anchors = (
{
name = Anchor4;
pos = (270,0);
}
);
layerId = "CBEC276F-1F9B-404D-BC73-2CB92054D876";
shapes = (
{
closed = 1;
nodes = (
(374,0,o),
(420,16,o),
(480,46,c),
(433,168,l),
(382,142,o),
(342,134,o),
(302,134,cs),
(238,134,o),
(195,170,o),
(176,229,c),
(164,188,l),
(185,221,o),
(202,244,o),
(229,259,cs),
(254,273,o),
(279,280,o),
(334,280,cs),
(401,280,l),
(434,316,l),
(434,489,l),
(495,489,l),
(495,622,l),
(-7,622,l),
(-7,489,l),
(284,489,l),
(284,413,l),
(281,413,l),
(231,413,o),
(191,405,o),
(155,386,cs),
(98,356,o),
(49,300,o),
(13,232,c),
(62,81,o),
(146,0,o),
(294,0,cs)
);
}
);
width = 488;
},
{
anchors = (
{
name = Anchor4;
pos = (246,0);
}
);
layerId = "04B5D069-3E89-43E6-853C-EFCF876AEDC5";
shapes = (
{
closed = 1;
nodes = (
(315,0,o),
(367,12,o),
(416,36,c),
(390,103,l),
(348,82,o),
(315,70,o),
(266,70,cs),
(171,70,o),
(138,142,o),
(97,253,c),
(93,199,l),
(127,253,o),
(155,292,o),
(184,313,cs),
(219,339,o),
(249,350,o),
(336,350,cs),
(344,350,l),
(367,378,l),
(367,554,l),
(438,554,l),
(438,622,l),
(-7,622,l),
(-7,554,l),
(292,554,l),
(292,418,l),
(291,418,l),
(230,416,o),
(186,404,o),
(145,375,cs),
(102,345,o),
(60,292,o),
(25,233,c),
(68,100,o),
(125,0,o),
(261,0,cs)
);
}
);
width = 431;
}
);
unicode = 2591;
},
{
glyphname = tthaguru;
lastChange = "2020-02-26 16:12:49 +0000";
layers = (
{
anchors = (
{
name = Anchor2;
pos = (370,622);
},
{
name = Anchor4;
pos = (330,0);
},
{
name = Anchor6;
pos = (446,0);
}
);
layerId = UUID0;
shapes = (
{
closed = 1;
nodes = (
(506,0,o),
(621,58,o),
(621,202,cs),
(621,296,o),
(545,398,o),
(370,438,c),
(370,551,l),
(667,551,l),
(667,622,l),
(-7,622,l),
(-7,551,l),
(290,551,l),
(290,438,l),
(115,397,o),
(39,296,o),
(39,202,cs),
(39,48,o),
(171,0,o),
(330,0,cs)
);
},
{
closed = 1;
nodes = (
(238,73,o),
(119,88,o),
(119,199,cs),
(119,277,o),
(188,346,o),
(330,378,c),
(469,347,o),
(541,277,o),
(541,200,cs),
(541,89,o),
(424,73,o),
(330,73,cs)
);
}
);
width = 660;
},
{
anchors = (
{
name = Anchor2;
pos = (417,622);
},
{
name = Anchor4;
pos = (350,0);
},
{
name = Anchor6;
pos = (427,0);
}
);
layerId = "397B4BA1-1DC1-423A-91EE-9CBCF179C3D0";
shapes = (
{
closed = 1;
nodes = (
(545,0,o),
(668,56,o),
(668,198,cs),
(668,290,o),
(597,384,o),
(417,429,c),
(417,512,l),
(707,512,l),
(707,622,l),
(-7,622,l),
(-7,512,l),
(283,512,l),
(283,429,l),
(103,383,o),
(32,290,o),
(32,197,cs),
(32,47,o),
(172,0,o),
(348,0,cs)
);
},
{
closed = 1;
nodes = (
(262,112,o),
(166,123,o),
(166,198,cs),
(166,258,o),
(234,307,o),
(350,331,c),
(470,305,o),
(534,258,o),
(534,197,cs),
(534,124,o),
(437,112,o),
(350,112,cs)
);
}
);
width = 700;
},
{
anchors = (
{
name = Anchor2;
pos = (345,622);
},
{
name = Anchor4;
pos = (319,0);
},
{
name = Anchor6;
pos = (432,0);
}
);
layerId = "AD832606-5186-48BF-AC4A-95D20F9D6762";
shapes = (
{
closed = 1;
nodes = (
(487,0,o),
(566,72,o),
(566,195,cs),
(566,288,o),
(504,385,o),
(320,434,c),
(320,596,l),
(621,596,l),
(621,622,l),
(-7,622,l),
(-7,596,l),
(294,596,l),
(294,434,l),
(110,385,o),
(48,288,o),
(48,195,cs),
(48,72,o),
(127,0,o),
(307,0,cs)
);
},
{
closed = 1;
nodes = (
(147,26,o),
(75,81,o),
(75,195,cs),
(75,296,o),
(155,373,o),
(307,412,c),
(459,373,o),
(539,296,o),
(539,195,cs),
(539,81,o),
(467,26,o),
(307,26,cs)
);
}
);
width = 614;
},
{
anchors = (
{
name = Anchor2;
pos = (456,622);
},
{
name = Anchor4;
pos = (368,0);
},
{
name = Anchor6;
pos = (427,0);
}
);
layerId = "F506C8C4-888D-41F0-91C9-49F2C7D2D9C4";
shapes = (
{
closed = 1;
nodes = (
(563,0,o),
(710,47,o),
(710,201,cs),
(710,299,o),
(638,386,o),
(456,427,c),
(456,484,l),
(742,484,l),
(742,622,l),
(-7,622,l),
(-7,484,l),
(279,484,l),
(279,427,l),
(98,387,o),
(25,299,o),
(25,201,cs),
(25,47,o),
(171,0,o),
(368,0,cs)
);
},
{
closed = 1;
nodes = (
(257,140,o),
(202,157,o),
(202,205,cs),
(202,246,o),
(248,283,o),
(368,305,c),
(486,283,o),
(533,246,o),
(533,209,cs),
(533,157,o),
(478,140,o),
(368,140,cs)
);
}
);
width = 735;
},
{
anchors = (
{
name = Anchor2;
pos = (247,622);
},
{
name = Anchor4;
pos = (233,0);
},
{
name = Anchor6;
pos = (305,0);
}
);
layerId = "C86CFEE0-D181-456A-AA08-2B118FAF25CE";
shapes = (
{
closed = 1;
nodes = (
(358,0,o),
(426,70,o),
(426,193,cs),
(426,287,o),
(375,371,o),
(247,434,c),
(247,596,l),
(475,596,l),
(475,622,l),
(-7,622,l),
(-7,596,l),
(221,596,l),
(221,435,l),
(93,371,o),
(42,287,o),
(42,193,cs),
(42,70,o),
(110,0,o),
(234,0,cs)
);
},
{
closed = 1;
nodes = (
(130,26,o),
(69,79,o),
(69,193,cs),
(69,279,o),
(113,352,o),
(234,415,c),
(355,352,o),
(399,278,o),
(399,193,cs),
(399,79,o),
(338,26,o),
(234,26,cs)
);
}
);
width = 468;
},
{
anchors = (
{
name = Anchor2;
pos = (352,622);
},
{
name = Anchor4;
pos = (275,0);
},
{
name = Anchor6;
pos = (323,0);
}
);
layerId = "CBEC276F-1F9B-404D-BC73-2CB92054D876";
shapes = (
{
closed = 1;
nodes = (
(424,0,o),
(532,63,o),
(532,208,cs),
(532,307,o),
(468,380,o),
(352,428,c),
(352,489,l),
(563,489,l),
(563,622,l),
(-7,622,l),
(-7,489,l),
(204,489,l),
(204,428,l),
(88,380,o),
(24,307,o),
(24,208,cs),
(24,65,o),
(132,0,o),
(278,0,cs)
);
},
{
closed = 1;
nodes = (
(217,134,o),
(174,157,o),
(174,212,cs),
(174,262,o),
(218,298,o),
(278,315,c),
(338,298,o),
(382,262,o),
(382,212,cs),
(382,158,o),
(339,134,o),
(278,134,cs)
);
}
);
width = 556;
},
{
anchors = (
{
name = Anchor2;
pos = (284,622);
},
{
name = Anchor4;
pos = (247,0);
},
{
name = Anchor6;
pos = (309,0);
}
);
layerId = "04B5D069-3E89-43E6-853C-EFCF876AEDC5";
shapes = (
{
closed = 1;
nodes = (
(363,0,o),
(463,52,o),
(463,199,cs),
(463,293,o),
(404,382,o),
(284,437,c),
(284,554,l),
(501,554,l),
(501,622,l),
(-7,622,l),
(-7,554,l),
(210,554,l),
(210,437,l),
(90,381,o),
(31,293,o),
(31,199,cs),
(31,52,o),
(131,0,o),
(247,0,cs)
);
},
{
closed = 1;
nodes = (
(165,69,o),
(107,105,o),
(107,198,cs),
(107,282,o),
(163,341,o),
(247,380,c),
(333,341,o),
(387,277,o),
(387,198,cs),
(387,105,o),
(329,69,o),
(247,69,cs)
);
}
);
width = 494;
}
);
unicode = 2592;
},
{
glyphname = ddaguru;
lastChange = "2020-02-26 16:12:49 +0000";
layers = (
{
anchors = (
{
name = Anchor2;
pos = (502,622);
},
{
name = Anchor4;
pos = (281,0);
},
{
name = Anchor6;
pos = (366,0);
}
);
layerId = UUID0;
shapes = (
{
closed = 1;
nodes = (
(423,0,o),
(543,66,o),
(543,199,cs),
(543,271,o),
(506,323,o),
(432,362,c),
(481,391,o),
(518,428,o),
(518,511,cs),
(518,531,o),
(515,555,o),
(510,576,c),
(487,551,l),
(604,551,l),
(604,622,l),
(-7,622,l),
(-7,551,l),
(458,551,l),
(425,578,l),
(434,553,o),
(437,531,o),
(437,512,cs),
(437,449,o),
(404,412,o),
(357,393,c),
(311,410,o),
(265,419,o),
(212,419,cs),
(164,419,o),
(125,407,o),
(125,369,cs),
(125,341,o),
(145,312,o),
(236,312,cs),
(277,312,o),
(318,318,o),
(349,324,c),
(416,304,o),
(461,256,o),
(461,202,cs),
(461,88,o),
(344,69,o),
(248,69,cs),
(161,69,o),
(116,88,o),
(116,125,cs),
(116,150,o),
(138,166,o),
(182,166,cs),
(257,166,o),
(319,116,o),
(362,67,c),
(424,101,l),
(377,167,o),
(293,237,o),
(178,237,cs),
(82,237,o),
(35,186,o),
(35,127,cs),
(35,49,o),
(101,0,o),
(249,0,cs)
);
}
);
width = 597;
},
{
anchors = (
{
name = Anchor2;
pos = (569,622);
},
{
name = Anchor4;
pos = (319,0);
},
{
name = Anchor6;
pos = (375,0);
}
);
layerId = "397B4BA1-1DC1-423A-91EE-9CBCF179C3D0";
shapes = (
{
closed = 1;
nodes = (
(467,0,o),
(603,75,o),
(603,214,cs),
(603,290,o),
(567,337,o),
(503,371,c),
(549,396,o),
(583,433,o),
(583,493,cs),
(583,505,o),
(580,521,o),
(577,532,c),
(543,512,l),
(650,512,l),
(650,622,l),
(-7,622,l),
(-7,512,l),
(485,512,l),
(442,532,l),
(446,522,o),
(448,511,o),
(448,500,cs),
(448,461,o),
(414,433,o),
(377,424,c),
(329,440,o),
(283,447,o),
(248,447,cs),
(170,447,o),
(132,419,o),
(132,375,cs),
(132,336,o),
(160,298,o),
(256,298,cs),
(295,298,o),
(349,306,o),
(383,316,c),
(437,300,o),
(467,267,o),
(467,221,cs),
(467,151,o),
(393,107,o),
(274,107,cs),
(189,107,o),
(158,120,o),
(158,144,cs),
(158,166,o),
(176,173,o),
(208,173,cs),
(280,173,o),
(344,129,o),
(396,71,c),
(486,125,l),
(408,207,o),
(323,274,o),
(192,274,cs),
(86,274,o),
(28,220,o),
(28,148,cs),
(28,57,o),
(106,0,o),
(281,0,cs)
);
}
);
width = 643;
},
{
anchors = (
{
name = Anchor2;
pos = (481,622);
},
{
name = Anchor4;
pos = (269,0);
},
{
name = Anchor6;
pos = (357,0);
}
);
layerId = "AD832606-5186-48BF-AC4A-95D20F9D6762";
shapes = (
{
closed = 1;
nodes = (
(404,0,o),
(493,83,o),
(493,200,cs),
(493,285,o),
(448,340,o),
(364,377,c),
(443,411,o),
(468,465,o),
(468,541,cs),
(468,566,o),
(465,588,o),
(458,613,c),
(453,596,l),
(565,596,l),
(565,622,l),
(-7,622,l),
(-7,596,l),
(444,596,l),
(430,613,l),
(438,590,o),
(442,569,o),
(442,541,cs),
(442,462,o),
(410,418,o),
(334,389,c),
(306,397,o),
(246,405,o),
(195,405,cs),
(151,405,o),
(123,399,o),
(123,382,cs),
(123,363,o),
(157,356,o),
(216,356,cs),
(247,356,o),
(283,358,o),
(329,364,c),
(408,339,o),
(466,289,o),
(466,200,cs),
(466,101,o),
(399,26,o),
(227,26,cs),
(129,26,o),
(71,62,o),
(71,117,cs),
(71,170,o),
(112,198,o),
(165,198,cs),
(253,198,o),
(321,137,o),
(384,55,c),
(407,66,l),
(348,147,o),
(268,224,o),
(166,224,cs),
(92,224,o),
(44,182,o),
(44,117,cs),
(44,49,o),
(109,0,o),
(227,0,cs)
);
}
);
width = 558;
},
{
anchors = (
{
name = Anchor2;
pos = (612,622);
},
{
name = Anchor4;
pos = (337,0);
},
{
name = Anchor6;
pos = (378,0);
}
);
layerId = "F506C8C4-888D-41F0-91C9-49F2C7D2D9C4";
shapes = (
{
closed = 1;
nodes = (
(526,0,o),
(640,91,o),
(640,221,cs),
(640,291,o),
(609,337,o),
(547,373,c),
(589,399,o),
(615,434,o),
(615,500,cs),
(615,517,o),
(612,542,o),
(609,553,c),
(547,484,l),
(676,484,l),
(676,622,l),
(-7,622,l),
(-7,484,l),
(489,484,l),
(439,550,l),
(443,540,o),
(445,520,o),
(445,500,cs),
(445,475,o),
(424,445,o),
(392,436,c),
(344,453,o),
(307,459,o),
(261,459,cs),
(177,459,o),
(135,424,o),
(135,372,cs),
(135,322,o),
(172,281,o),
(275,281,cs),
(323,281,o),
(374,288,o),
(411,303,c),
(441,288,o),
(461,268,o),
(461,227,cs),
(461,159,o),
(378,119,o),
(290,119,cs),
(217,119,o),
(196,127,o),
(196,141,cs),
(196,155,o),
(209,160,o),
(231,160,cs),
(286,160,o),
(342,128,o),
(398,70,c),
(508,118,l),
(429,209,o),
(338,271,o),
(199,271,cs),
(71,271,o),
(21,213,o),
(21,142,cs),
(21,36,o),
(137,0,o),
(298,0,cs)
);
}
);
width = 669;
},
{
anchors = (
{
name = Anchor2;
pos = (350,622);
},
{
name = Anchor4;
pos = (192,0);
},
{
name = Anchor6;
pos = (261,0);
}
);
layerId = "C86CFEE0-D181-456A-AA08-2B118FAF25CE";
shapes = (
{
closed = 1;
nodes = (
(283,0,o),
(376,57,o),
(376,198,cs),
(376,284,o),
(337,343,o),
(268,376,c),
(329,412,o),
(358,463,o),
(358,545,cs),
(358,566,o),
(355,589,o),
(350,612,c),
(339,596,l),
(429,596,l),
(429,622,l),
(-7,622,l),
(-7,596,l),
(333,596,l),
(324,612,l),
(330,587,o),
(332,566,o),
(332,545,cs),
(332,461,o),
(294,417,o),
(242,389,c),
(221,397,o),
(191,403,o),
(155,403,cs),
(104,403,o),
(83,397,o),
(83,382,cs),
(83,366,o),
(107,357,o),
(162,357,cs),
(198,357,o),
(212,359,o),
(239,364,c),
(310,336,o),
(350,279,o),
(350,198,cs),
(350,84,o),
(279,26,o),
(181,26,cs),
(112,26,o),
(64,55,o),
(64,114,cs),
(64,152,o),
(89,190,o),
(149,190,cs),
(214,190,o),
(262,149,o),
(326,67,c),
(342,85,l),
(279,167,o),
(224,216,o),
(149,216,cs),
(72,216,o),
(37,166,o),
(37,114,cs),
(37,38,o),
(98,0,o),
(181,0,cs)
);
}
);
width = 422;
},
{
anchors = (
{
name = Anchor2;
pos = (481,622);
},
{
name = Anchor4;
pos = (247,0);
},
{
name = Anchor6;
pos = (290,0);
}
);
layerId = "CBEC276F-1F9B-404D-BC73-2CB92054D876";
shapes = (
{
closed = 1;
nodes = (
(428,0,o),
(494,108,o),
(494,210,cs),
(494,293,o),
(464,342,o),
(414,381,c),
(449,409,o),
(474,451,o),
(474,496,cs),
(474,514,o),
(472,528,o),
(469,540,c),
(436,489,l),
(531,489,l),
(531,622,l),
(-7,622,l),
(-7,489,l),
(391,489,l),
(324,539,l),
(327,528,o),
(329,516,o),
(329,504,cs),
(329,469,o),
(316,451,o),
(293,433,c),
(256,448,o),
(240,450,o),
(209,450,cs),
(151,450,o),
(104,419,o),
(104,369,cs),
(104,314,o),
(148,282,o),
(209,282,cs),
(240,282,o),
(276,288,o),
(308,303,c),
(333,282,o),
(344,251,o),
(344,221,cs),
(344,165,o),
(301,119,o),
(212,119,cs),
(190,119,o),
(166,124,o),
(166,141,cs),
(166,154,o),
(176,162,o),
(199,162,cs),
(245,162,o),
(280,131,o),
(340,70,c),
(404,146,l),
(334,224,o),
(271,272,o),
(170,272,cs),
(65,272,o),
(18,217,o),
(18,146,cs),
(18,52,o),
(97,0,o),
(224,0,cs)
);
}
);
width = 524;
},
{
anchors = (
{
name = Anchor2;
pos = (389,622);
},
{
name = Anchor4;
pos = (216,0);
},
{
name = Anchor6;
pos = (286,0);
}
);
layerId = "04B5D069-3E89-43E6-853C-EFCF876AEDC5";
shapes = (
{
closed = 1;
nodes = (
(325,0,o),
(419,74,o),
(419,191,cs),
(419,284,o),
(375,333,o),
(324,365,c),
(377,400,o),
(402,452,o),
(402,514,cs),
(402,532,o),
(399,557,o),
(395,578,c),
(374,554,l),
(462,554,l),
(462,622,l),
(-7,622,l),
(-7,554,l),
(344,554,l),
(313,580,l),
(322,555,o),
(327,533,o),
(327,514,cs),
(327,452,o),
(299,419,o),
(261,397,c),
(227,411,o),
(198,415,o),
(167,415,cs),
(120,415,o),
(86,403,o),
(86,366,cs),
(86,339,o),
(105,314,o),
(171,314,cs),
(214,314,o),
(240,321,o),
(256,328,c),
(306,306,o),
(343,265,o),
(343,202,cs),
(343,113,o),
(290,67,o),
(196,67,cs),
(141,67,o),
(102,82,o),
(102,119,cs),
(102,148,o),
(123,165,o),
(158,165,cs),
(214,165,o),
(258,128,o),
(303,76,c),
(352,116,l),
(291,191,o),
(229,232,o),
(155,232,cs),
(67,232,o),
(28,177,o),
(28,122,cs),
(28,46,o),
(88,0,o),
(196,0,cs)
);
}
);
width = 455;
}
);
unicode = 2593;
},
{
glyphname = ddhaguru;
lastChange = "2020-02-26 16:12:49 +0000";
layers = (
{
anchors = (
{
name = Anchor2;
pos = (557,622);
},
{
name = Anchor6;
pos = (474,0);
}
);
layerId = UUID0;
shapes = (
{
closed = 1;
nodes = (
(542,0,o),
(604,49,o),
(604,127,cs),
(604,186,o),
(560,237,o),
(463,237,cs),
(341,237,o),
(261,165,o),
(211,100,c),
(271,67,l),
(314,116,o),
(378,166,o),
(456,166,cs),
(501,166,o),
(524,149,o),
(524,124,cs),
(524,86,o),
(486,69,o),
(408,69,cs),
(266,69,o),
(182,154,o),
(182,320,c),
(527,320,l),
(557,350,l),
(557,551,l),
(653,551,l),
(653,622,l),
(-7,622,l),
(-7,551,l),
(476,551,l),
(476,391,l),
(182,391,l),
(182,416,ls),
(182,445,o),
(171,472,o),
(139,472,cs),
(96,472,o),
(32,407,o),
(32,358,cs),
(32,337,o),
(46,320,o),
(83,320,cs),
(101,320,l),
(101,312,ls),
(101,138,o),
(203,0,o),
(403,0,cs)
);
}
);
width = 646;
},
{
anchors = (
{
name = Anchor2;
pos = (620,622);
},
{
name = Anchor6;
pos = (464,0);
}
);
layerId = "397B4BA1-1DC1-423A-91EE-9CBCF179C3D0";
shapes = (
{
closed = 1;
nodes = (
(588,0,o),
(664,57,o),
(664,145,cs),
(664,220,o),
(605,274,o),
(494,274,cs),
(367,274,o),
(283,205,o),
(206,120,c),
(296,71,l),
(352,132,o),
(412,173,o),
(480,173,cs),
(516,173,o),
(534,166,o),
(534,144,cs),
(534,120,o),
(505,107,o),
(443,107,cs),
(306,107,o),
(236,184,o),
(235,300,c),
(584,300,l),
(620,336,l),
(620,512,l),
(710,512,l),
(710,622,l),
(-7,622,l),
(-7,512,l),
(486,512,l),
(486,410,l),
(235,410,l),
(235,417,ls),
(235,459,o),
(213,486,o),
(170,486,cs),
(96,486,o),
(24,407,o),
(24,352,cs),
(24,321,o),
(42,300,o),
(87,300,cs),
(101,300,l),
(101,294,ls),
(101,122,o),
(232,0,o),
(438,0,cs)
);
}
);
width = 703;
},
{
anchors = (
{
name = Anchor2;
pos = (522,622);
},
{
name = Anchor6;
pos = (458,0);
}
);
layerId = "AD832606-5186-48BF-AC4A-95D20F9D6762";
shapes = (
{
closed = 1;
nodes = (
(479,0,o),
(537,49,o),
(537,117,cs),
(537,182,o),
(489,224,o),
(415,224,cs),
(313,224,o),
(229,147,o),
(185,88,c),
(205,73,l),
(256,137,o),
(328,198,o),
(416,198,cs),
(469,198,o),
(510,170,o),
(510,117,cs),
(510,62,o),
(460,26,o),
(367,26,cs),
(231,26,o),
(117,131,o),
(117,360,c),
(472,360,l),
(487,374,l),
(487,596,l),
(594,596,l),
(594,622,l),
(-7,622,l),
(-7,596,l),
(461,596,l),
(461,386,l),
(119,386,l),
(119,413,ls),
(119,430,o),
(116,446,o),
(101,446,cs),
(76,446,o),
(40,405,o),
(40,381,cs),
(40,364,o),
(57,360,o),
(80,360,cs),
(91,360,l),
(91,352,ls),
(91,124,o),
(213,0,o),
(368,0,cs)
);
}
);
width = 587;
},
{
anchors = (
{
name = Anchor2;
pos = (643,622);
},
{
name = Anchor6;
pos = (442,0);
}
);
layerId = "F506C8C4-888D-41F0-91C9-49F2C7D2D9C4";
shapes = (
{
closed = 1;
nodes = (
(562,0,o),
(690,28,o),
(690,140,cs),
(690,209,o),
(640,266,o),
(511,266,cs),
(373,266,o),
(282,205,o),
(203,114,c),
(313,70,l),
(369,128,o),
(427,160,o),
(478,160,cs),
(502,160,o),
(515,155,o),
(515,141,cs),
(515,127,o),
(496,119,o),
(450,119,cs),
(321,119,o),
(262,202,o),
(257,277,c),
(591,277,l),
(643,327,l),
(643,484,l),
(724,484,l),
(724,622,l),
(-7,622,l),
(-7,484,l),
(466,484,l),
(466,405,l),
(263,405,l),
(263,407,ls),
(263,446,o),
(227,471,o),
(184,471,cs),
(99,471,o),
(17,397,o),
(17,333,cs),
(17,290,o),
(44,270,o),
(84,270,cs),
(88,270,l),
(88,269,l),
(92,116,o),
(204,0,o),
(440,0,cs)
);
}
);
width = 717;
},
{
anchors = (
{
name = Anchor2;
pos = (366,622);
},
{
name = Anchor6;
pos = (327,0);
}
);
layerId = "C86CFEE0-D181-456A-AA08-2B118FAF25CE";
shapes = (
{
closed = 1;
nodes = (
(346,0,o),
(399,37,o),
(399,111,cs),
(399,175,o),
(356,216,o),
(288,216,cs),
(224,216,o),
(165,182,o),
(112,111,c),
(128,93,l),
(178,154,o),
(229,190,o),
(286,190,cs),
(339,190,o),
(372,161,o),
(372,111,cs),
(372,55,o),
(333,26,o),
(277,26,cs),
(170,26,o),
(96,101,o),
(94,360,c),
(350,360,l),
(366,376,l),
(366,596,l),
(450,596,l),
(450,622,l),
(-7,622,l),
(-7,596,l),
(340,596,l),
(340,386,l),
(96,386,l),
(96,413,ls),
(96,431,o),
(92,440,o),
(81,440,cs),
(60,440,o),
(32,402,o),
(32,378,cs),
(32,362,o),
(45,360,o),
(61,360,cs),
(68,360,l),
(68,336,ls),
(68,98,o),
(156,0,o),
(276,0,cs)
);
}
);
width = 443;
},
{
anchors = (
{
name = Anchor2;
pos = (517,622);
},
{
name = Anchor6;
pos = (356,0);
}
);
layerId = "CBEC276F-1F9B-404D-BC73-2CB92054D876";
shapes = (
{
closed = 1;
nodes = (
(498,0,o),
(553,65,o),
(553,140,cs),
(553,217,o),
(502,265,o),
(401,265,cs),
(302,265,o),
(240,221,o),
(170,143,c),
(231,70,l),
(291,131,o),
(326,162,o),
(372,162,cs),
(395,162,o),
(405,154,o),
(405,141,cs),
(405,124,o),
(390,119,o),
(357,119,cs),
(293,119,o),
(220,154,o),
(214,278,c),
(462,278,l),
(517,324,l),
(517,489,l),
(580,489,l),
(580,622,l),
(-7,622,l),
(-7,489,l),
(367,489,l),
(367,405,l),
(213,405,l),
(213,409,ls),
(213,450,o),
(195,470,o),
(152,470,cs),
(88,470,o),
(14,387,o),
(14,322,cs),
(14,286,o),
(35,272,o),
(57,272,cs),
(68,272,l),
(68,265,ls),
(68,99,o),
(183,0,o),
(350,0,cs)
);
}
);
width = 573;
},
{
anchors = (
{
name = Anchor2;
pos = (422,622);
},
{
name = Anchor6;
pos = (342,0);
}
);
layerId = "04B5D069-3E89-43E6-853C-EFCF876AEDC5";
shapes = (
{
closed = 1;
nodes = (
(406,0,o),
(455,49,o),
(455,120,cs),
(455,179,o),
(416,232,o),
(329,232,cs),
(250,232,o),
(185,185,o),
(127,114,c),
(176,76,l),
(221,128,o),
(266,165,o),
(323,165,cs),
(360,165,o),
(381,148,o),
(381,118,cs),
(381,85,o),
(357,67,o),
(307,67,cs),
(187,67,o),
(151,172,o),
(151,322,c),
(400,322,l),
(422,350,l),
(422,554,l),
(495,554,l),
(495,622,l),
(-7,622,l),
(-7,554,l),
(347,554,l),
(347,390,l),
(151,390,l),
(151,428,ls),
(151,451,o),
(140,468,o),
(118,468,cs),
(73,468,o),
(24,401,o),
(24,358,cs),
(24,338,o),
(35,321,o),
(71,321,cs),
(76,321,l),
(76,302,ls),
(76,121,o),
(157,0,o),
(302,0,cs)
);
}
);
width = 488;
}
);
unicode = 2594;
},
{
glyphname = nnaguru;
lastChange = "2020-02-26 16:12:49 +0000";
layers = (
{
layerId = UUID0;
shapes = (
{
closed = 1;
nodes = (
(431,0,o),
(505,19,o),
(589,57,c),
(561,128,l),
(472,87,o),
(417,73,o),
(341,73,cs),
(235,73,o),
(180,127,o),
(126,214,c),
(117,202,l),
(172,268,o),
(213,302,o),
(283,302,cs),
(313,302,o),
(340,296,o),
(360,288,c),
(397,303,l),
(458,423,l),
(392,462,l),
(333,347,l),
(369,354,l),
(341,368,o),
(311,375,o),
(276,375,cs),
(172,375,o),
(104,309,o),
(34,219,c),
(103,84,o),
(178,0,o),
(341,0,cs)
);
},
{
closed = 1;
nodes = (
(587,398,l),
(488,441,o),
(381,493,o),
(292,566,c),
(275,551,l),
(629,551,l),
(629,622,l),
(-7,622,l),
(-7,551,l),
(240,551,l),
(185,570,l),
(299,456,o),
(434,384,o),
(552,330,c)
);
}
);
width = 622;
},
{
layerId = "397B4BA1-1DC1-423A-91EE-9CBCF179C3D0";
shapes = (
{
closed = 1;
nodes = (
(471,0,o),
(553,22,o),
(623,54,c),
(576,160,l),
(493,125,o),
(456,112,o),
(377,112,cs),
(279,112,o),
(218,145,o),
(153,251,c),
(144,163,l),
(209,246,o),
(253,279,o),
(315,279,cs),
(340,279,o),
(361,274,o),
(380,265,c),
(436,285,l),
(494,420,l),
(397,487,l),
(336,338,l),
(396,366,l),
(364,383,o),
(338,392,o),
(298,392,cs),
(205,392,o),
(133,344,o),
(26,219,c),
(92,100,o),
(179,0,o),
(375,0,cs)
);
},
{
closed = 1;
nodes = (
(623,422,l),
(529,458,o),
(433,497,o),
(340,551,c),
(347,512,l),
(659,512,l),
(659,622,l),
(-7,622,l),
(-7,512,l),
(278,512,l),
(187,551,l),
(300,442,o),
(445,368,o),
(566,311,c)
);
}
);
width = 652;
},
{
layerId = "AD832606-5186-48BF-AC4A-95D20F9D6762";
shapes = (
{
closed = 1;
nodes = (
(412,0,o),
(473,18,o),
(547,51,c),
(537,74,l),
(457,39,o),
(404,26,o),
(335,26,cs),
(193,26,o),
(129,97,o),
(64,231,c),
(62,194,l),
(110,285,o),
(181,345,o),
(257,345,cs),
(289,345,o),
(312,340,o),
(343,327,c),
(362,334,l),
(414,438,l),
(392,449,l),
(338,342,l),
(349,351,l),
(320,363,o),
(300,371,o),
(257,371,cs),
(180,371,o),
(103,319,o),
(42,214,c),
(111,77,o),
(181,0,o),
(335,0,cs)
);
},
{
closed = 1;
nodes = (
(534,394,l),
(424,436,o),
(284,522,o),
(200,611,c),
(200,596,l),
(592,596,l),
(592,622,l),
(-7,622,l),
(-7,596,l),
(195,596,l),
(169,605,l),
(280,493,o),
(396,425,o),
(524,370,c)
);
}
);
width = 585;
},
{
layerId = "F506C8C4-888D-41F0-91C9-49F2C7D2D9C4";
shapes = (
{
closed = 1;
nodes = (
(486,0,o),
(577,25,o),
(644,60,c),
(584,191,l),
(520,162,o),
(452,139,o),
(387,139,cs),
(279,139,o),
(242,167,o),
(188,237,c),
(205,182,l),
(256,236,o),
(288,247,o),
(328,247,cs),
(353,247,o),
(371,244,o),
(390,237,c),
(462,262,l),
(537,425,l),
(396,492,l),
(332,340,l),
(417,351,l),
(376,373,o),
(338,382,o),
(311,382,cs),
(197,382,o),
(110,333,o),
(16,214,c),
(90,53,o),
(216,0,o),
(387,0,cs)
);
},
{
closed = 1;
nodes = (
(647,409,l),
(552,445,o),
(465,480,o),
(372,530,c),
(350,484,l),
(669,484,l),
(669,622,l),
(-7,622,l),
(-7,484,l),
(281,484,l),
(171,521,l),
(318,404,o),
(459,327,o),
(580,280,c)
);
}
);
width = 662;
},
{
layerId = "C86CFEE0-D181-456A-AA08-2B118FAF25CE";
shapes = (
{
closed = 1;
nodes = (
(319,0,o),
(367,11,o),
(412,37,c),
(402,62,l),
(355,35,o),
(316,26,o),
(265,26,cs),
(153,26,o),
(101,103,o),
(59,232,c),
(55,192,l),
(106,289,o),
(149,345,o),
(225,345,cs),
(240,345,o),
(251,343,o),
(265,338,c),
(288,347,l),
(340,444,l),
(316,456,l),
(263,357,l),
(278,361,l),
(259,368,o),
(239,371,o),
(222,371,cs),
(137,371,o),
(90,311,o),
(35,214,c),
(86,77,o),
(142,0,o),
(265,0,cs)
);
},
{
closed = 1;
nodes = (
(417,405,l),
(336,454,o),
(248,520,o),
(169,611,c),
(161,596,l),
(445,596,l),
(445,622,l),
(-7,622,l),
(-7,596,l),
(154,596,l),
(142,605,l),
(225,508,o),
(304,447,o),
(404,382,c)
);
}
);
width = 438;
},
{
layerId = "CBEC276F-1F9B-404D-BC73-2CB92054D876";
shapes = (
{
closed = 1;
nodes = (
(392,0,o),
(450,24,o),
(503,52,c),
(456,174,l),
(406,146,o),
(366,134,o),
(312,134,cs),
(244,134,o),
(206,150,o),
(172,217,c),
(163,180,l),
(202,229,o),
(226,248,o),
(262,248,cs),
(274,248,o),
(286,246,o),
(298,242,c),
(362,262,l),
(438,409,l),
(312,481,l),
(238,341,l),
(351,344,l),
(319,368,o),
(279,381,o),
(242,381,cs),
(139,381,o),
(72,323,o),
(13,215,c),
(65,63,o),
(178,0,o),
(308,0,cs)
);
},
{
closed = 1;
nodes = (
(507,407,l),
(436,443,o),
(388,471,o),
(313,532,c),
(275,489,l),
(520,489,l),
(520,622,l),
(-7,622,l),
(-7,489,l),
(220,489,l),
(143,520,l),
(229,406,o),
(332,342,o),
(431,287,c)
);
}
);
width = 513;
},
{
layerId = "04B5D069-3E89-43E6-853C-EFCF876AEDC5";
shapes = (
{
closed = 1;
nodes = (
(326,0,o),
(382,13,o),
(435,39,c),
(409,106,l),
(356,79,o),
(325,70,o),
(276,70,cs),
(195,70,o),
(149,117,o),
(105,218,c),
(99,189,l),
(143,264,o),
(181,303,o),
(234,303,cs),
(247,303,o),
(259,301,o),
(270,298,c),
(310,313,l),
(369,422,l),
(297,453,l),
(242,346,l),
(282,362,l),
(263,369,o),
(247,372,o),
(226,372,cs),
(138,372,o),
(88,319,o),
(25,219,c),
(79,77,o),
(141,0,o),
(276,0,cs)
);
},
{
closed = 1;
nodes = (
(437,396,l),
(371,439,o),
(293,497,o),
(228,569,c),
(224,554,l),
(459,554,l),
(459,622,l),
(-7,622,l),
(-7,554,l),
(187,554,l),
(137,573,l),
(218,463,o),
(313,389,o),
(397,335,c)
);
}
);
width = 452;
}
);
unicode = 2595;
},
{
glyphname = taguru;
lastChange = "2020-02-26 16:12:49 +0000";
layers = (
{
anchors = (
{
name = Anchor6;
pos = (343,0);
}
);
layerId = UUID0;
shapes = (
{
closed = 1;
nodes = (
(389,0,o),
(488,66,o),
(488,188,cs),
(488,275,o),
(443,326,o),
(377,362,c),
(426,391,o),
(463,428,o),
(463,511,cs),
(463,530,o),
(460,555,o),
(455,576,c),
(424,551,l),
(549,551,l),
(549,622,l),
(-7,622,l),
(-7,551,l),
(414,551,l),
(370,578,l),
(379,553,o),
(382,531,o),
(382,512,cs),
(382,449,o),
(349,412,o),
(302,393,c),
(256,410,o),
(210,419,o),
(157,419,cs),
(108,419,o),
(69,407,o),
(69,369,cs),
(69,341,o),
(89,312,o),
(181,312,cs),
(222,312,o),
(264,318,o),
(294,324,c),
(362,297,o),
(406,254,o),
(406,189,cs),
(406,105,o),
(335,73,o),
(248,73,cs),
(174,73,o),
(109,96,o),
(45,137,c),
(13,64,l),
(78,26,o),
(160,0,o),
(250,0,cs)
);
}
);
width = 542;
},
{
anchors = (
{
name = Anchor6;
pos = (340,0);
}
);
layerId = "397B4BA1-1DC1-423A-91EE-9CBCF179C3D0";
shapes = (
{
closed = 1;
nodes = (
(443,0,o),
(547,62,o),
(547,180,cs),
(547,258,o),
(509,304,o),
(448,342,c),
(494,368,o),
(527,407,o),
(527,480,cs),
(527,497,o),
(524,518,o),
(517,539,c),
(488,512,l),
(592,512,l),
(592,622,l),
(-7,622,l),
(-7,512,l),
(447,512,l),
(383,552,l),
(391,523,o),
(393,502,o),
(393,487,cs),
(393,435,o),
(358,405,o),
(322,395,c),
(273,411,o),
(229,418,o),
(192,418,cs),
(127,418,o),
(75,397,o),
(75,346,cs),
(75,306,o),
(103,269,o),
(199,269,cs),
(235,269,o),
(283,274,o),
(320,285,c),
(371,272,o),
(411,238,o),
(411,193,cs),
(411,136,o),
(356,112,o),
(268,112,cs),
(201,112,o),
(129,131,o),
(52,172,c),
(13,64,l),
(77,28,o),
(175,0,o),
(274,0,cs)
);
}
);
width = 585;
},
{
anchors = (
{
name = Anchor6;
pos = (337,0);
}
);
layerId = "AD832606-5186-48BF-AC4A-95D20F9D6762";
shapes = (
{
closed = 1;
nodes = (
(369,0,o),
(452,68,o),
(452,184,cs),
(452,267,o),
(406,329,o),
(323,369,c),
(402,403,o),
(427,457,o),
(427,533,cs),
(427,558,o),
(424,588,o),
(417,605,c),
(410,596,l),
(524,596,l),
(524,622,l),
(-7,622,l),
(-7,596,l),
(401,596,l),
(389,605,l),
(397,590,o),
(401,561,o),
(401,533,cs),
(401,454,o),
(369,410,o),
(293,381,c),
(265,389,o),
(205,397,o),
(154,397,cs),
(110,397,o),
(82,391,o),
(82,374,cs),
(82,355,o),
(116,348,o),
(175,348,cs),
(206,348,o),
(242,350,o),
(288,356,c),
(359,334,o),
(425,279,o),
(425,184,cs),
(425,79,o),
(349,26,o),
(233,26,cs),
(155,26,o),
(85,53,o),
(26,93,c),
(15,70,l),
(66,34,o),
(145,0,o),
(234,0,cs)
);
}
);
width = 517;
},
{
anchors = (
{
name = Anchor6;
pos = (339,0);
}
);
layerId = "F506C8C4-888D-41F0-91C9-49F2C7D2D9C4";
shapes = (
{
closed = 1;
nodes = (
(454,0,o),
(579,52,o),
(579,188,cs),
(579,255,o),
(546,302,o),
(486,341,c),
(535,372,o),
(555,411,o),
(555,478,cs),
(555,503,o),
(551,527,o),
(545,539,c),
(483,484,l),
(615,484,l),
(615,622,l),
(-7,622,l),
(-7,484,l),
(422,484,l),
(373,517,l),
(377,509,o),
(379,500,o),
(379,482,cs),
(379,441,o),
(357,418,o),
(329,407,c),
(287,422,o),
(238,429,o),
(200,429,cs),
(116,429,o),
(74,393,o),
(74,340,cs),
(74,287,o),
(111,248,o),
(214,248,cs),
(262,248,o),
(309,255,o),
(345,269,c),
(377,255,o),
(400,235,o),
(400,203,cs),
(400,158,o),
(360,140,o),
(276,140,cs),
(209,140,o),
(140,158,o),
(59,198,c),
(12,64,l),
(82,26,o),
(192,0,o),
(298,0,cs)
);
}
);
width = 608;
},
{
anchors = (
{
name = Anchor6;
pos = (235,0);
}
);
layerId = "C86CFEE0-D181-456A-AA08-2B118FAF25CE";
shapes = (
{
closed = 1;
nodes = (
(284,0,o),
(341,72,o),
(341,185,cs),
(341,270,o),
(298,331,o),
(232,368,c),
(293,404,o),
(322,455,o),
(322,536,cs),
(322,558,o),
(319,581,o),
(314,604,c),
(300,596,l),
(394,596,l),
(394,622,l),
(-7,622,l),
(-7,596,l),
(294,596,l),
(288,604,l),
(293,579,o),
(296,558,o),
(296,537,cs),
(296,453,o),
(258,409,o),
(206,381,c),
(185,389,o),
(155,395,o),
(119,395,cs),
(68,395,o),
(47,389,o),
(47,374,cs),
(47,357,o),
(71,349,o),
(126,349,cs),
(162,349,o),
(176,351,o),
(203,356,c),
(269,327,o),
(314,264,o),
(314,184,cs),
(314,88,o),
(266,26,o),
(167,26,cs),
(110,26,o),
(73,40,o),
(21,71,c),
(10,46,l),
(62,16,o),
(107,0,o),
(166,0,cs)
);
}
);
width = 387;
},
{
anchors = (
{
name = Anchor6;
pos = (235,0);
}
);
layerId = "CBEC276F-1F9B-404D-BC73-2CB92054D876";
shapes = (
{
closed = 1;
nodes = (
(332,0,o),
(431,53,o),
(431,189,cs),
(431,277,o),
(388,322,o),
(351,351,c),
(391,388,o),
(411,430,o),
(411,480,cs),
(411,496,o),
(409,517,o),
(403,539,c),
(347,489,l),
(469,489,l),
(469,622,l),
(-7,622,l),
(-7,489,l),
(300,489,l),
(252,520,l),
(257,509,o),
(261,490,o),
(261,476,cs),
(261,445,o),
(250,422,o),
(228,407,c),
(203,417,o),
(179,422,o),
(146,422,cs),
(80,422,o),
(41,388,o),
(41,338,cs),
(41,284,o),
(85,252,o),
(146,252,cs),
(193,252,o),
(213,258,o),
(241,270,c),
(260,255,o),
(279,233,o),
(279,198,cs),
(279,154,o),
(244,133,o),
(189,133,cs),
(144,133,o),
(105,143,o),
(59,165,c),
(11,44,l),
(70,14,o),
(131,0,o),
(202,0,cs)
);
}
);
width = 462;
},
{
anchors = (
{
name = Anchor6;
pos = (235,0);
}
);
layerId = "04B5D069-3E89-43E6-853C-EFCF876AEDC5";
shapes = (
{
closed = 1;
nodes = (
(299,0,o),
(372,68,o),
(372,187,cs),
(372,275,o),
(331,330,o),
(277,365,c),
(330,400,o),
(355,452,o),
(355,514,cs),
(355,532,o),
(352,557,o),
(348,578,c),
(331,554,l),
(415,554,l),
(415,622,l),
(-7,622,l),
(-7,554,l),
(306,554,l),
(266,580,l),
(275,555,o),
(280,533,o),
(280,514,cs),
(280,452,o),
(252,419,o),
(214,397,c),
(180,411,o),
(151,415,o),
(120,415,cs),
(73,415,o),
(39,403,o),
(39,366,cs),
(39,339,o),
(58,314,o),
(124,314,cs),
(167,314,o),
(193,321,o),
(209,328,c),
(272,296,o),
(295,240,o),
(295,189,cs),
(295,104,o),
(250,70,o),
(174,70,cs),
(128,70,o),
(91,83,o),
(40,115,c),
(11,49,l),
(68,15,o),
(124,0,o),
(174,0,cs)
);
}
);
width = 408;
}
);
unicode = 2596;
},
{
glyphname = thaguru;
lastChange = "2020-02-26 16:12:49 +0000";
layers = (
{
layerId = UUID0;
shapes = (
{
closed = 1;
nodes = (
(509,0,l),
(509,551,l),
(605,551,l),
(605,622,l),
(118,622,l),
(118,551,l),
(428,551,l),
(428,242,l),
(429,251,l),
(381,222,o),
(337,206,o),
(284,206,cs),
(206,206,o),
(161,257,o),
(118,357,c),
(114,313,l),
(158,344,o),
(188,389,o),
(188,460,cs),
(188,509,o),
(169,568,o),
(132,622,c),
(-7,622,l),
(-7,551,l),
(84,551,l),
(99,525,o),
(108,488,o),
(108,459,cs),
(108,405,o),
(78,367,o),
(38,333,c),
(88,210,o),
(166,132,o),
(284,132,cs),
(341,132,o),
(383,144,o),
(429,165,c),
(428,180,l),
(428,0,l)
);
},
{
closed = 1;
nodes = (
(465,357,l),
(465,426,l),
(128,426,l),
(128,357,l)
);
}
);
width = 598;
},
{
layerId = "397B4BA1-1DC1-423A-91EE-9CBCF179C3D0";
shapes = (
{
closed = 1;
nodes = (
(568,0,l),
(568,512,l),
(655,512,l),
(655,622,l),
(163,622,l),
(187,512,l),
(434,512,l),
(434,253,l),
(435,263,l),
(396,241,o),
(362,231,o),
(313,231,cs),
(246,231,o),
(191,274,o),
(165,374,c),
(153,291,l),
(203,338,o),
(234,380,o),
(234,451,cs),
(234,507,o),
(210,562,o),
(173,622,c),
(-7,622,l),
(-7,512,l),
(85,512,l),
(96,494,o),
(101,467,o),
(101,441,cs),
(101,387,o),
(67,351,o),
(31,327,c),
(87,195,o),
(171,119,o),
(308,119,cs),
(351,119,o),
(392,123,o),
(435,139,c),
(434,145,l),
(434,0,l)
);
},
{
closed = 1;
nodes = (
(497,320,l),
(497,421,l),
(147,421,l),
(171,320,l)
);
}
);
width = 648;
},
{
layerId = "AD832606-5186-48BF-AC4A-95D20F9D6762";
shapes = (
{
closed = 1;
nodes = (
(446,0,l),
(446,596,l),
(553,596,l),
(553,622,l),
(97,622,l),
(108,596,l),
(420,596,l),
(420,232,l),
(421,246,l),
(373,207,o),
(321,194,o),
(271,194,cs),
(184,194,o),
(114,243,o),
(78,334,c),
(77,322,l),
(122,370,o),
(150,415,o),
(150,479,cs),
(150,530,o),
(136,575,o),
(112,622,c),
(-7,622,l),
(-7,596,l),
(95,596,l),
(111,564,o),
(123,527,o),
(123,479,cs),
(123,420,o),
(97,379,o),
(50,333,c),
(102,209,o),
(183,168,o),
(271,168,cs),
(332,168,o),
(378,184,o),
(423,215,c),
(420,226,l),
(420,0,l)
);
},
{
closed = 1;
nodes = (
(433,398,l),
(433,424,l),
(118,424,l),
(118,398,l)
);
}
);
width = 546;
},
{
layerId = "F506C8C4-888D-41F0-91C9-49F2C7D2D9C4";
shapes = (
{
closed = 1;
nodes = (
(611,0,l),
(611,484,l),
(688,484,l),
(688,622,l),
(179,622,l),
(185,484,l),
(434,484,l),
(434,252,l),
(455,288,l),
(419,265,o),
(381,248,o),
(329,248,cs),
(271,248,o),
(232,278,o),
(209,334,c),
(177,278,l),
(239,325,o),
(269,380,o),
(269,444,cs),
(269,496,o),
(245,562,o),
(216,622,c),
(-7,622,l),
(-7,484,l),
(81,484,l),
(89,467,o),
(92,450,o),
(92,434,cs),
(92,387,o),
(66,359,o),
(25,330,c),
(92,171,o),
(185,109,o),
(322,109,cs),
(379,109,o),
(417,116,o),
(457,135,c),
(434,145,l),
(434,0,l)
);
},
{
closed = 1;
nodes = (
(500,307,l),
(500,428,l),
(150,428,l),
(172,307,l)
);
}
);
width = 681;
},
{
layerId = "C86CFEE0-D181-456A-AA08-2B118FAF25CE";
shapes = (
{
closed = 1;
nodes = (
(341,0,l),
(341,596,l),
(425,596,l),
(425,622,l),
(73,622,l),
(74,596,l),
(315,596,l),
(315,233,l),
(328,252,l),
(292,213,o),
(255,194,o),
(209,194,cs),
(130,194,o),
(93,246,o),
(65,342,c),
(59,319,l),
(99,372,o),
(119,408,o),
(119,474,cs),
(119,523,o),
(103,576,o),
(83,622,c),
(-7,622,l),
(-7,596,l),
(65,596,l),
(79,567,o),
(92,520,o),
(92,474,cs),
(92,416,o),
(74,382,o),
(39,336,c),
(75,219,o),
(124,168,o),
(208,168,cs),
(260,168,o),
(300,188,o),
(331,220,c),
(315,227,l),
(315,0,l)
);
},
{
closed = 1;
nodes = (
(323,398,l),
(323,424,l),
(98,424,l),
(98,398,l)
);
}
);
width = 418;
},
{
layerId = "CBEC276F-1F9B-404D-BC73-2CB92054D876";
shapes = (
{
closed = 1;
nodes = (
(478,0,l),
(478,489,l),
(539,489,l),
(539,622,l),
(139,622,l),
(144,489,l),
(328,489,l),
(328,246,l),
(332,266,l),
(316,253,o),
(295,242,o),
(258,242,cs),
(217,242,o),
(192,270,o),
(173,341,c),
(144,266,l),
(190,307,o),
(224,358,o),
(224,434,cs),
(224,497,o),
(207,561,o),
(181,622,c),
(-7,622,l),
(-7,489,l),
(66,489,l),
(72,472,o),
(74,454,o),
(74,433,cs),
(74,389,o),
(53,352,o),
(21,320,c),
(65,173,o),
(139,109,o),
(256,109,cs),
(297,109,o),
(330,119,o),
(357,138,c),
(328,155,l),
(328,0,l)
);
},
{
closed = 1;
nodes = (
(454,308,l),
(454,424,l),
(104,424,l),
(128,308,l)
);
}
);
width = 532;
},
{
layerId = "04B5D069-3E89-43E6-853C-EFCF876AEDC5";
shapes = (
{
closed = 1;
nodes = (
(391,0,l),
(391,554,l),
(462,554,l),
(462,622,l),
(105,622,l),
(121,554,l),
(316,554,l),
(316,223,l),
(317,238,l),
(289,217,o),
(264,204,o),
(224,204,cs),
(162,204,o),
(128,257,o),
(104,355,c),
(98,314,l),
(132,351,o),
(157,391,o),
(157,462,cs),
(157,512,o),
(141,569,o),
(120,622,c),
(-7,622,l),
(-7,554,l),
(63,554,l),
(74,523,o),
(82,492,o),
(82,461,cs),
(82,409,o),
(57,370,o),
(28,333,c),
(68,191,o),
(128,134,o),
(221,134,cs),
(265,134,o),
(297,145,o),
(324,163,c),
(316,183,l),
(316,0,l)
);
},
{
closed = 1;
nodes = (
(355,358,l),
(355,425,l),
(118,425,l),
(118,358,l)
);
}
);
width = 455;
}
);
unicode = 2597;
},
{
glyphname = daguru;
lastChange = "2020-02-26 16:12:49 +0000";
layers = (
{
layerId = UUID0;
shapes = (
{
closed = 1;
nodes = (
(439,0,o),
(509,16,o),
(570,46,c),
(542,117,l),
(482,87,o),
(432,73,o),
(369,73,cs),
(281,73,o),
(183,109,o),
(182,291,c),
(498,291,l),
(527,320,l),
(527,551,l),
(624,551,l),
(624,622,l),
(-7,622,l),
(-7,551,l),
(447,551,l),
(447,362,l),
(182,362,l),
(182,387,ls),
(182,416,o),
(171,442,o),
(139,442,cs),
(96,442,o),
(32,377,o),
(32,329,cs),
(32,308,o),
(46,291,o),
(83,291,cs),
(101,291,l),
(101,280,ls),
(101,114,o),
(186,0,o),
(368,0,cs)
);
}
);
width = 617;
},
{
layerId = "397B4BA1-1DC1-423A-91EE-9CBCF179C3D0";
shapes = (
{
closed = 1;
nodes = (
(484,0,o),
(567,17,o),
(630,43,c),
(586,151,l),
(526,125,o),
(480,112,o),
(413,112,cs),
(292,112,o),
(235,168,o),
(235,269,c),
(545,269,l),
(581,305,l),
(581,512,l),
(668,512,l),
(668,622,l),
(-7,622,l),
(-7,512,l),
(447,512,l),
(447,379,l),
(235,379,l),
(235,390,ls),
(235,433,o),
(213,459,o),
(170,459,cs),
(96,459,o),
(24,375,o),
(24,321,cs),
(24,290,o),
(42,269,o),
(87,269,cs),
(101,269,l),
(101,261,ls),
(101,79,o),
(222,0,o),
(406,0,cs)
);
}
);
width = 661;
},
{
layerId = "AD832606-5186-48BF-AC4A-95D20F9D6762";
shapes = (
{
closed = 1;
nodes = (
(398,0,o),
(451,11,o),
(509,40,c),
(499,63,l),
(436,35,o),
(394,26,o),
(339,26,cs),
(217,26,o),
(117,91,o),
(117,333,c),
(441,333,l),
(456,347,l),
(456,596,l),
(563,596,l),
(563,622,l),
(-7,622,l),
(-7,596,l),
(430,596,l),
(430,359,l),
(119,359,l),
(119,386,ls),
(119,403,o),
(116,419,o),
(101,419,cs),
(76,419,o),
(40,378,o),
(40,354,cs),
(40,337,o),
(57,333,o),
(80,333,cs),
(91,333,l),
(91,320,ls),
(91,91,o),
(189,0,o),
(339,0,cs)
);
}
);
width = 556;
},
{
layerId = "F506C8C4-888D-41F0-91C9-49F2C7D2D9C4";
shapes = (
{
closed = 1;
nodes = (
(502,0,o),
(585,19,o),
(650,48,c),
(594,181,l),
(527,153,o),
(482,139,o),
(411,139,cs),
(313,139,o),
(272,174,o),
(258,244,c),
(557,244,l),
(603,290,l),
(603,484,l),
(680,484,l),
(680,622,l),
(-7,622,l),
(-7,484,l),
(426,484,l),
(426,382,l),
(259,382,l),
(259,384,ls),
(259,423,o),
(237,453,o),
(180,453,cs),
(100,453,o),
(13,369,o),
(13,305,cs),
(13,262,o),
(40,242,o),
(80,242,cs),
(82,242,l),
(84,241,l),
(94,98,o),
(192,0,o),
(403,0,cs)
);
}
);
width = 673;
},
{
layerId = "C86CFEE0-D181-456A-AA08-2B118FAF25CE";
shapes = (
{
closed = 1;
nodes = (
(311,0,o),
(350,11,o),
(386,27,c),
(376,52,l),
(340,35,o),
(311,26,o),
(268,26,cs),
(159,26,o),
(94,90,o),
(94,333,c),
(324,333,l),
(340,349,l),
(340,596,l),
(424,596,l),
(424,622,l),
(-7,622,l),
(-7,596,l),
(314,596,l),
(314,359,l),
(96,359,l),
(96,386,ls),
(96,404,o),
(92,413,o),
(81,413,cs),
(60,413,o),
(32,375,o),
(32,351,cs),
(32,335,o),
(45,333,o),
(60,333,cs),
(68,333,l),
(68,315,ls),
(68,81,o),
(142,0,o),
(268,0,cs)
);
}
);
width = 417;
},
{
layerId = "CBEC276F-1F9B-404D-BC73-2CB92054D876";
shapes = (
{
closed = 1;
nodes = (
(400,0,o),
(446,16,o),
(499,43,c),
(452,165,l),
(407,142,o),
(368,134,o),
(325,134,cs),
(253,134,o),
(222,172,o),
(215,246,c),
(427,246,l),
(460,282,l),
(460,489,l),
(521,489,l),
(521,622,l),
(-7,622,l),
(-7,489,l),
(310,489,l),
(310,379,l),
(209,379,l),
(209,382,ls),
(209,423,o),
(191,444,o),
(148,444,cs),
(84,444,o),
(10,361,o),
(10,296,cs),
(10,261,o),
(31,246,o),
(53,246,cs),
(64,246,l),
(64,245,l),
(72,96,o),
(148,0,o),
(323,0,cs)
);
}
);
width = 514;
},
{
layerId = "04B5D069-3E89-43E6-853C-EFCF876AEDC5";
shapes = (
{
closed = 1;
nodes = (
(340,0,o),
(394,11,o),
(438,35,c),
(412,102,l),
(372,79,o),
(337,70,o),
(300,70,cs),
(209,70,o),
(151,112,o),
(151,293,c),
(375,293,l),
(397,321,l),
(397,554,l),
(468,554,l),
(468,622,l),
(-7,622,l),
(-7,554,l),
(322,554,l),
(322,361,l),
(151,361,l),
(151,397,ls),
(151,422,o),
(140,439,o),
(118,439,cs),
(73,439,o),
(24,372,o),
(24,329,cs),
(24,309,o),
(35,292,o),
(71,292,cs),
(76,292,l),
(76,276,ls),
(76,95,o),
(148,0,o),
(298,0,cs)
);
}
);
width = 461;
}
);
unicode = 2598;
},
{
glyphname = dhaguru;
lastChange = "2020-02-26 16:12:49 +0000";
layers = (
{
layerId = UUID0;
shapes = (
{
closed = 1;
nodes = (
(504,0,l),
(504,551,l),
(600,551,l),
(600,622,l),
(118,622,l),
(118,551,l),
(423,551,l),
(423,242,l),
(429,251,l),
(381,222,o),
(337,206,o),
(284,206,cs),
(206,206,o),
(161,257,o),
(118,357,c),
(114,313,l),
(158,344,o),
(188,389,o),
(188,460,cs),
(188,509,o),
(169,568,o),
(132,622,c),
(-7,622,l),
(-7,551,l),
(84,551,l),
(99,525,o),
(108,488,o),
(108,459,cs),
(108,405,o),
(78,367,o),
(38,333,c),
(88,210,o),
(166,132,o),
(284,132,cs),
(341,132,o),
(383,144,o),
(429,165,c),
(423,180,l),
(423,0,l)
);
}
);
width = 593;
},
{
layerId = "397B4BA1-1DC1-423A-91EE-9CBCF179C3D0";
shapes = (
{
closed = 1;
nodes = (
(563,0,l),
(563,512,l),
(650,512,l),
(650,622,l),
(163,622,l),
(187,512,l),
(429,512,l),
(429,253,l),
(434,263,l),
(395,241,o),
(359,231,o),
(313,231,cs),
(246,231,o),
(194,274,o),
(168,374,c),
(156,291,l),
(206,338,o),
(234,380,o),
(234,451,cs),
(234,507,o),
(210,562,o),
(173,622,c),
(-7,622,l),
(-7,512,l),
(85,512,l),
(96,494,o),
(101,467,o),
(101,441,cs),
(101,387,o),
(67,351,o),
(31,327,c),
(87,195,o),
(171,119,o),
(308,119,cs),
(351,119,o),
(391,123,o),
(434,139,c),
(429,145,l),
(429,0,l)
);
}
);
width = 643;
},
{
layerId = "AD832606-5186-48BF-AC4A-95D20F9D6762";
shapes = (
{
closed = 1;
nodes = (
(443,0,l),
(443,596,l),
(550,596,l),
(550,622,l),
(97,622,l),
(108,596,l),
(417,596,l),
(417,232,l),
(421,246,l),
(373,207,o),
(321,194,o),
(271,194,cs),
(184,194,o),
(114,243,o),
(78,334,c),
(77,322,l),
(122,370,o),
(150,415,o),
(150,479,cs),
(150,530,o),
(136,575,o),
(112,622,c),
(-7,622,l),
(-7,596,l),
(95,596,l),
(111,564,o),
(123,527,o),
(123,479,cs),
(123,420,o),
(97,379,o),
(50,333,c),
(102,209,o),
(183,168,o),
(271,168,cs),
(332,168,o),
(378,184,o),
(423,215,c),
(417,226,l),
(417,0,l)
);
}
);
width = 543;
},
{
layerId = "F506C8C4-888D-41F0-91C9-49F2C7D2D9C4";
shapes = (
{
closed = 1;
nodes = (
(606,0,l),
(606,484,l),
(683,484,l),
(683,622,l),
(179,622,l),
(185,484,l),
(429,484,l),
(429,252,l),
(455,288,l),
(419,265,o),
(381,248,o),
(328,248,cs),
(274,248,o),
(237,278,o),
(214,334,c),
(182,278,l),
(244,325,o),
(269,381,o),
(269,445,cs),
(269,497,o),
(245,562,o),
(216,622,c),
(-7,622,l),
(-7,484,l),
(81,484,l),
(89,467,o),
(92,450,o),
(92,434,cs),
(92,387,o),
(66,359,o),
(25,330,c),
(92,171,o),
(185,109,o),
(322,109,cs),
(379,109,o),
(417,116,o),
(457,135,c),
(429,145,l),
(429,0,l)
);
}
);
width = 676;
},
{
layerId = "C86CFEE0-D181-456A-AA08-2B118FAF25CE";
shapes = (
{
closed = 1;
nodes = (
(339,0,l),
(339,596,l),
(423,596,l),
(423,622,l),
(73,622,l),
(74,596,l),
(313,596,l),
(313,233,l),
(328,252,l),
(292,213,o),
(255,194,o),
(209,194,cs),
(130,194,o),
(93,246,o),
(65,342,c),
(59,319,l),
(99,372,o),
(119,408,o),
(119,474,cs),
(119,523,o),
(103,576,o),
(83,622,c),
(-7,622,l),
(-7,596,l),
(65,596,l),
(79,567,o),
(92,520,o),
(92,474,cs),
(92,416,o),
(74,382,o),
(39,336,c),
(75,219,o),
(124,168,o),
(208,168,cs),
(260,168,o),
(300,188,o),
(331,220,c),
(313,227,l),
(313,0,l)
);
}
);
width = 416;
},
{
layerId = "CBEC276F-1F9B-404D-BC73-2CB92054D876";
shapes = (
{
closed = 1;
nodes = (
(473,0,l),
(473,489,l),
(534,489,l),
(534,622,l),
(139,622,l),
(144,489,l),
(323,489,l),
(323,237,l),
(330,266,l),
(313,252,o),
(291,242,o),
(258,242,cs),
(219,242,o),
(196,270,o),
(177,341,c),
(148,266,l),
(194,307,o),
(224,358,o),
(224,434,cs),
(224,497,o),
(207,561,o),
(181,622,c),
(-7,622,l),
(-7,489,l),
(66,489,l),
(72,472,o),
(74,454,o),
(74,433,cs),
(74,389,o),
(53,352,o),
(21,320,c),
(65,173,o),
(139,109,o),
(256,109,cs),
(297,109,o),
(330,119,o),
(357,138,c),
(323,155,l),
(323,0,l)
);
}
);
width = 527;
},
{
layerId = "04B5D069-3E89-43E6-853C-EFCF876AEDC5";
shapes = (
{
closed = 1;
nodes = (
(386,0,l),
(386,554,l),
(457,554,l),
(457,622,l),
(105,622,l),
(121,554,l),
(311,554,l),
(311,223,l),
(317,238,l),
(289,217,o),
(264,204,o),
(224,204,cs),
(162,204,o),
(128,257,o),
(104,355,c),
(98,314,l),
(132,350,o),
(157,391,o),
(157,462,cs),
(157,512,o),
(141,569,o),
(120,622,c),
(-7,622,l),
(-7,554,l),
(63,554,l),
(74,523,o),
(82,492,o),
(82,461,cs),
(82,409,o),
(57,370,o),
(28,333,c),
(68,191,o),
(128,134,o),
(221,134,cs),
(265,134,o),
(297,145,o),
(324,163,c),
(311,183,l),
(311,0,l)
);
}
);
width = 450;
}
);
unicode = 2599;
},
{
glyphname = naguru;
lastChange = "2020-02-26 16:12:49 +0000";
layers = (
{
anchors = (
{
name = Anchor2;
pos = (364,622);
},
{
name = Anchor4;
pos = (324,0);
},
{
name = Anchor6;
pos = (454,0);
}
);
layerId = UUID0;
shapes = (
{
closed = 1;
nodes = (
(245,73,l),
(156,73,o),
(119,123,o),
(119,195,cs),
(119,277,o),
(189,344,o),
(324,378,c),
(459,344,o),
(529,277,o),
(529,195,cs),
(529,123,o),
(493,73,o),
(404,73,c),
(409,0,l),
(567,0,o),
(609,116,o),
(609,194,cs),
(609,296,o),
(533,394,o),
(364,438,c),
(364,551,l),
(655,551,l),
(655,622,l),
(-7,622,l),
(-7,551,l),
(284,551,l),
(284,438,l),
(116,394,o),
(39,296,o),
(39,194,cs),
(39,116,o),
(82,0,o),
(240,0,c)
);
}
);
width = 648;
},
{
anchors = (
{
name = Anchor2;
pos = (411,622);
},
{
name = Anchor4;
pos = (344,0);
},
{
name = Anchor6;
pos = (455,0);
}
);
layerId = "397B4BA1-1DC1-423A-91EE-9CBCF179C3D0";
shapes = (
{
closed = 1;
nodes = (
(275,113,l),
(191,113,o),
(166,149,o),
(166,196,cs),
(166,259,o),
(227,306,o),
(344,331,c),
(461,306,o),
(522,259,o),
(522,196,cs),
(522,149,o),
(497,113,o),
(413,113,c),
(421,0,l),
(606,0,o),
(656,108,o),
(656,189,cs),
(656,290,o),
(579,388,o),
(411,429,c),
(411,512,l),
(695,512,l),
(695,622,l),
(-7,622,l),
(-7,512,l),
(277,512,l),
(277,429,l),
(109,388,o),
(32,290,o),
(32,189,cs),
(32,108,o),
(82,0,o),
(267,0,c)
);
}
);
width = 688;
},
{
anchors = (
{
name = Anchor2;
pos = (340,622);
},
{
name = Anchor4;
pos = (314,0);
},
{
name = Anchor6;
pos = (440,0);
}
);
layerId = "AD832606-5186-48BF-AC4A-95D20F9D6762";
shapes = (
{
closed = 1;
nodes = (
(225,26,l),
(132,26,o),
(75,86,o),
(75,185,cs),
(75,297,o),
(157,373,o),
(303,412,c),
(449,373,o),
(531,297,o),
(531,184,cs),
(531,86,o),
(474,26,o),
(381,26,c),
(382,0,l),
(497,0,o),
(558,79,o),
(558,184,cs),
(558,292,o),
(492,384,o),
(316,434,c),
(316,596,l),
(613,596,l),
(613,622,l),
(-7,622,l),
(-7,596,l),
(290,596,l),
(290,434,l),
(116,384,o),
(48,292,o),
(48,185,cs),
(48,79,o),
(109,0,o),
(224,0,c)
);
}
);
width = 606;
},
{
anchors = (
{
name = Anchor2;
pos = (451,622);
},
{
name = Anchor4;
pos = (362,0);
},
{
name = Anchor6;
pos = (459,0);
}
);
layerId = "F506C8C4-888D-41F0-91C9-49F2C7D2D9C4";
shapes = (
{
closed = 1;
nodes = (
(304,141,l),
(240,141,o),
(202,154,o),
(202,199,cs),
(202,249,o),
(264,284,o),
(363,305,c),
(461,284,o),
(523,245,o),
(523,199,cs),
(523,154,o),
(485,141,o),
(421,141,c),
(429,0,l),
(625,0,o),
(700,88,o),
(700,195,cs),
(700,312,o),
(606,388,o),
(451,427,c),
(451,484,l),
(732,484,l),
(732,622,l),
(-7,622,l),
(-7,484,l),
(274,484,l),
(274,427,l),
(119,388,o),
(25,312,o),
(25,195,cs),
(25,88,o),
(100,0,o),
(296,0,c)
);
}
);
width = 725;
},
{
anchors = (
{
name = Anchor2;
pos = (243,622);
},
{
name = Anchor4;
pos = (230,0);
},
{
name = Anchor6;
pos = (323,0);
}
);
layerId = "C86CFEE0-D181-456A-AA08-2B118FAF25CE";
shapes = (
{
closed = 1;
nodes = (
(176,26,l),
(115,46,o),
(69,95,o),
(69,188,cs),
(69,279,o),
(114,350,o),
(230,415,c),
(346,350,o),
(391,279,o),
(391,188,cs),
(391,95,o),
(345,46,o),
(284,26,c),
(290,0,l),
(367,26,o),
(418,89,o),
(418,187,cs),
(418,287,o),
(366,369,o),
(243,434,c),
(243,596,l),
(467,596,l),
(467,622,l),
(-7,622,l),
(-7,596,l),
(217,596,l),
(217,435,l),
(94,369,o),
(42,287,o),
(42,187,cs),
(42,89,o),
(93,26,o),
(170,0,c)
);
}
);
width = 460;
},
{
anchors = (
{
name = Anchor2;
pos = (352,622);
},
{
name = Anchor4;
pos = (278,0);
},
{
name = Anchor6;
pos = (345,0);
}
);
layerId = "CBEC276F-1F9B-404D-BC73-2CB92054D876";
shapes = (
{
closed = 1;
nodes = (
(246,134,l),
(200,142,o),
(174,164,o),
(174,207,cs),
(174,260,o),
(218,298,o),
(278,315,c),
(338,298,o),
(382,260,o),
(382,206,cs),
(382,164,o),
(356,142,o),
(310,134,c),
(325,0,l),
(467,13,o),
(532,93,o),
(532,201,cs),
(532,304,o),
(468,380,o),
(352,428,c),
(352,489,l),
(563,489,l),
(563,622,l),
(-7,622,l),
(-7,489,l),
(204,489,l),
(204,428,l),
(88,380,o),
(24,304,o),
(24,201,cs),
(24,93,o),
(89,13,o),
(231,0,c)
);
}
);
width = 556;
},
{
anchors = (
{
name = Anchor2;
pos = (279,622);
},
{
name = Anchor4;
pos = (242,0);
},
{
name = Anchor6;
pos = (328,0);
}
);
layerId = "04B5D069-3E89-43E6-853C-EFCF876AEDC5";
shapes = (
{
closed = 1;
nodes = (
(197,68,l),
(142,79,o),
(107,119,o),
(107,190,cs),
(107,283,o),
(164,339,o),
(243,380,c),
(322,339,o),
(379,283,o),
(379,190,cs),
(379,119,o),
(344,79,o),
(289,68,c),
(302,-1,l),
(411,20,o),
(455,97,o),
(455,190,cs),
(455,293,o),
(395,379,o),
(280,438,c),
(280,554,l),
(493,554,l),
(493,622,l),
(-7,622,l),
(-7,554,l),
(206,554,l),
(206,438,l),
(91,379,o),
(31,293,o),
(31,190,cs),
(31,97,o),
(75,20,o),
(184,-1,c)
);
}
);
width = 486;
}
);
unicode = 2600;
},
{
glyphname = paguru;
lastChange = "2020-02-26 16:12:49 +0000";
layers = (
{
layerId = UUID0;
shapes = (
{
closed = 1;
nodes = (
(504,0,l),
(504,551,l),
(600,551,l),
(600,622,l),
(423,622,l),
(423,240,l),
(429,251,l),
(381,222,o),
(338,206,o),
(284,206,cs),
(206,206,o),
(161,257,o),
(118,357,c),
(114,313,l),
(158,344,o),
(188,389,o),
(188,460,cs),
(188,509,o),
(171,568,o),
(142,622,c),
(-7,622,l),
(-7,551,l),
(84,551,l),
(99,525,o),
(108,488,o),
(108,459,cs),
(108,405,o),
(78,367,o),
(38,333,c),
(88,210,o),
(166,132,o),
(284,132,cs),
(341,132,o),
(383,144,o),
(429,165,c),
(423,180,l),
(423,0,l)
);
}
);
width = 593;
},
{
layerId = "397B4BA1-1DC1-423A-91EE-9CBCF179C3D0";
shapes = (
{
closed = 1;
nodes = (
(563,0,l),
(563,512,l),
(650,512,l),
(650,622,l),
(429,622,l),
(429,253,l),
(434,263,l),
(395,241,o),
(359,231,o),
(313,231,cs),
(246,231,o),
(194,274,o),
(168,374,c),
(156,291,l),
(206,338,o),
(234,380,o),
(234,451,cs),
(234,507,o),
(218,567,o),
(188,622,c),
(-7,622,l),
(-7,512,l),
(85,512,l),
(96,494,o),
(101,467,o),
(101,441,cs),
(101,387,o),
(67,351,o),
(31,327,c),
(87,195,o),
(171,119,o),
(308,119,cs),
(351,119,o),
(391,123,o),
(434,139,c),
(429,145,l),
(429,0,l)
);
}
);
width = 643;
},
{
layerId = "AD832606-5186-48BF-AC4A-95D20F9D6762";
shapes = (
{
closed = 1;
nodes = (
(443,0,l),
(443,596,l),
(550,596,l),
(550,622,l),
(417,622,l),
(417,227,l),
(421,246,l),
(373,207,o),
(321,194,o),
(271,194,cs),
(184,194,o),
(114,243,o),
(78,334,c),
(77,322,l),
(122,370,o),
(150,414,o),
(150,479,cs),
(150,530,o),
(136,575,o),
(115,622,c),
(-7,622,l),
(-7,596,l),
(95,596,l),
(111,564,o),
(123,527,o),
(123,479,cs),
(123,420,o),
(97,379,o),
(50,333,c),
(102,209,o),
(183,168,o),
(271,168,cs),
(332,168,o),
(378,184,o),
(423,215,c),
(417,221,l),
(417,0,l)
);
}
);
width = 543;
},
{
layerId = "F506C8C4-888D-41F0-91C9-49F2C7D2D9C4";
shapes = (
{
closed = 1;
nodes = (
(601,0,l),
(601,484,l),
(678,484,l),
(678,622,l),
(424,622,l),
(424,252,l),
(455,288,l),
(419,265,o),
(381,248,o),
(328,248,cs),
(274,248,o),
(237,278,o),
(214,334,c),
(182,278,l),
(244,325,o),
(269,381,o),
(269,445,cs),
(269,504,o),
(249,562,o),
(220,622,c),
(-7,622,l),
(-7,484,l),
(81,484,l),
(89,467,o),
(92,450,o),
(92,434,cs),
(92,387,o),
(66,359,o),
(25,330,c),
(92,171,o),
(185,109,o),
(322,109,cs),
(379,109,o),
(417,116,o),
(457,135,c),
(424,145,l),
(424,0,l)
);
}
);
width = 671;
},
{
layerId = "C86CFEE0-D181-456A-AA08-2B118FAF25CE";
shapes = (
{
closed = 1;
nodes = (
(339,0,l),
(339,596,l),
(423,596,l),
(423,622,l),
(313,622,l),
(313,233,l),
(328,252,l),
(292,213,o),
(255,194,o),
(209,194,cs),
(130,194,o),
(93,246,o),
(65,342,c),
(59,319,l),
(99,372,o),
(119,408,o),
(119,474,cs),
(119,523,o),
(103,576,o),
(83,622,c),
(-7,622,l),
(-7,596,l),
(65,596,l),
(79,567,o),
(92,520,o),
(92,474,cs),
(92,416,o),
(74,382,o),
(39,336,c),
(75,219,o),
(124,168,o),
(208,168,cs),
(260,168,o),
(300,188,o),
(331,220,c),
(313,227,l),
(313,0,l)
);
}
);
width = 416;
},
{
layerId = "CBEC276F-1F9B-404D-BC73-2CB92054D876";
shapes = (
{
closed = 1;
nodes = (
(468,0,l),
(468,489,l),
(529,489,l),
(529,622,l),
(318,622,l),
(319,241,l),
(325,264,l),
(312,253,o),
(291,242,o),
(258,242,cs),
(219,242,o),
(196,270,o),
(177,341,c),
(148,266,l),
(194,307,o),
(224,358,o),
(224,434,cs),
(224,497,o),
(207,561,o),
(181,622,c),
(-7,622,l),
(-7,489,l),
(66,489,l),
(72,472,o),
(74,454,o),
(74,433,cs),
(74,389,o),
(53,352,o),
(21,320,c),
(65,173,o),
(139,109,o),
(256,109,cs),
(297,109,o),
(330,119,o),
(357,138,c),
(318,155,l),
(318,0,l)
);
}
);
width = 522;
},
{
layerId = "04B5D069-3E89-43E6-853C-EFCF876AEDC5";
shapes = (
{
closed = 1;
nodes = (
(382,0,l),
(382,554,l),
(453,554,l),
(453,622,l),
(307,622,l),
(307,223,l),
(317,238,l),
(289,217,o),
(264,204,o),
(224,204,cs),
(162,204,o),
(128,257,o),
(104,355,c),
(98,314,l),
(132,350,o),
(157,391,o),
(157,462,cs),
(157,512,o),
(141,569,o),
(120,622,c),
(-7,622,l),
(-7,554,l),
(63,554,l),
(74,523,o),
(82,492,o),
(82,461,cs),
(82,409,o),
(57,370,o),
(28,333,c),
(68,191,o),
(128,134,o),
(221,134,cs),
(265,134,o),
(297,145,o),
(324,163,c),
(307,183,l),
(307,0,l)
);
}
);
width = 446;
}
);
unicode = 2602;
},
{
glyphname = phaguru;
lastChange = "2020-02-26 16:12:49 +0000";
layers = (
{
anchors = (
{
name = Anchor2;
pos = (489,622);
}
);
layerId = UUID0;
shapes = (
{
closed = 1;
nodes = (
(482,0,o),
(537,49,o),
(537,127,cs),
(537,186,o),
(493,237,o),
(396,237,cs),
(274,237,o),
(194,165,o),
(144,100,c),
(204,67,l),
(247,116,o),
(311,166,o),
(388,166,cs),
(434,166,o),
(457,149,o),
(457,124,cs),
(457,86,o),
(419,69,o),
(341,69,cs),
(212,69,o),
(118,151,o),
(118,259,cs),
(118,284,o),
(124,306,o),
(141,320,cs),
(166,341,o),
(199,349,o),
(279,349,cs),
(460,349,l),
(489,378,l),
(489,551,l),
(586,551,l),
(586,622,l),
(-7,622,l),
(-7,551,l),
(408,551,l),
(408,420,l),
(268,420,ls),
(161,420,o),
(119,406,o),
(82,374,cs),
(54,350,o),
(37,311,o),
(37,264,cs),
(37,116,o),
(162,0,o),
(336,0,cs)
);
}
);
width = 579;
},
{
anchors = (
{
name = Anchor2;
pos = (551,622);
}
);
layerId = "397B4BA1-1DC1-423A-91EE-9CBCF179C3D0";
shapes = (
{
closed = 1;
nodes = (
(521,0,o),
(595,57,o),
(595,145,cs),
(595,220,o),
(537,274,o),
(425,274,cs),
(298,274,o),
(214,205,o),
(137,120,c),
(227,71,l),
(283,132,o),
(347,173,o),
(411,173,cs),
(447,173,o),
(465,166,o),
(465,144,cs),
(465,120,o),
(437,107,o),
(375,107,cs),
(264,107,o),
(167,167,o),
(167,253,cs),
(167,274,o),
(172,290,o),
(186,300,cs),
(208,316,o),
(222,320,o),
(297,320,cs),
(516,320,l),
(551,356,l),
(551,512,l),
(641,512,l),
(641,622,l),
(-7,622,l),
(-7,512,l),
(417,512,l),
(417,430,l),
(278,430,ls),
(203,430,o),
(128,422,o),
(82,382,cs),
(59,362,o),
(32,327,o),
(32,272,cs),
(32,107,o),
(176,0,o),
(369,0,cs)
);
}
);
width = 634;
},
{
anchors = (
{
name = Anchor2;
pos = (463,622);
}
);
layerId = "AD832606-5186-48BF-AC4A-95D20F9D6762";
shapes = (
{
closed = 1;
nodes = (
(428,0,o),
(486,49,o),
(486,117,cs),
(486,182,o),
(438,224,o),
(364,224,cs),
(264,224,o),
(181,150,o),
(136,91,c),
(154,73,l),
(205,137,o),
(277,198,o),
(365,198,cs),
(418,198,o),
(459,170,o),
(459,117,cs),
(459,62,o),
(409,26,o),
(316,26,cs),
(190,26,o),
(73,130,o),
(73,263,cs),
(73,300,o),
(84,327,o),
(104,347,cs),
(137,380,o),
(186,392,o),
(272,392,cs),
(420,392,l),
(437,407,l),
(437,596,l),
(544,596,l),
(544,622,l),
(-7,622,l),
(-7,596,l),
(411,596,l),
(411,418,l),
(272,418,ls),
(179,418,o),
(122,402,o),
(84,364,cs),
(60,340,o),
(46,307,o),
(46,264,cs),
(46,120,o),
(171,0,o),
(317,0,cs)
);
}
);
width = 537;
},
{
anchors = (
{
name = Anchor2;
pos = (584,622);
}
);
layerId = "F506C8C4-888D-41F0-91C9-49F2C7D2D9C4";
shapes = (
{
closed = 1;
nodes = (
(503,0,o),
(631,28,o),
(631,142,cs),
(631,213,o),
(581,270,o),
(452,270,cs),
(314,270,o),
(223,209,o),
(144,118,c),
(254,70,l),
(310,128,o),
(368,160,o),
(419,160,cs),
(443,160,o),
(456,155,o),
(456,141,cs),
(456,127,o),
(440,119,o),
(391,119,cs),
(306,119,o),
(201,169,o),
(201,248,cs),
(201,261,o),
(205,271,o),
(213,277,cs),
(226,287,o),
(241,291,o),
(286,291,cs),
(538,291,l),
(584,337,l),
(584,484,l),
(665,484,l),
(665,622,l),
(-7,622,l),
(-7,484,l),
(407,484,l),
(407,424,l),
(253,424,ls),
(163,424,o),
(119,410,o),
(81,381,cs),
(47,355,o),
(25,318,o),
(25,268,cs),
(25,96,o),
(185,0,o),
(381,0,cs)
);
}
);
width = 658;
},
{
anchors = (
{
name = Anchor2;
pos = (334,622);
}
);
layerId = "C86CFEE0-D181-456A-AA08-2B118FAF25CE";
shapes = (
{
closed = 1;
nodes = (
(314,0,o),
(367,37,o),
(367,111,cs),
(367,175,o),
(324,216,o),
(254,216,cs),
(189,216,o),
(134,182,o),
(80,111,c),
(96,93,l),
(146,154,o),
(197,190,o),
(254,190,cs),
(307,190,o),
(340,161,o),
(340,111,cs),
(340,55,o),
(301,26,o),
(239,26,cs),
(124,26,o),
(66,141,o),
(66,257,cs),
(66,300,o),
(77,331,o),
(100,353,cs),
(124,375,o),
(157,387,o),
(237,387,cs),
(318,387,l),
(334,403,l),
(334,596,l),
(418,596,l),
(418,622,l),
(-7,622,l),
(-7,596,l),
(308,596,l),
(308,413,l),
(232,413,ls),
(151,413,o),
(111,400,o),
(80,371,cs),
(53,346,o),
(39,308,o),
(39,257,cs),
(39,122,o),
(114,0,o),
(240,0,cs)
);
}
);
width = 411;
},
{
anchors = (
{
name = Anchor2;
pos = (467,622);
}
);
layerId = "CBEC276F-1F9B-404D-BC73-2CB92054D876";
shapes = (
{
closed = 1;
nodes = (
(451,0,o),
(506,65,o),
(506,144,cs),
(506,217,o),
(459,270,o),
(354,270,cs),
(253,270,o),
(190,224,o),
(120,146,c),
(184,70,l),
(244,131,o),
(279,162,o),
(325,162,cs),
(348,162,o),
(358,154,o),
(358,141,cs),
(358,124,o),
(343,119,o),
(310,119,cs),
(231,119,o),
(168,176,o),
(168,247,cs),
(168,261,o),
(171,271,o),
(181,280,cs),
(190,288,o),
(204,294,o),
(240,294,cs),
(415,294,l),
(470,340,l),
(470,489,l),
(533,489,l),
(533,622,l),
(-7,622,l),
(-7,489,l),
(320,489,l),
(320,424,l),
(239,424,ls),
(150,424,o),
(108,410,o),
(75,384,cs),
(42,358,o),
(20,318,o),
(20,258,cs),
(20,96,o),
(138,0,o),
(305,0,cs)
);
}
);
width = 526;
},
{
anchors = (
{
name = Anchor2;
pos = (373,622);
}
);
layerId = "04B5D069-3E89-43E6-853C-EFCF876AEDC5";
shapes = (
{
closed = 1;
nodes = (
(357,0,o),
(406,48,o),
(406,119,cs),
(406,176,o),
(367,232,o),
(277,232,cs),
(201,232,o),
(136,185,o),
(78,114,c),
(127,76,l),
(172,128,o),
(217,165,o),
(274,165,cs),
(311,165,o),
(332,147,o),
(332,117,cs),
(332,84,o),
(308,67,o),
(255,67,cs),
(157,67,o),
(104,165,o),
(104,256,cs),
(104,289,o),
(113,310,o),
(128,324,cs),
(152,346,o),
(183,352,o),
(257,352,cs),
(350,352,l),
(373,380,l),
(373,554,l),
(446,554,l),
(446,622,l),
(-7,622,l),
(-7,554,l),
(298,554,l),
(298,420,l),
(248,420,ls),
(152,420,o),
(111,407,o),
(75,376,cs),
(46,351,o),
(29,314,o),
(29,262,cs),
(29,133,o),
(110,0,o),
(254,0,cs)
);
}
);
width = 439;
}
);
unicode = 2603;
},
{
glyphname = baguru;
lastChange = "2020-02-26 16:12:49 +0000";
layers = (
{
layerId = UUID0;
shapes = (
{
closed = 1;
nodes = (
(88,145,o),
(173,69,o),
(307,69,cs),
(362,69,o),
(409,80,o),
(452,100,c),
(446,176,l),
(405,153,o),
(357,143,o),
(307,143,cs),
(218,143,o),
(162,183,o),
(122,268,c),
(120,225,l),
(172,294,o),
(231,322,o),
(313,322,cs),
(454,322,l),
(456,392,l),
(296,392,ls),
(233,392,o),
(206,401,o),
(182,423,cs),
(152,451,o),
(141,496,o),
(141,554,c),
(105,551,l),
(569,551,l),
(569,622,l),
(-7,622,l),
(-7,551,l),
(95,551,l),
(59,555,l),
(59,433,o),
(109,372,o),
(196,343,c),
(189,361,l),
(122,338,o),
(71,293,o),
(41,248,c)
);
},
{
closed = 1;
nodes = (
(519,0,l),
(519,551,l),
(616,551,l),
(616,622,l),
(342,622,l),
(342,551,l),
(438,551,l),
(438,0,l)
);
}
);
width = 608;
},
{
layerId = "397B4BA1-1DC1-423A-91EE-9CBCF179C3D0";
shapes = (
{
closed = 1;
nodes = (
(85,146,o),
(169,69,o),
(299,69,cs),
(354,69,o),
(398,77,o),
(449,100,c),
(443,215,l),
(413,196,o),
(365,182,o),
(315,182,cs),
(243,182,o),
(199,216,o),
(163,287,c),
(165,219,l),
(218,292,o),
(252,303,o),
(341,303,cs),
(446,303,l),
(448,411,l),
(320,411,ls),
(256,411,o),
(235,422,o),
(218,439,cs),
(196,462,o),
(187,501,o),
(187,549,c),
(161,512,l),
(573,512,l),
(573,622,l),
(-7,622,l),
(-7,512,l),
(75,512,l),
(51,531,l),
(51,449,o),
(90,372,o),
(179,342,c),
(187,369,l),
(127,348,o),
(64,296,o),
(33,251,c)
);
},
{
closed = 1;
nodes = (
(577,0,l),
(577,512,l),
(665,512,l),
(665,622,l),
(334,622,l),
(334,512,l),
(442,512,l),
(442,0,l)
);
}
);
width = 657;
},
{
layerId = "AD832606-5186-48BF-AC4A-95D20F9D6762";
shapes = (
{
closed = 1;
nodes = (
(93,163,o),
(171,95,o),
(289,95,cs),
(349,95,o),
(406,112,o),
(448,134,c),
(442,159,l),
(401,136,o),
(344,121,o),
(289,121,cs),
(183,121,o),
(112,183,o),
(72,265,c),
(68,240,l),
(118,314,o),
(173,370,o),
(292,370,cs),
(450,370,l),
(452,396,l),
(289,396,ls),
(211,396,o),
(175,411,o),
(147,435,cs),
(102,473,o),
(91,535,o),
(91,612,c),
(83,596,l),
(510,596,l),
(510,622,l),
(-7,622,l),
(-7,596,l),
(73,596,l),
(65,609,l),
(65,471,o),
(106,390,o),
(242,378,c),
(252,385,l),
(155,381,o),
(105,337,o),
(47,256,c)
);
},
{
closed = 1;
nodes = (
(465,0,l),
(465,596,l),
(572,596,l),
(572,622,l),
(326,622,l),
(326,596,l),
(439,596,l),
(439,0,l)
);
}
);
width = 565;
},
{
layerId = "F506C8C4-888D-41F0-91C9-49F2C7D2D9C4";
shapes = (
{
closed = 1;
nodes = (
(86,113,o),
(188,53,o),
(311,53,cs),
(381,53,o),
(424,64,o),
(472,86,c),
(465,235,l),
(427,206,o),
(386,191,o),
(325,191,cs),
(259,191,o),
(220,225,o),
(199,281,c),
(198,202,l),
(240,259,o),
(272,277,o),
(342,277,cs),
(464,277,l),
(466,410,l),
(342,410,ls),
(282,410,o),
(260,416,o),
(243,431,cs),
(229,443,o),
(223,465,o),
(223,490,c),
(169,484,l),
(564,484,l),
(581,622,l),
(-7,622,l),
(-7,484,l),
(83,484,l),
(46,498,l),
(46,398,o),
(106,342,o),
(185,324,c),
(204,367,l),
(128,352,o),
(70,306,o),
(28,242,c)
);
},
{
closed = 1;
nodes = (
(620,0,l),
(620,484,l),
(697,484,l),
(697,622,l),
(352,622,l),
(352,484,l),
(443,484,l),
(443,0,l)
);
}
);
width = 690;
},
{
layerId = "C86CFEE0-D181-456A-AA08-2B118FAF25CE";
shapes = (
{
closed = 1;
nodes = (
(82,155,o),
(129,95,o),
(227,95,cs),
(270,95,o),
(303,105,o),
(345,128,c),
(340,154,l),
(297,130,o),
(274,121,o),
(227,121,cs),
(145,121,o),
(110,164,o),
(67,265,c),
(65,242,l),
(109,331,o),
(158,370,o),
(245,370,cs),
(346,370,l),
(348,396,l),
(235,396,ls),
(177,396,o),
(152,407,o),
(131,425,cs),
(97,454,o),
(82,506,o),
(82,600,c),
(69,596,l),
(281,596,l),
(280,622,l),
(-7,622,l),
(-7,596,l),
(61,596,l),
(56,600,l),
(56,473,o),
(82,386,o),
(203,375,c),
(194,383,l),
(124,378,o),
(74,324,o),
(42,256,c)
);
},
{
closed = 1;
nodes = (
(352,0,l),
(352,596,l),
(436,596,l),
(436,622,l),
(241,622,l),
(241,596,l),
(326,596,l),
(326,0,l)
);
}
);
width = 429;
},
{
layerId = "CBEC276F-1F9B-404D-BC73-2CB92054D876";
shapes = (
{
closed = 1;
nodes = (
(63,98,o),
(171,55,o),
(263,55,cs),
(308,55,o),
(347,64,o),
(385,86,c),
(381,222,l),
(347,199,o),
(313,188,o),
(278,188,cs),
(216,188,o),
(191,209,o),
(166,276,c),
(168,208,l),
(202,264,o),
(232,279,o),
(295,279,cs),
(364,279,l),
(366,408,l),
(287,408,ls),
(240,408,o),
(223,412,o),
(208,423,cs),
(190,437,o),
(183,460,o),
(183,498,c),
(127,489,l),
(457,489,l),
(457,622,l),
(-7,622,l),
(-7,489,l),
(59,489,l),
(33,498,l),
(33,405,o),
(80,352,o),
(151,319,c),
(169,367,l),
(108,346,o),
(59,314,o),
(20,238,c)
);
},
{
closed = 1;
nodes = (
(483,0,l),
(483,489,l),
(544,489,l),
(544,622,l),
(248,622,l),
(248,489,l),
(333,489,l),
(333,0,l)
);
}
);
width = 537;
},
{
layerId = "04B5D069-3E89-43E6-853C-EFCF876AEDC5";
shapes = (
{
closed = 1;
nodes = (
(74,130,o),
(125,70,o),
(232,70,cs),
(263,70,o),
(298,74,o),
(332,93,c),
(334,168,l),
(304,151,o),
(273,141,o),
(235,141,cs),
(171,141,o),
(135,174,o),
(103,267,c),
(105,225,l),
(142,295,o),
(182,324,o),
(260,324,cs),
(325,324,l),
(327,391,l),
(255,391,ls),
(204,391,o),
(181,395,o),
(160,412,cs),
(133,434,o),
(120,481,o),
(120,561,c),
(97,554,l),
(412,554,l),
(412,622,l),
(-7,622,l),
(-7,554,l),
(65,554,l),
(44,564,l),
(44,435,o),
(79,369,o),
(161,341,c),
(164,361,l),
(104,349,o),
(64,309,o),
(30,247,c)
);
},
{
closed = 1;
nodes = (
(394,0,l),
(394,554,l),
(465,554,l),
(465,622,l),
(246,622,l),
(246,554,l),
(319,554,l),
(319,0,l)
);
}
);
width = 458;
}
);
unicode = 2604;
},
{
glyphname = bhaguru;
lastChange = "2020-02-26 16:12:49 +0000";
layers = (
{
anchors = (
{
name = Anchor2;
pos = (478,622);
},
{
name = Anchor4;
pos = (261,0);
},
{
name = Anchor6;
pos = (359,0);
}
);
layerId = UUID0;
shapes = (
{
closed = 1;
nodes = (
(414,0,o),
(512,67,o),
(512,203,cs),
(512,259,o),
(491,314,o),
(444,366,c),
(431,377,l),
(383,429,o),
(316,463,o),
(227,463,cs),
(116,463,o),
(62,412,o),
(62,344,cs),
(62,273,o),
(118,226,o),
(230,226,cs),
(324,226,o),
(390,258,o),
(437,312,c),
(448,322,l),
(488,364,o),
(503,416,o),
(503,463,cs),
(503,510,o),
(495,547,o),
(487,565,c),
(456,551,l),
(584,551,l),
(584,622,l),
(-7,622,l),
(-7,551,l),
(445,551,l),
(401,567,l),
(414,547,o),
(424,509,o),
(424,467,cs),
(424,404,o),
(389,297,o),
(229,297,cs),
(168,297,o),
(142,315,o),
(142,345,cs),
(142,369,o),
(164,392,o),
(228,392,cs),
(334,392,o),
(432,315,o),
(432,207,cs),
(432,112,o),
(369,72,o),
(258,72,cs),
(171,72,o),
(110,96,o),
(45,138,c),
(13,64,l),
(78,26,o),
(160,0,o),
(255,0,cs)
);
}
);
width = 577;
},
{
anchors = (
{
name = Anchor2;
pos = (536,622);
},
{
name = Anchor4;
pos = (308,0);
},
{
name = Anchor6;
pos = (378,0);
}
);
layerId = "397B4BA1-1DC1-423A-91EE-9CBCF179C3D0";
shapes = (
{
closed = 1;
nodes = (
(474,0,o),
(578,68,o),
(578,204,cs),
(578,264,o),
(552,322,o),
(492,369,c),
(477,382,l),
(417,432,o),
(346,461,o),
(255,461,cs),
(127,461,o),
(62,401,o),
(62,324,cs),
(62,241,o),
(127,187,o),
(258,187,cs),
(354,187,o),
(422,217,o),
(473,262,c),
(487,275,l),
(544,327,o),
(570,373,o),
(570,437,cs),
(570,470,o),
(564,499,o),
(553,523,c),
(514,512,l),
(638,512,l),
(638,622,l),
(-7,622,l),
(-7,512,l),
(480,512,l),
(402,526,l),
(422,515,o),
(436,475,o),
(436,436,cs),
(436,386,o),
(413,292,o),
(253,292,cs),
(217,292,o),
(191,299,o),
(191,324,cs),
(191,345,o),
(210,356,o),
(257,356,cs),
(359,356,o),
(446,302,o),
(446,218,cs),
(446,146,o),
(395,111,o),
(275,111,cs),
(201,111,o),
(126,132,o),
(53,172,c),
(13,64,l),
(76,28,o),
(178,0,o),
(283,0,cs)
);
}
);
width = 631;
},
{
anchors = (
{
name = Anchor2;
pos = (454,622);
},
{
name = Anchor4;
pos = (255,0);
},
{
name = Anchor6;
pos = (351,0);
}
);
layerId = "AD832606-5186-48BF-AC4A-95D20F9D6762";
shapes = (
{
closed = 1;
nodes = (
(375,0,o),
(459,68,o),
(459,204,cs),
(459,263,o),
(441,317,o),
(406,359,c),
(402,365,l),
(352,424,o),
(283,456,o),
(205,456,cs),
(112,456,o),
(66,409,o),
(66,348,cs),
(66,274,o),
(127,238,o),
(205,238,cs),
(293,238,o),
(361,275,o),
(405,337,c),
(408,342,l),
(436,383,o),
(450,432,o),
(450,485,cs),
(450,535,o),
(443,570,o),
(431,605,c),
(425,596,l),
(538,596,l),
(538,622,l),
(-7,622,l),
(-7,596,l),
(416,596,l),
(403,605,l),
(417,570,o),
(424,533,o),
(424,483,cs),
(424,372,o),
(350,264,o),
(205,264,cs),
(142,264,o),
(93,290,o),
(93,348,cs),
(93,398,o),
(132,430,o),
(205,430,cs),
(327,430,o),
(432,343,o),
(432,203,cs),
(432,80,o),
(356,26,o),
(234,26,cs),
(162,26,o),
(85,53,o),
(26,95,c),
(15,72,l),
(64,35,o),
(150,0,o),
(234,0,cs)
);
}
);
width = 531;
},
{
anchors = (
{
name = Anchor2;
pos = (581,622);
},
{
name = Anchor4;
pos = (308,0);
},
{
name = Anchor6;
pos = (362,0);
}
);
layerId = "F506C8C4-888D-41F0-91C9-49F2C7D2D9C4";
shapes = (
{
closed = 1;
nodes = (
(500,0,o),
(610,68,o),
(610,205,cs),
(610,275,o),
(576,336,o),
(511,382,c),
(483,389,l),
(419,438,o),
(347,460,o),
(260,460,cs),
(117,460,o),
(53,402,o),
(53,324,cs),
(53,241,o),
(119,183,o),
(269,183,cs),
(367,183,o),
(434,210,o),
(491,256,c),
(521,271,l),
(579,323,o),
(601,382,o),
(601,437,cs),
(601,469,o),
(595,499,o),
(584,523,c),
(539,484,l),
(659,484,l),
(659,622,l),
(-7,622,l),
(-7,484,l),
(485,484,l),
(392,540,l),
(418,500,o),
(426,469,o),
(426,424,cs),
(426,352,o),
(373,301,o),
(271,301,cs),
(246,301,o),
(227,306,o),
(227,321,cs),
(227,337,o),
(246,342,o),
(272,342,cs),
(354,342,o),
(438,299,o),
(438,220,cs),
(438,169,o),
(397,138,o),
(284,138,cs),
(216,138,o),
(141,157,o),
(59,201,c),
(12,66,l),
(95,23,o),
(199,0,o),
(300,0,cs)
);
}
);
width = 652;
},
{
anchors = (
{
name = Anchor2;
pos = (315,622);
},
{
name = Anchor4;
pos = (184,0);
},
{
name = Anchor6;
pos = (249,0);
}
);
layerId = "C86CFEE0-D181-456A-AA08-2B118FAF25CE";
shapes = (
{
closed = 1;
nodes = (
(285,0,o),
(348,67,o),
(348,202,cs),
(348,268,o),
(335,311,o),
(315,353,c),
(310,359,l),
(276,425,o),
(226,456,o),
(163,456,cs),
(91,456,o),
(48,411,o),
(48,348,cs),
(48,277,o),
(93,238,o),
(168,238,cs),
(232,238,o),
(275,264,o),
(307,318,c),
(311,325,l),
(332,366,o),
(341,416,o),
(341,470,cs),
(341,520,o),
(331,571,o),
(319,606,c),
(311,596,l),
(411,596,l),
(411,622,l),
(-7,622,l),
(-7,596,l),
(300,596,l),
(291,605,l),
(305,570,o),
(315,526,o),
(315,470,cs),
(315,338,o),
(264,264,o),
(168,264,cs),
(108,264,o),
(75,293,o),
(75,348,cs),
(75,396,o),
(105,430,o),
(163,430,cs),
(268,430,o),
(321,325,o),
(321,203,cs),
(321,84,o),
(267,26,o),
(164,26,cs),
(110,26,o),
(65,42,o),
(21,71,c),
(10,46,l),
(52,21,o),
(99,0,o),
(164,0,cs)
);
}
);
width = 404;
},
{
anchors = (
{
name = Anchor2;
pos = (475,622);
},
{
name = Anchor4;
pos = (247,0);
},
{
name = Anchor6;
pos = (278,0);
}
);
layerId = "CBEC276F-1F9B-404D-BC73-2CB92054D876";
shapes = (
{
closed = 1;
nodes = (
(402,0,o),
(485,74,o),
(485,207,cs),
(485,278,o),
(458,336,o),
(412,386,c),
(379,394,l),
(335,436,o),
(287,460,o),
(218,460,cs),
(94,460,o),
(46,395,o),
(46,323,cs),
(46,232,o),
(118,183,o),
(222,183,cs),
(296,183,o),
(340,206,o),
(376,243,c),
(416,269,l),
(457,317,o),
(478,382,o),
(478,448,cs),
(478,479,o),
(473,513,o),
(464,537,c),
(428,489,l),
(532,489,l),
(532,622,l),
(-7,622,l),
(-7,489,l),
(386,489,l),
(311,553,l),
(330,511,o),
(333,479,o),
(333,448,cs),
(333,355,o),
(302,300,o),
(233,300,cs),
(207,300,o),
(194,306,o),
(194,322,cs),
(194,338,o),
(207,343,o),
(228,343,cs),
(297,343,o),
(339,267,o),
(339,213,cs),
(339,160,o),
(310,133,o),
(229,133,cs),
(173,133,o),
(126,143,o),
(59,173,c),
(11,52,l),
(93,15,o),
(155,0,o),
(230,0,cs)
);
}
);
width = 525;
},
{
anchors = (
{
name = Anchor2;
pos = (363,622);
},
{
name = Anchor4;
pos = (199,0);
},
{
name = Anchor6;
pos = (263,0);
}
);
layerId = "04B5D069-3E89-43E6-853C-EFCF876AEDC5";
shapes = (
{
closed = 1;
nodes = (
(310,0,o),
(393,61,o),
(393,207,cs),
(393,261,o),
(376,322,o),
(342,369,c),
(328,382,l),
(289,433,o),
(239,461,o),
(179,461,cs),
(94,461,o),
(48,411,o),
(48,343,cs),
(48,276,o),
(98,227,o),
(181,227,cs),
(241,227,o),
(280,249,o),
(316,292,c),
(336,306,l),
(367,348,o),
(386,403,o),
(386,466,cs),
(386,506,o),
(379,543,o),
(372,568,c),
(349,554,l),
(444,554,l),
(444,622,l),
(-7,622,l),
(-7,554,l),
(334,554,l),
(289,581,l),
(303,545,o),
(312,511,o),
(312,464,cs),
(312,403,o),
(287,294,o),
(188,294,cs),
(144,294,o),
(122,313,o),
(122,345,cs),
(122,370,o),
(136,394,o),
(182,394,cs),
(263,394,o),
(318,304,o),
(318,204,cs),
(318,104,o),
(264,69,o),
(181,69,cs),
(128,69,o),
(90,85,o),
(40,116,c),
(11,50,l),
(67,19,o),
(122,0,o),
(177,0,cs)
);
}
);
width = 437;
}
);
unicode = 2605;
},
{
glyphname = maguru;
lastChange = "2020-02-26 16:12:49 +0000";
layers = (
{
layerId = UUID0;
shapes = (
{
closed = 1;
nodes = (
(507,0,l),
(507,551,l),
(603,551,l),
(603,622,l),
(426,622,l),
(426,332,l),
(193,332,l),
(192,423,o),
(167,529,o),
(130,622,c),
(-7,622,l),
(-7,551,l),
(67,551,l),
(97,470,o),
(115,374,o),
(119,288,c),
(70,233,o),
(58,168,o),
(58,139,cs),
(58,94,o),
(78,81,o),
(105,81,cs),
(158,81,o),
(187,151,o),
(192,261,c),
(426,261,l),
(426,0,l)
);
}
);
width = 596;
},
{
layerId = "397B4BA1-1DC1-423A-91EE-9CBCF179C3D0";
shapes = (
{
closed = 1;
nodes = (
(551,0,l),
(551,512,l),
(639,512,l),
(639,622,l),
(417,622,l),
(417,328,l),
(230,328,l),
(230,417,o),
(204,518,o),
(164,622,c),
(-7,622,l),
(-7,512,l),
(59,512,l),
(84,442,o),
(104,361,o),
(107,284,c),
(56,230,o),
(42,181,o),
(42,147,cs),
(42,89,o),
(78,66,o),
(120,66,cs),
(184,66,o),
(225,113,o),
(229,218,c),
(417,218,l),
(417,0,l)
);
}
);
width = 631;
},
{
layerId = "AD832606-5186-48BF-AC4A-95D20F9D6762";
shapes = (
{
closed = 1;
nodes = (
(444,0,l),
(444,596,l),
(551,596,l),
(551,622,l),
(418,622,l),
(418,327,l),
(155,327,l),
(153,409,o),
(126,527,o),
(91,622,c),
(-7,622,l),
(-7,596,l),
(71,596,l),
(102,515,o),
(128,397,o),
(129,311,c),
(101,264,o),
(68,189,o),
(68,147,cs),
(68,132,o),
(73,122,o),
(84,122,cs),
(112,122,o),
(145,198,o),
(154,301,c),
(418,301,l),
(418,0,l)
);
}
);
width = 544;
},
{
layerId = "F506C8C4-888D-41F0-91C9-49F2C7D2D9C4";
shapes = (
{
closed = 1;
nodes = (
(595,0,l),
(595,484,l),
(672,484,l),
(672,622,l),
(418,622,l),
(418,335,l),
(265,335,l),
(264,413,o),
(232,541,o),
(195,622,c),
(-7,622,l),
(-7,484,l),
(51,484,l),
(73,435,o),
(92,347,o),
(97,285,c),
(49,235,o),
(32,195,o),
(32,146,cs),
(32,95,o),
(59,50,o),
(130,50,cs),
(206,50,o),
(257,99,o),
(263,197,c),
(418,197,l),
(418,0,l)
);
}
);
width = 665;
},
{
layerId = "C86CFEE0-D181-456A-AA08-2B118FAF25CE";
shapes = (
{
closed = 1;
nodes = (
(335,0,l),
(335,596,l),
(419,596,l),
(419,622,l),
(309,622,l),
(309,325,l),
(121,325,l),
(119,407,o),
(97,531,o),
(72,622,c),
(-7,622,l),
(-7,596,l),
(52,596,l),
(75,515,o),
(95,395,o),
(95,309,c),
(74,262,o),
(52,193,o),
(52,152,cs),
(52,130,o),
(60,125,o),
(69,125,cs),
(92,125,o),
(109,186,o),
(120,299,c),
(309,299,l),
(309,0,l)
);
}
);
width = 412;
},
{
layerId = "CBEC276F-1F9B-404D-BC73-2CB92054D876";
shapes = (
{
closed = 1;
nodes = (
(487,0,l),
(487,489,l),
(548,489,l),
(548,622,l),
(337,622,l),
(337,338,l),
(229,338,l),
(229,417,o),
(202,545,o),
(174,622,c),
(-7,622,l),
(-7,489,l),
(52,489,l),
(72,439,o),
(84,379,o),
(84,311,c),
(41,253,o),
(21,193,o),
(21,145,cs),
(21,82,o),
(56,50,o),
(108,50,cs),
(180,50,o),
(210,109,o),
(222,200,c),
(337,200,l),
(337,0,l)
);
}
);
width = 541;
},
{
layerId = "04B5D069-3E89-43E6-853C-EFCF876AEDC5";
shapes = (
{
closed = 1;
nodes = (
(375,0,l),
(375,554,l),
(446,554,l),
(446,622,l),
(300,622,l),
(300,332,l),
(154,332,l),
(154,423,o),
(137,537,o),
(112,622,c),
(-7,622,l),
(-7,554,l),
(51,554,l),
(71,473,o),
(82,375,o),
(85,289,c),
(53,234,o),
(39,178,o),
(39,143,cs),
(39,96,o),
(64,84,o),
(85,84,cs),
(131,84,o),
(150,154,o),
(154,264,c),
(300,264,l),
(300,0,l)
);
}
);
width = 439;
}
);
unicode = 2606;
},
{
glyphname = yaguru;
lastChange = "2020-02-26 16:12:49 +0000";
layers = (
{
layerId = UUID0;
shapes = (
{
closed = 1;
nodes = (
(606,0,l),
(606,551,l),
(703,551,l),
(703,622,l),
(-7,622,l),
(-7,551,l),
(84,551,l),
(99,525,o),
(108,486,o),
(108,457,cs),
(108,401,o),
(78,362,o),
(38,327,c),
(88,201,o),
(166,120,o),
(284,120,cs),
(325,120,o),
(367,126,o),
(396,136,c),
(396,299,l),
(525,299,l),
(525,0,l)
);
},
{
closed = 1;
nodes = (
(315,195,l),
(307,194,o),
(298,193,o),
(284,193,cs),
(206,193,o),
(161,246,o),
(119,352,c),
(115,307,l),
(158,339,o),
(188,385,o),
(188,457,cs),
(188,485,o),
(182,518,o),
(169,551,c),
(525,551,l),
(525,371,l),
(315,371,l)
);
}
);
width = 695;
},
{
layerId = "397B4BA1-1DC1-423A-91EE-9CBCF179C3D0";
shapes = (
{
closed = 1;
nodes = (
(683,0,l),
(683,512,l),
(771,512,l),
(771,622,l),
(-7,622,l),
(-7,512,l),
(85,512,l),
(96,494,o),
(101,465,o),
(101,439,cs),
(101,383,o),
(67,346,o),
(31,321,c),
(87,185,o),
(171,107,o),
(308,107,cs),
(359,107,o),
(398,110,o),
(451,126,c),
(451,269,l),
(549,269,l),
(549,0,l)
);
},
{
closed = 1;
nodes = (
(318,219,l),
(316,219,o),
(315,219,o),
(313,219,cs),
(246,219,o),
(195,265,o),
(168,370,c),
(157,285,l),
(206,333,o),
(234,376,o),
(234,449,cs),
(234,470,o),
(231,491,o),
(225,512,c),
(549,512,l),
(549,374,l),
(318,374,l)
);
}
);
width = 763;
},
{
guides = (
{
pos = (165,596);
}
);
layerId = "AD832606-5186-48BF-AC4A-95D20F9D6762";
shapes = (
{
closed = 1;
nodes = (
(544,0,l),
(544,596,l),
(651,596,l),
(651,622,l),
(-7,622,l),
(-7,596,l),
(95,596,l),
(111,564,o),
(123,527,o),
(123,477,cs),
(123,414,o),
(97,373,o),
(50,327,c),
(102,201,o),
(181,156,o),
(270,156,cs),
(303,156,o),
(328,161,o),
(352,167,c),
(352,351,l),
(518,351,l),
(518,0,l)
);
},
{
closed = 1;
nodes = (
(326,187,l),
(309,184,o),
(295,182,o),
(270,182,cs),
(180,182,o),
(114,237,o),
(78,328,c),
(77,316,l),
(122,364,o),
(150,409,o),
(150,477,cs),
(150,527,o),
(140,558,o),
(125,596,c),
(518,596,l),
(518,377,l),
(326,377,l)
);
}
);
width = 644;
},
{
layerId = "F506C8C4-888D-41F0-91C9-49F2C7D2D9C4";
shapes = (
{
closed = 1;
nodes = (
(739,0,l),
(739,484,l),
(816,484,l),
(816,622,l),
(-7,622,l),
(-7,484,l),
(81,484,l),
(89,467,o),
(92,450,o),
(92,432,cs),
(92,381,o),
(66,353,o),
(25,324,c),
(97,160,o),
(185,97,o),
(322,97,cs),
(391,97,o),
(438,104,o),
(498,125,c),
(498,237,l),
(562,237,l),
(562,0,l)
);
},
{
closed = 1;
nodes = (
(328,233,l),
(327,233,o),
(325,233,o),
(325,233,cs),
(274,233,o),
(239,267,o),
(214,328,c),
(182,272,l),
(244,319,o),
(269,374,o),
(269,443,cs),
(269,459,o),
(267,472,o),
(265,484,c),
(562,484,l),
(562,374,l),
(328,374,l)
);
}
);
width = 809;
},
{
guides = (
{
pos = (121,596);
}
);
layerId = "C86CFEE0-D181-456A-AA08-2B118FAF25CE";
shapes = (
{
closed = 1;
nodes = (
(411,0,l),
(411,596,l),
(495,596,l),
(495,622,l),
(-7,622,l),
(-7,596,l),
(65,596,l),
(79,567,o),
(92,520,o),
(92,472,cs),
(92,410,o),
(74,376,o),
(39,330,c),
(77,207,o),
(124,156,o),
(208,156,cs),
(231,156,o),
(247,159,o),
(266,164,c),
(266,351,l),
(385,351,l),
(385,0,l)
);
},
{
closed = 1;
nodes = (
(240,185,l),
(230,183,o),
(222,182,o),
(209,182,cs),
(130,182,o),
(95,234,o),
(65,336,c),
(59,313,l),
(99,366,o),
(119,401,o),
(119,472,cs),
(119,518,o),
(107,557,o),
(94,596,c),
(385,596,l),
(385,377,l),
(240,377,l)
);
}
);
width = 488;
},
{
layerId = "CBEC276F-1F9B-404D-BC73-2CB92054D876";
shapes = (
{
closed = 1;
nodes = (
(599,0,l),
(599,489,l),
(660,489,l),
(660,622,l),
(-7,622,l),
(-7,489,l),
(66,489,l),
(72,472,o),
(74,454,o),
(74,431,cs),
(74,383,o),
(53,346,o),
(21,314,c),
(67,161,o),
(137,97,o),
(265,97,cs),
(305,97,o),
(356,104,o),
(396,117,c),
(396,240,l),
(449,240,l),
(449,0,l)
);
},
{
closed = 1;
nodes = (
(256,229,l),
(256,229,o),
(255,229,o),
(255,229,c),
(218,230,o),
(197,258,o),
(177,335,c),
(148,260,l),
(194,301,o),
(224,352,o),
(224,432,cs),
(224,457,o),
(222,475,o),
(220,489,c),
(449,489,l),
(449,372,l),
(256,372,l)
);
}
);
width = 653;
},
{
layerId = "04B5D069-3E89-43E6-853C-EFCF876AEDC5";
shapes = (
{
closed = 1;
nodes = (
(462,0,l),
(462,554,l),
(533,554,l),
(533,622,l),
(-7,622,l),
(-7,554,l),
(63,554,l),
(74,523,o),
(82,492,o),
(82,459,cs),
(82,403,o),
(57,364,o),
(28,327,c),
(70,181,o),
(130,126,o),
(222,126,cs),
(247,126,o),
(277,129,o),
(305,139,c),
(305,302,l),
(387,302,l),
(387,0,l)
);
},
{
closed = 1;
nodes = (
(230,195,l),
(225,194,o),
(222,194,o),
(221,194,cs),
(162,194,o),
(128,251,o),
(104,349,c),
(98,308,l),
(132,344,o),
(157,385,o),
(157,460,cs),
(157,495,o),
(151,522,o),
(143,554,c),
(387,554,l),
(387,370,l),
(230,370,l)
);
}
);
width = 526;
}
);
unicode = 2607;
},
{
glyphname = raguru;
lastChange = "2020-02-26 16:12:49 +0000";
layers = (
{
anchors = (
{
name = Anchor6;
pos = (360,0);
}
);
layerId = UUID0;
shapes = (
{
closed = 1;
nodes = (
(433,0,o),
(490,56,o),
(490,172,cs),
(490,551,l),
(586,551,l),
(586,622,l),
(-7,622,l),
(-7,551,l),
(409,551,l),
(409,408,l),
(272,408,ls),
(165,408,o),
(118,394,o),
(82,363,cs),
(55,339,o),
(37,306,o),
(37,258,cs),
(37,126,o),
(167,0,o),
(310,0,cs)
);
},
{
closed = 1;
nodes = (
(219,73,o),
(118,166,o),
(118,252,cs),
(118,276,o),
(124,296,o),
(141,311,cs),
(164,331,o),
(199,337,o),
(282,337,cs),
(409,337,l),
(409,183,ls),
(409,128,o),
(402,110,o),
(390,96,cs),
(374,78,o),
(347,73,o),
(317,73,cs)
);
}
);
width = 579;
},
{
anchors = (
{
name = Anchor6;
pos = (353,0);
}
);
layerId = "397B4BA1-1DC1-423A-91EE-9CBCF179C3D0";
shapes = (
{
closed = 1;
nodes = (
(474,0,o),
(543,51,o),
(543,175,cs),
(543,512,l),
(630,512,l),
(630,622,l),
(-7,622,l),
(-7,512,l),
(409,512,l),
(409,420,l),
(278,420,ls),
(173,420,o),
(120,405,o),
(82,373,cs),
(53,348,o),
(32,311,o),
(32,265,cs),
(32,124,o),
(171,0,o),
(339,0,cs)
);
},
{
closed = 1;
nodes = (
(252,110,o),
(167,184,o),
(167,246,cs),
(167,264,o),
(171,279,o),
(185,290,cs),
(205,305,o),
(230,310,o),
(297,310,cs),
(409,310,l),
(409,188,ls),
(409,149,o),
(403,137,o),
(393,127,cs),
(379,114,o),
(360,110,o),
(333,110,cs)
);
}
);
width = 623;
},
{
anchors = (
{
name = Anchor6;
pos = (355,0);
}
);
layerId = "AD832606-5186-48BF-AC4A-95D20F9D6762";
shapes = (
{
closed = 1;
nodes = (
(404,0,o),
(426,60,o),
(426,143,cs),
(426,596,l),
(533,596,l),
(533,622,l),
(-7,622,l),
(-7,596,l),
(400,596,l),
(400,397,l),
(218,397,ls),
(146,397,o),
(109,383,o),
(82,356,cs),
(59,333,o),
(46,302,o),
(46,260,cs),
(46,138,o),
(180,0,o),
(307,0,cs)
);
},
{
closed = 1;
nodes = (
(196,26,o),
(73,151,o),
(73,259,cs),
(73,294,o),
(83,320,o),
(102,339,cs),
(123,360,o),
(155,371,o),
(222,371,cs),
(400,371,l),
(400,154,ls),
(400,104,o),
(395,71,o),
(376,50,cs),
(364,37,o),
(347,26,o),
(306,26,cs)
);
}
);
width = 526;
},
{
anchors = (
{
name = Anchor6;
pos = (347,0);
}
);
layerId = "F506C8C4-888D-41F0-91C9-49F2C7D2D9C4";
shapes = (
{
closed = 1;
nodes = (
(508,0,o),
(579,52,o),
(579,193,cs),
(579,484,l),
(656,484,l),
(656,622,l),
(-7,622,l),
(-7,484,l),
(405,484,l),
(405,425,l),
(271,425,ls),
(167,425,o),
(112,408,o),
(72,373,cs),
(44,348,o),
(25,311.992,o),
(25,265,cs),
(25,112,o),
(179,0,o),
(353,0,cs)
);
},
{
closed = 1;
nodes = (
(283,139,o),
(203,191,o),
(203,246,cs),
(203,258,o),
(206,267,o),
(214,274,cs),
(224,282,o),
(234,287,o),
(271,287,cs),
(402,287,l),
(402,203,ls),
(402,172,o),
(399,159,o),
(391,151,cs),
(382,142,o),
(369,139,o),
(344,139,cs)
);
}
);
width = 649;
},
{
anchors = (
{
name = Anchor6;
pos = (263,0);
}
);
layerId = "C86CFEE0-D181-456A-AA08-2B118FAF25CE";
shapes = (
{
closed = 1;
nodes = (
(306,0,o),
(333,42,o),
(333,124,cs),
(333,596,l),
(417,596,l),
(417,622,l),
(-7,622,l),
(-7,596,l),
(307,596,l),
(307,398,l),
(200,398,ls),
(137,398,o),
(108,388,o),
(85,371,cs),
(53,347,o),
(39,308,o),
(39,261,cs),
(39,133,o),
(122,0,o),
(233,0,cs)
);
},
{
closed = 1;
nodes = (
(142,26,o),
(66,143,o),
(66,261,cs),
(66,300,o),
(75,331,o),
(101,350,cs),
(119,363,o),
(142,372,o),
(205,372,cs),
(307,372,l),
(307,141,ls),
(307,92,o),
(303,61,o),
(285,43,cs),
(275,32,o),
(259,26,o),
(233,26,cs)
);
}
);
width = 410;
},
{
anchors = (
{
name = Anchor6;
pos = (264,0);
}
);
layerId = "CBEC276F-1F9B-404D-BC73-2CB92054D876";
shapes = (
{
closed = 1;
nodes = (
(417,0,o),
(454,76,o),
(454,155,cs),
(454,489,l),
(515,489,l),
(515,622,l),
(-7,622,l),
(-7,489,l),
(307,489,l),
(307,424,l),
(231,424,ls),
(138,424,o),
(101,411,o),
(69,386,cs),
(38,362,o),
(20,325,o),
(20,277,cs),
(20,140,o),
(126,0,o),
(279,0,cs)
);
},
{
closed = 1;
nodes = (
(231,133,o),
(171,186,o),
(171,252,cs),
(171,266,o),
(175,275,o),
(183,282,cs),
(191,289,o),
(202,292,o),
(235,292,cs),
(304,292,l),
(304,179,ls),
(304,155,o),
(302,147,o),
(297,141,cs),
(292,136,o),
(286,133,o),
(271,133,cs)
);
}
);
width = 508;
},
{
anchors = (
{
name = Anchor6;
pos = (255,0);
}
);
layerId = "04B5D069-3E89-43E6-853C-EFCF876AEDC5";
shapes = (
{
closed = 1;
nodes = (
(330,0,o),
(369,59,o),
(369,146,cs),
(369,554,l),
(440,554,l),
(440,622,l),
(-7,622,l),
(-7,554,l),
(294,554,l),
(294,405,l),
(212,405,ls),
(141,405,o),
(103,395,o),
(76,375,cs),
(48,354,o),
(29,321,o),
(29,268,cs),
(29,132,o),
(115,0,o),
(240,0,cs)
);
},
{
closed = 1;
nodes = (
(165,69,o),
(104,160,o),
(104,262,cs),
(104,291,o),
(112,307,o),
(125,318,cs),
(141,331,o),
(163,337,o),
(216,337,cs),
(294,337,l),
(294,159,ls),
(294,114,o),
(290,96,o),
(279,84,cs),
(270,74,o),
(257,69,o),
(239,69,cs)
);
}
);
width = 433;
}
);
unicode = 2608;
},
{
glyphname = laguru;
lastChange = "2020-02-26 16:12:49 +0000";
layers = (
{
anchors = (
{
name = Anchor2;
pos = (557,622);
},
{
name = Anchor4;
pos = (337,0);
},
{
name = Anchor6;
pos = (479,0);
}
);
layerId = UUID0;
shapes = (
{
closed = 1;
nodes = (
(451,315,o),
(535,426,o),
(557,551,c),
(681,551,l),
(681,622,l),
(-7,622,l),
(-7,551,l),
(117,551,l),
(138,430,o),
(226,311,o),
(337,250,c)
);
},
{
closed = 1;
nodes = (
(458,445,o),
(395,367,o),
(318,323,c),
(356,322,l),
(279,370,o),
(215,445,o),
(199,551,c),
(475,551,l)
);
},
{
closed = 1;
nodes = (
(39,116,o),
(83,0,o),
(248,0,cs),
(254,0,l),
(259,73,l),
(254,73,ls),
(159,73,o),
(119,123,o),
(119,195,cs),
(119,268,o),
(176,321,o),
(246,353,c),
(206,408,l),
(101,363,o),
(39,284,o),
(39,193,cs)
);
},
{
closed = 1;
nodes = (
(635,275,o),
(586,356,o),
(464,412,c),
(421,353,l),
(513,316,o),
(555,257,o),
(555,191,cs),
(555,123,o),
(515,73,o),
(426,73,cs),
(415,73,l),
(420,0,l),
(426,0,ls),
(590,0,o),
(635,116,o),
(635,194,cs)
);
}
);
width = 674;
},
{
anchors = (
{
name = Anchor2;
pos = (608,622);
},
{
name = Anchor4;
pos = (359,0);
},
{
name = Anchor6;
pos = (485,0);
}
);
layerId = "397B4BA1-1DC1-423A-91EE-9CBCF179C3D0";
shapes = (
{
closed = 1;
nodes = (
(476,283,o),
(586,396,o),
(608,512,c),
(725,512,l),
(725,622,l),
(-7,622,l),
(-7,512,l),
(109,512,l),
(133,397,o),
(237,285,o),
(359,232,c)
);
},
{
closed = 1;
nodes = (
(455,428,o),
(395,368,o),
(326,338,c),
(395,337,l),
(323,371,o),
(262,428,o),
(246,512,c),
(469,512,l)
);
},
{
closed = 1;
nodes = (
(32,109,o),
(82,0,o),
(269,0,cs),
(274,0,l),
(283,113,l),
(272,113,ls),
(204,113,o),
(166,139,o),
(166,196,cs),
(166,255,o),
(215,301,o),
(322,326,c),
(226,417,l),
(98,367,o),
(32,286,o),
(32,189,cs)
);
},
{
closed = 1;
nodes = (
(686,286,o),
(620,368,o),
(490,416,c),
(398,329,l),
(501,301,o),
(552,255,o),
(552,196,cs),
(552,139,o),
(514,113,o),
(446,113,cs),
(435,113,l),
(443,0,l),
(449,0,ls),
(636,0,o),
(686,109,o),
(686,189,cs)
);
}
);
width = 718;
},
{
anchors = (
{
name = Anchor2;
pos = (537,622);
},
{
name = Anchor4;
pos = (328,0);
},
{
name = Anchor6;
pos = (470,0);
}
);
layerId = "AD832606-5186-48BF-AC4A-95D20F9D6762";
shapes = (
{
closed = 1;
nodes = (
(424,350,o),
(495,469,o),
(515,596,c),
(645,596,l),
(645,622,l),
(-7,622,l),
(-7,596,l),
(123,596,l),
(143,469,o),
(214,350,o),
(319,289,c)
);
},
{
closed = 1;
nodes = (
(470,459,o),
(396,364,o),
(315,314,c),
(323,314,l),
(242,364,o),
(168,459,o),
(149,596,c),
(488,596,l)
);
},
{
closed = 1;
nodes = (
(48,79,o),
(107,0,o),
(228,0,cs),
(236,0,l),
(237,26,l),
(227,26,ls),
(138,26,o),
(75,79,o),
(75,185,cs),
(75,268,o),
(118,332,o),
(216,382,c),
(201,401,l),
(98,351,o),
(48,277,o),
(48,185,cs)
);
},
{
closed = 1;
nodes = (
(590,277,o),
(540,351,o),
(437,401,c),
(421,382,l),
(520,332,o),
(563,268,o),
(563,185,cs),
(563,79,o),
(500,26,o),
(411,26,cs),
(401,26,l),
(402,0,l),
(410,0,ls),
(531,0,o),
(590,79,o),
(590,185,cs)
);
}
);
width = 638;
},
{
anchors = (
{
name = Anchor2;
pos = (644,622);
},
{
name = Anchor4;
pos = (376,0);
},
{
name = Anchor6;
pos = (477,0);
}
);
guides = (
{
angle = 90;
pos = (376,243);
}
);
layerId = "F506C8C4-888D-41F0-91C9-49F2C7D2D9C4";
shapes = (
{
closed = 1;
nodes = (
(510,251,o),
(618,387,o),
(640,484,c),
(759,484,l),
(759,622,l),
(-7,622,l),
(-7,484,l),
(109,484,l),
(137,381,o),
(243,258,o),
(376,214,c)
);
},
{
closed = 1;
nodes = (
(439,428,o),
(397,380,o),
(322,350,c),
(430,350,l),
(350,383,o),
(308,430,o),
(293,484,c),
(455,484,l)
);
},
{
closed = 1;
nodes = (
(25,88,o),
(100,0,o),
(297,0,cs),
(313,0,l),
(322,141,l),
(304,141,ls),
(240,141,o),
(202,154,o),
(202,198,cs),
(202,241,o),
(244,272,o),
(322,296,c),
(221,411,l),
(82,361,o),
(25,290,o),
(25,194,cs)
);
},
{
closed = 1;
nodes = (
(727,290,o),
(670,361,o),
(531,411,c),
(430,296,l),
(508,272,o),
(550,241,o),
(550,198,cs),
(550,154,o),
(512,141,o),
(448,141,cs),
(430,141,l),
(439,0,l),
(455,0,ls),
(652,0,o),
(727,88,o),
(727,194,cs)
);
}
);
width = 752;
},
{
anchors = (
{
name = Anchor2;
pos = (387,622);
},
{
name = Anchor4;
pos = (240,0);
},
{
name = Anchor6;
pos = (336,0);
}
);
layerId = "C86CFEE0-D181-456A-AA08-2B118FAF25CE";
shapes = (
{
closed = 1;
nodes = (
(325,355,o),
(377,456,o),
(389,596,c),
(487,596,l),
(487,622,l),
(-7,622,l),
(-7,596,l),
(91,596,l),
(103,456,o),
(155,355,o),
(240,285,c)
);
},
{
closed = 1;
nodes = (
(350,446,o),
(298,370,o),
(236,314,c),
(243,313,l),
(182,370,o),
(130,446,o),
(117,596,c),
(363,596,l)
);
},
{
closed = 1;
nodes = (
(42,89,o),
(92,27,o),
(176,0,c),
(177,0,l),
(183,26,l),
(182,26,l),
(115,46,o),
(69,95,o),
(69,188,cs),
(69,270,o),
(105,325,o),
(171,379,c),
(158,398,l),
(81,341,o),
(42,274,o),
(42,187,cs)
);
},
{
closed = 1;
nodes = (
(438,274,o),
(399,341,o),
(322,398,c),
(309,379,l),
(375,325,o),
(411,270,o),
(411,188,cs),
(411,95,o),
(365,46,o),
(298,26,c),
(297,26,l),
(303,0,l),
(304,0,l),
(388,27,o),
(438,89,o),
(438,187,cs)
);
}
);
width = 480;
},
{
anchors = (
{
name = Anchor2;
pos = (500,622);
},
{
name = Anchor4;
pos = (288,0);
},
{
name = Anchor6;
pos = (355,0);
}
);
guides = (
{
angle = 90;
pos = (288,187);
}
);
layerId = "CBEC276F-1F9B-404D-BC73-2CB92054D876";
shapes = (
{
closed = 1;
nodes = (
(391,276,o),
(482,376,o),
(497,489,c),
(584,489,l),
(584,622,l),
(-7,622,l),
(-7,489,l),
(79,489,l),
(95,376,o),
(186,276,o),
(288,214,c)
);
},
{
closed = 1;
nodes = (
(339,440,o),
(307,393,o),
(260,367,c),
(317,367,l),
(270,393,o),
(238,440,o),
(231,489,c),
(345,489,l)
);
},
{
closed = 1;
nodes = (
(24,93,o),
(88,10,o),
(238,0,c),
(239,0,l),
(253,134,l),
(252,134,l),
(201,141,o),
(174,164,o),
(174,206,cs),
(174,252,o),
(201,280,o),
(244,305,c),
(166,409,l),
(82,366,o),
(24,296,o),
(24,202,cs)
);
},
{
closed = 1;
nodes = (
(553,295,o),
(495,366,o),
(411,409,c),
(333,305,l),
(376,280,o),
(403,252,o),
(403,206,cs),
(403,164,o),
(376,141,o),
(325,134,c),
(324,134,l),
(338,0,l),
(339,0,l),
(489,10,o),
(553,93,o),
(553,202,cs)
);
}
);
width = 577;
},
{
anchors = (
{
name = Anchor2;
pos = (420,622);
},
{
name = Anchor4;
pos = (253,0);
},
{
name = Anchor6;
pos = (342,0);
}
);
layerId = "04B5D069-3E89-43E6-853C-EFCF876AEDC5";
shapes = (
{
closed = 1;
nodes = (
(354,325,o),
(405,426,o),
(420,554,c),
(513,554,l),
(513,622,l),
(-7,622,l),
(-7,554,l),
(86,554,l),
(101,426,o),
(152,325,o),
(252,250,c)
);
},
{
closed = 1;
nodes = (
(335,441,o),
(292,373,o),
(242,329,c),
(267,328,l),
(213,374,o),
(171,441,o),
(162,554,c),
(344,554,l)
);
},
{
closed = 1;
nodes = (
(31,97,o),
(73,22,o),
(190,-1,c),
(191,-1,l),
(204,68,l),
(202,68,l),
(143,80,o),
(107,119,o),
(107,190,cs),
(107,262,o),
(139,310,o),
(198,356,c),
(161,411,l),
(83,359,o),
(31,286,o),
(31,190,cs)
);
},
{
closed = 1;
nodes = (
(475,286,o),
(423,359,o),
(345,411,c),
(308,356,l),
(367,310,o),
(399,262,o),
(399,190,cs),
(399,119,o),
(363,80,o),
(304,68,c),
(302,68,l),
(315,-1,l),
(316,-1,l),
(433,22,o),
(475,97,o),
(475,190,cs)
);
}
);
width = 506;
}
);
unicode = 2610;
},
{
glyphname = vaguru;
lastChange = "2020-02-26 16:12:49 +0000";
layers = (
{
anchors = (
{
name = Anchor2;
pos = (478,622);
},
{
name = Anchor4;
pos = (292,0);
}
);
layerId = UUID0;
shapes = (
{
closed = 1;
nodes = (
(493,267,l),
(283,267,ls),
(201,267,o),
(169,271,o),
(146,284,cs),
(126,295,o),
(118,311,o),
(118,333,cs),
(118,354,o),
(127,367,o),
(142,375,cs),
(157,382,o),
(177,385,o),
(213,385,cs),
(449,385,l),
(478,414,l),
(478,551,l),
(575,551,l),
(575,622,l),
(-7,622,l),
(-7,551,l),
(397,551,l),
(397,456,l),
(239,456,ls),
(166,456,o),
(131,453,o),
(97,436,cs),
(61,417,o),
(37,385,o),
(37,336,cs),
(37,292,o),
(51,259,o),
(90,233,cs),
(125,210,o),
(191,196,o),
(255,196,cs),
(493,196,l)
);
},
{
closed = 1;
nodes = (
(383,0,o),
(444,10,o),
(500,25,c),
(480,97,l),
(427,80,o),
(382,72,o),
(324,72,cs),
(234,72,o),
(194,98,o),
(194,141,cs),
(194,160,o),
(203,175,o),
(216,184,cs),
(237,196,o),
(258,196,o),
(314,196,cs),
(354,196,l),
(210,231,l),
(144,223,o),
(114,179,o),
(114,134,cs),
(114,63,o),
(167,0,o),
(314,0,cs)
);
}
);
width = 567;
},
{
anchors = (
{
name = Anchor2;
pos = (517,622);
},
{
name = Anchor4;
pos = (324,0);
}
);
layerId = "397B4BA1-1DC1-423A-91EE-9CBCF179C3D0";
shapes = (
{
closed = 1;
nodes = (
(525,284,l),
(269,284,ls),
(223,284,o),
(203,286,o),
(190,292,cs),
(178,298,o),
(172,306,o),
(172,320,cs),
(172,329,o),
(175,336,o),
(183,342,cs),
(191,348,o),
(205,351,o),
(237,351,cs),
(486,351,l),
(522,386,l),
(522,512,l),
(609,512,l),
(609,622,l),
(-7,622,l),
(-7,512,l),
(388,512,l),
(388,451,l),
(257,451,ls),
(168,451,o),
(127,446,o),
(87,424,cs),
(53,405,o),
(32,375,o),
(32,328,cs),
(32,280,o),
(49,236,o),
(103,208,cs),
(137,190,o),
(187,179,o),
(256,179,cs),
(525,179,l)
);
},
{
closed = 1;
nodes = (
(426,0,o),
(485,10,o),
(539,23,c),
(514,128,l),
(455,114,o),
(407,109,o),
(350,109,cs),
(275,109,o),
(253,125,o),
(253,150,cs),
(253,158,o),
(256,164,o),
(262,169,cs),
(268,174,o),
(276,179,o),
(313,179,cs),
(334,179,l),
(173,234,l),
(136,209,o),
(115,182,o),
(115,143,cs),
(115,71,o),
(165,0,o),
(339,0,cs)
);
}
);
width = 602;
},
{
anchors = (
{
name = Anchor2;
pos = (458,622);
},
{
name = Anchor4;
pos = (288,0);
}
);
layerId = "AD832606-5186-48BF-AC4A-95D20F9D6762";
shapes = (
{
closed = 1;
nodes = (
(455,241,l),
(256,241,ls),
(178,241,o),
(140,248,o),
(112,265,cs),
(86,281,o),
(73,304,o),
(73,338,cs),
(73,368,o),
(87,389,o),
(109,401,cs),
(131,413,o),
(159,419,o),
(207,419,cs),
(421,419,l),
(438,434,l),
(438,596,l),
(537,596,l),
(537,622,l),
(-7,622,l),
(-7,596,l),
(412,596,l),
(412,445,l),
(221,445,ls),
(162,445,o),
(126,440,o),
(96,424,cs),
(63,406,o),
(46,377,o),
(46,339,cs),
(46,294,o),
(66,263,o),
(98,244,cs),
(135,222,o),
(185,215,o),
(270,215,cs),
(455,215,l)
);
},
{
closed = 1;
nodes = (
(369,0,o),
(409,10,o),
(460,27,c),
(453,52,l),
(395,32,o),
(365,26,o),
(300,26,cs),
(211,26,o),
(152,55,o),
(152,125,cs),
(152,156,o),
(165,179,o),
(186,193,cs),
(209,208,o),
(234,215,o),
(288,215,cs),
(321,215,l),
(238,229,l),
(174,224,o),
(125,189,o),
(125,125,cs),
(125,40,o),
(194,0,o),
(300,0,cs)
);
}
);
width = 530;
},
{
anchors = (
{
name = Anchor2;
pos = (548,622);
},
{
name = Anchor4;
pos = (326,0);
}
);
layerId = "F506C8C4-888D-41F0-91C9-49F2C7D2D9C4";
shapes = (
{
closed = 1;
nodes = (
(552,287,l),
(265,287,ls),
(234,287,o),
(222,289,o),
(214,293,cs),
(207,297,o),
(205,302,o),
(205,308,cs),
(205,314,o),
(207,319,o),
(212,322,cs),
(216,325,o),
(222,327,o),
(244,327,cs),
(512,327,l),
(548,362,l),
(548,484,l),
(625,484,l),
(625,622,l),
(-7,622,l),
(-7,484,l),
(376,484,l),
(376,446,l),
(244,446,ls),
(167,446,o),
(128,439,o),
(92,421,cs),
(52,401,o),
(25,368,o),
(25,313,cs),
(25,255,o),
(57,217,o),
(109,195,cs),
(155,175,o),
(202,170,o),
(275,170,cs),
(552,170,l)
);
},
{
closed = 1;
nodes = (
(438,0,o),
(506,11,o),
(567,26,c),
(540,147,l),
(480,131,o),
(421,123,o),
(370,123,cs),
(316,123,o),
(285,128,o),
(285,150,cs),
(285,157,o),
(288,162,o),
(293,165,cs),
(299,169,o),
(309,170,o),
(325,170,cs),
(339,170,l),
(178,237,l),
(147,216,o),
(108,186,o),
(108,135,cs),
(108,43,o),
(191,0,o),
(344,0,cs)
);
}
);
width = 618;
},
{
anchors = (
{
name = Anchor2;
pos = (321,622);
},
{
name = Anchor4;
pos = (209,0);
}
);
layerId = "C86CFEE0-D181-456A-AA08-2B118FAF25CE";
shapes = (
{
closed = 1;
nodes = (
(327,241,l),
(230,241,ls),
(164,241,o),
(130,248,o),
(104,264,cs),
(80,280,o),
(66,303,o),
(66,337,cs),
(66,368,o),
(79,389,o),
(102,402,cs),
(123,414,o),
(148,419,o),
(194,419,cs),
(308,419,l),
(321,434,l),
(321,596,l),
(405,596,l),
(405,622,l),
(-7,622,l),
(-7,596,l),
(295,596,l),
(295,445,l),
(196,445,ls),
(146,445,o),
(106,438,o),
(81,420,cs),
(56,403,o),
(39,378,o),
(39,338,cs),
(39,296,o),
(57,263,o),
(89,243,cs),
(121,223,o),
(155,215,o),
(249,215,cs),
(327,215,l)
);
},
{
closed = 1;
nodes = (
(280,0,o),
(308,7,o),
(336,16,c),
(329,41,l),
(303,32,o),
(278,26,o),
(240,26,cs),
(173,26,o),
(121,58,o),
(121,125,cs),
(121,156,o),
(133,179,o),
(155,195,cs),
(173,208,o),
(199,215,o),
(235,215,cs),
(255,215,l),
(195,229,l),
(133,224,o),
(94,182,o),
(94,125,cs),
(94,44,o),
(157,0,o),
(239,0,cs)
);
}
);
width = 398;
},
{
anchors = (
{
name = Anchor2;
pos = (436,622);
},
{
name = Anchor4;
pos = (258,0);
}
);
layerId = "CBEC276F-1F9B-404D-BC73-2CB92054D876";
shapes = (
{
closed = 1;
nodes = (
(440,286,l),
(220,286,ls),
(195,286,o),
(190,288,o),
(184,292,cs),
(179,296,o),
(176,301,o),
(176,309,cs),
(176,315,o),
(178,320,o),
(183,324,cs),
(189,329,o),
(198,330,o),
(213,330,cs),
(402,330,l),
(436,366,l),
(436,489,l),
(497,489,l),
(497,622,l),
(-7,622,l),
(-7,489,l),
(286,489,l),
(286,445,l),
(240,445,ls),
(168,445,o),
(133,440,o),
(102,427,cs),
(52,406,o),
(20,368,o),
(20,313,cs),
(20,267,o),
(38,233,o),
(68,211,cs),
(107,181,o),
(165,171,o),
(243,171,cs),
(440,171,l)
);
},
{
closed = 1;
nodes = (
(347,0,o),
(412,10,o),
(447,22,c),
(419,139,l),
(383,129,o),
(341,121,o),
(290,121,cs),
(247,121,o),
(227,128,o),
(227,150,cs),
(227,156,o),
(229,161,o),
(234,165,cs),
(240,169,o),
(246,171,o),
(264,171,cs),
(278,171,l),
(133,228,l),
(100,209,o),
(77,178,o),
(77,135,cs),
(77,52,o),
(137,0,o),
(284,0,cs)
);
}
);
width = 490;
},
{
anchors = (
{
name = Anchor2;
pos = (360,622);
},
{
name = Anchor4;
pos = (218,0);
}
);
layerId = "04B5D069-3E89-43E6-853C-EFCF876AEDC5";
shapes = (
{
closed = 1;
nodes = (
(366,266,l),
(231,266,ls),
(188,266,o),
(156,269,o),
(134,281,cs),
(116,291,o),
(105,307,o),
(105,332,cs),
(105,355,o),
(115,369,o),
(131,378,cs),
(145,385,o),
(162,388,o),
(193,388,cs),
(334,388,l),
(360,416,l),
(360,554,l),
(431,554,l),
(431,622,l),
(-7,622,l),
(-7,554,l),
(285,554,l),
(285,456,l),
(217,456,ls),
(153,456,o),
(119,451,o),
(88,435,cs),
(52,416,o),
(29,386,o),
(29,333,cs),
(29,288,o),
(48,256,o),
(81,233,cs),
(116,209,o),
(168,198,o),
(235,198,cs),
(366,198,l)
);
},
{
closed = 1;
nodes = (
(302,0,o),
(336,7,o),
(375,18,c),
(357,88,l),
(317,74,o),
(297,69,o),
(257,69,cs),
(201,69,o),
(162,94,o),
(162,141,cs),
(162,164,o),
(171,178,o),
(184,186,cs),
(199,195,o),
(212,198,o),
(243,198,cs),
(292,198,l),
(166,235,l),
(112,222,o),
(85,180,o),
(85,133,cs),
(85,62,o),
(134,0,o),
(254,0,cs)
);
}
);
width = 424;
}
);
unicode = 2613;
},
{
glyphname = sanuktaguru;
lastChange = "2020-02-26 16:12:49 +0000";
layers = (
{
layerId = UUID0;
shapes = (
{
closed = 1;
nodes = (
(514,0,l),
(514,551,l),
(610,551,l),
(610,622,l),
(-7,622,l),
(-7,551,l),
(67,551,l),
(97,470,o),
(115,374,o),
(119,288,c),
(70,233,o),
(58,168,o),
(58,139,cs),
(58,94,o),
(78,81,o),
(105,81,cs),
(158,81,o),
(187,151,o),
(192,261,c),
(433,261,l),
(433,0,l)
);
},
{
closed = 1;
nodes = (
(192,395,o),
(179,471,o),
(153,551,c),
(433,551,l),
(433,332,l),
(193,332,l)
);
},
{
closed = 1;
nodes = (
(313,-9,o),
(336,12,o),
(336,48,cs),
(336,84,o),
(311,105,o),
(281,105,cs),
(250,105,o),
(226,84,o),
(226,48,cs),
(226,12,o),
(250,-9,o),
(281,-9,cs)
);
}
);
width = 603;
},
{
layerId = "397B4BA1-1DC1-423A-91EE-9CBCF179C3D0";
shapes = (
{
closed = 1;
nodes = (
(571,0,l),
(571,512,l),
(658,512,l),
(658,622,l),
(-7,622,l),
(-7,512,l),
(59,512,l),
(84,442,o),
(104,361,o),
(107,284,c),
(56,230,o),
(42,181,o),
(42,147,cs),
(42,89,o),
(78,66,o),
(120,66,cs),
(184,66,o),
(228,113,o),
(229,218,c),
(437,218,l),
(437,0,l)
);
},
{
closed = 1;
nodes = (
(230,383,o),
(219,445,o),
(198,512,c),
(437,512,l),
(437,328,l),
(230,328,l)
);
},
{
closed = 1;
nodes = (
(361,-8,o),
(389,21,o),
(389,64,cs),
(389,107,o),
(361,136,o),
(311,136,cs),
(261,136,o),
(232,107,o),
(232,64,cs),
(232,21,o),
(261,-8,o),
(311,-8,cs)
);
}
);
width = 651;
},
{
layerId = "AD832606-5186-48BF-AC4A-95D20F9D6762";
shapes = (
{
closed = 1;
nodes = (
(449,0,l),
(449,596,l),
(556,596,l),
(556,622,l),
(-7,622,l),
(-7,596,l),
(71,596,l),
(102,515,o),
(128,397,o),
(129,311,c),
(101,264,o),
(68,189,o),
(68,147,cs),
(68,132,o),
(73,122,o),
(84,122,cs),
(112,122,o),
(145,198,o),
(154,301,c),
(423,301,l),
(423,0,l)
);
},
{
closed = 1;
nodes = (
(153,402,o),
(130,508,o),
(99,596,c),
(423,596,l),
(423,327,l),
(155,327,l)
);
},
{
closed = 1;
nodes = (
(262,-7,o),
(275,5,o),
(275,31,cs),
(275,54,o),
(264,69,o),
(245,69,cs),
(227,69,o),
(214,55,o),
(214,31,cs),
(214,6,o),
(229,-7,o),
(245,-7,cs)
);
}
);
width = 549;
},
{
guides = (
{
pos = (76,484);
}
);
layerId = "F506C8C4-888D-41F0-91C9-49F2C7D2D9C4";
shapes = (
{
closed = 1;
nodes = (
(618,0,l),
(618,484,l),
(695,484,l),
(695,622,l),
(-7,622,l),
(-7,484,l),
(51,484,l),
(73,435,o),
(92,347,o),
(97,291,c),
(49,241,o),
(32,201,o),
(32,155,cs),
(32,105,o),
(60,61,o),
(130,61,cs),
(207,61,o),
(253,108,o),
(263,203,c),
(441,203,l),
(441,0,l)
);
},
{
closed = 1;
nodes = (
(265,375,o),
(250,447,o),
(236,484,c),
(441,484,l),
(441,341,l),
(265,341,l)
);
},
{
closed = 1;
nodes = (
(386,-8,o),
(415,24,o),
(415,72,cs),
(415,119,o),
(386,151,o),
(334,151,cs),
(281,151,o),
(251,119,o),
(251,72,cs),
(251,24,o),
(281,-8,o),
(334,-8,cs)
);
}
);
width = 688;
},
{
layerId = "C86CFEE0-D181-456A-AA08-2B118FAF25CE";
shapes = (
{
closed = 1;
nodes = (
(338,0,l),
(338,596,l),
(422,596,l),
(422,622,l),
(-7,622,l),
(-7,596,l),
(52,596,l),
(75,515,o),
(95,395,o),
(95,309,c),
(74,262,o),
(52,193,o),
(52,152,cs),
(52,130,o),
(60,125,o),
(69,125,cs),
(92,125,o),
(109,186,o),
(120,299,c),
(312,299,l),
(312,0,l)
);
},
{
closed = 1;
nodes = (
(119,400,o),
(101,508,o),
(78,596,c),
(312,596,l),
(312,325,l),
(121,325,l)
);
},
{
closed = 1;
nodes = (
(192,-7,o),
(204,4,o),
(204,31,cs),
(204,55,o),
(193,69,o),
(178,69,cs),
(164,69,o),
(151,56,o),
(151,31,cs),
(151,5,o),
(165,-7,o),
(177,-7,cs)
);
}
);
width = 415;
},
{
guides = (
{
pos = (48,484);
}
);
layerId = "CBEC276F-1F9B-404D-BC73-2CB92054D876";
shapes = (
{
closed = 1;
nodes = (
(512,0,l),
(512,489,l),
(575,489,l),
(575,622,l),
(-7,622,l),
(-7,489,l),
(52,489,l),
(72,439,o),
(84,382,o),
(84,317,c),
(41,259,o),
(21,199,o),
(21,151,cs),
(21,88,o),
(55,56,o),
(108,56,cs),
(179,56,o),
(210,115,o),
(222,206,c),
(362,206,l),
(362,0,l)
);
},
{
closed = 1;
nodes = (
(229,389,o),
(220,450,o),
(208,489,c),
(362,489,l),
(362,344,l),
(229,344,l)
);
},
{
closed = 1;
nodes = (
(317,-9,o),
(341,23,o),
(341,68,cs),
(341,114,o),
(317,147,o),
(273,147,cs),
(228,147,o),
(204,114,o),
(204,68,cs),
(204,23,o),
(228,-9,o),
(273,-9,cs)
);
}
);
width = 568;
},
{
layerId = "04B5D069-3E89-43E6-853C-EFCF876AEDC5";
shapes = (
{
closed = 1;
nodes = (
(385,0,l),
(385,554,l),
(456,554,l),
(456,622,l),
(-7,622,l),
(-7,554,l),
(51,554,l),
(71,473,o),
(82,375,o),
(85,289,c),
(53,234,o),
(39,178,o),
(39,143,cs),
(39,96,o),
(64,84,o),
(84,84,cs),
(131,84,o),
(150,154,o),
(154,264,c),
(310,264,l),
(310,0,l)
);
},
{
closed = 1;
nodes = (
(154,394,o),
(145,473,o),
(128,554,c),
(310,554,l),
(310,332,l),
(154,332,l)
);
},
{
closed = 1;
nodes = (
(238,-9,o),
(255,13,o),
(255,46,cs),
(255,78,o),
(238,101,o),
(206,101,cs),
(175,101,o),
(157,78,o),
(157,46,cs),
(157,13,o),
(175,-9,o),
(206,-9,cs)
);
}
);
width = 449;
}
);
unicode = 2614;
},
{
glyphname = saguru;
lastChange = "2020-02-26 16:12:49 +0000";
layers = (
{
layerId = UUID0;
shapes = (
{
closed = 1;
nodes = (
(507,0,l),
(507,551,l),
(603,551,l),
(603,622,l),
(-7,622,l),
(-7,551,l),
(67,551,l),
(97,470,o),
(115,374,o),
(119,288,c),
(70,233,o),
(58,168,o),
(58,139,cs),
(58,94,o),
(78,81,o),
(105,81,cs),
(158,81,o),
(187,151,o),
(192,261,c),
(426,261,l),
(426,0,l)
);
},
{
closed = 1;
nodes = (
(192,395,o),
(179,471,o),
(153,551,c),
(426,551,l),
(426,332,l),
(193,332,l)
);
}
);
width = 596;
},
{
layerId = "397B4BA1-1DC1-423A-91EE-9CBCF179C3D0";
shapes = (
{
closed = 1;
nodes = (
(556,0,l),
(556,512,l),
(644,512,l),
(644,622,l),
(-7,622,l),
(-7,512,l),
(59,512,l),
(84,442,o),
(104,361,o),
(107,284,c),
(56,230,o),
(42,181,o),
(42,147,cs),
(42,89,o),
(78,66,o),
(120,66,cs),
(184,66,o),
(225,113,o),
(229,218,c),
(422,218,l),
(422,0,l)
);
},
{
closed = 1;
nodes = (
(230,383,o),
(219,445,o),
(198,512,c),
(422,512,l),
(422,328,l),
(230,328,l)
);
}
);
width = 636;
},
{
guides = (
{
pos = (99,596);
}
);
layerId = "AD832606-5186-48BF-AC4A-95D20F9D6762";
shapes = (
{
closed = 1;
nodes = (
(449,0,l),
(449,596,l),
(556,596,l),
(556,622,l),
(-7,622,l),
(-7,596,l),
(71,596,l),
(102,515,o),
(128,397,o),
(129,311,c),
(101,264,o),
(68,189,o),
(68,147,cs),
(68,132,o),
(73,122,o),
(84,122,cs),
(112,122,o),
(145,198,o),
(154,301,c),
(423,301,l),
(423,0,l)
);
},
{
closed = 1;
nodes = (
(153,402,o),
(130,508,o),
(99,596,c),
(423,596,l),
(423,327,l),
(155,327,l)
);
}
);
width = 549;
},
{
layerId = "F506C8C4-888D-41F0-91C9-49F2C7D2D9C4";
shapes = (
{
closed = 1;
nodes = (
(601,0,l),
(601,484,l),
(678,484,l),
(678,622,l),
(-7,622,l),
(-7,484,l),
(51,484,l),
(73,435,o),
(92,347,o),
(97,285,c),
(49,235,o),
(32,195,o),
(32,146,cs),
(32,95,o),
(60,50,o),
(130,50,cs),
(207,50,o),
(257,100,o),
(263,197,c),
(424,197,l),
(424,0,l)
);
},
{
closed = 1;
nodes = (
(265,372,o),
(250,447,o),
(236,484,c),
(424,484,l),
(424,335,l),
(265,335,l)
);
}
);
width = 671;
},
{
guides = (
{
pos = (74,596);
}
);
layerId = "C86CFEE0-D181-456A-AA08-2B118FAF25CE";
shapes = (
{
closed = 1;
nodes = (
(338,0,l),
(338,596,l),
(422,596,l),
(422,622,l),
(-7,622,l),
(-7,596,l),
(52,596,l),
(75,515,o),
(95,395,o),
(95,309,c),
(74,262,o),
(52,193,o),
(52,152,cs),
(52,130,o),
(60,125,o),
(69,125,cs),
(92,125,o),
(109,186,o),
(120,299,c),
(312,299,l),
(312,0,l)
);
},
{
closed = 1;
nodes = (
(119,400,o),
(101,508,o),
(78,596,c),
(312,596,l),
(312,325,l),
(121,325,l)
);
}
);
width = 415;
},
{
layerId = "CBEC276F-1F9B-404D-BC73-2CB92054D876";
shapes = (
{
closed = 1;
nodes = (
(494,0,l),
(494,489,l),
(555,489,l),
(555,622,l),
(-7,622,l),
(-7,489,l),
(52,489,l),
(72,439,o),
(84,379,o),
(84,311,c),
(41,253,o),
(21,193,o),
(21,145,cs),
(21,82,o),
(55,50,o),
(108,50,cs),
(179,50,o),
(210,109,o),
(222,200,c),
(344,200,l),
(344,0,l)
);
},
{
closed = 1;
nodes = (
(229,386,o),
(220,450,o),
(208,489,c),
(344,489,l),
(344,338,l),
(229,338,l)
);
}
);
width = 548;
},
{
layerId = "04B5D069-3E89-43E6-853C-EFCF876AEDC5";
shapes = (
{
closed = 1;
nodes = (
(379,0,l),
(379,554,l),
(450,554,l),
(450,622,l),
(-7,622,l),
(-7,554,l),
(51,554,l),
(71,473,o),
(82,375,o),
(85,289,c),
(53,234,o),
(39,178,o),
(39,143,cs),
(39,96,o),
(64,84,o),
(84,84,cs),
(131,84,o),
(150,154,o),
(154,264,c),
(304,264,l),
(304,0,l)
);
},
{
closed = 1;
nodes = (
(154,394,o),
(145,473,o),
(128,554,c),
(304,554,l),
(304,332,l),
(154,332,l)
);
}
);
width = 443;
}
);
unicode = 2616;
},
{
glyphname = haguru;
lastChange = "2020-02-26 16:12:49 +0000";
layers = (
{
anchors = (
{
name = Anchor6;
pos = (357,0);
}
);
layerId = UUID0;
shapes = (
{
closed = 1;
nodes = (
(428,0,o),
(487,54,o),
(487,172,cs),
(487,551,l),
(583,551,l),
(583,622,l),
(-7,622,l),
(-7,551,l),
(406,551,l),
(406,183,ls),
(406,128,o),
(399,110,o),
(387,96,cs),
(372,78,o),
(345,73,o),
(317,73,cs),
(219,73,o),
(118,166,o),
(118,253,cs),
(118,315,o),
(158,335,o),
(226,335,cs),
(237,335,o),
(253,335,o),
(264,333,c),
(270,405,l),
(260,407,o),
(242,408,o),
(228,408,cs),
(108,408,o),
(37,362,o),
(37,258,cs),
(37,126,o),
(166,0,o),
(309,0,cs)
);
}
);
width = 576;
},
{
anchors = (
{
name = Anchor6;
pos = (350,0);
}
);
layerId = "397B4BA1-1DC1-423A-91EE-9CBCF179C3D0";
shapes = (
{
closed = 1;
nodes = (
(469,0,o),
(540,50,o),
(540,175,cs),
(540,512,l),
(627,512,l),
(627,622,l),
(-7,622,l),
(-7,512,l),
(406,512,l),
(406,188,ls),
(406,149,o),
(400,136,o),
(390,126,cs),
(377,114,o),
(359,110,o),
(331,110,cs),
(252,110,o),
(167,184,o),
(167,246,cs),
(167,290,o),
(190,308,o),
(245,308,cs),
(254,308,o),
(267,307,o),
(273,306,c),
(279,417,l),
(267,418,o),
(250,420,o),
(228,420,cs),
(116,420,o),
(32,366,o),
(32,265,cs),
(32,124,o),
(171,0,o),
(337,0,cs)
);
}
);
width = 620;
},
{
anchors = (
{
name = Anchor6;
pos = (353,0);
}
);
layerId = "AD832606-5186-48BF-AC4A-95D20F9D6762";
shapes = (
{
closed = 1;
nodes = (
(401,0,o),
(423,60,o),
(423,143,cs),
(423,596,l),
(530,596,l),
(530,622,l),
(-7,622,l),
(-7,596,l),
(397,596,l),
(397,154,ls),
(397,104,o),
(392,71,o),
(373,50,cs),
(361,37,o),
(344,26,o),
(305,26,cs),
(196,26,o),
(73,151,o),
(73,259,cs),
(73,331,o),
(118,373,o),
(202,373,cs),
(217,373,o),
(234,372,o),
(254,369,c),
(256,394,l),
(237,398,o),
(218,399,o),
(202,399,cs),
(109,399,o),
(46,350,o),
(46,260,cs),
(46,138,o),
(179,0,o),
(305,0,cs)
);
}
);
width = 523;
},
{
anchors = (
{
name = Anchor6;
pos = (347,0);
}
);
layerId = "F506C8C4-888D-41F0-91C9-49F2C7D2D9C4";
shapes = (
{
closed = 1;
nodes = (
(504,0,o),
(575,52,o),
(575,191,cs),
(575,484,l),
(652,484,l),
(652,622,l),
(-7,622,l),
(-7,484,l),
(398,484,l),
(398,203,ls),
(398,172,o),
(395,159,o),
(387,151,cs),
(378,142,o),
(365,139,o),
(343,139,cs),
(283,139,o),
(203,191,o),
(203,246,cs),
(203,274,o),
(221,287,o),
(262,287,cs),
(273,287,o),
(286,286,o),
(295,285,c),
(302,423,l),
(290,425,o),
(273,427,o),
(245,427,cs),
(120,427,o),
(25,378,o),
(25,265,cs),
(25,112,o),
(179,0,o),
(352,0,cs)
);
}
);
width = 645;
},
{
anchors = (
{
name = Anchor6;
pos = (263,0);
}
);
layerId = "C86CFEE0-D181-456A-AA08-2B118FAF25CE";
shapes = (
{
closed = 1;
nodes = (
(303,0,o),
(330,42,o),
(330,124,cs),
(330,596,l),
(414,596,l),
(414,622,l),
(-7,622,l),
(-7,596,l),
(304,596,l),
(304,141,ls),
(304,92,o),
(300,61,o),
(282,43,cs),
(272,32,o),
(256,26,o),
(232,26,cs),
(142,26,o),
(66,143,o),
(66,261,cs),
(66,326,o),
(92,373,o),
(163,373,cs),
(175,373,o),
(187,372,o),
(198,370,c),
(200,395,l),
(191,397,o),
(177,399,o),
(161,399,cs),
(78,399,o),
(39,343,o),
(39,261,cs),
(39,133,o),
(122,0,o),
(232,0,cs)
);
}
);
width = 407;
},
{
anchors = (
{
name = Anchor6;
pos = (264,0);
}
);
layerId = "CBEC276F-1F9B-404D-BC73-2CB92054D876";
shapes = (
{
closed = 1;
nodes = (
(413,0,o),
(450,76,o),
(450,155,cs),
(450,489,l),
(511,489,l),
(511,622,l),
(-7,622,l),
(-7,489,l),
(300,489,l),
(300,179,ls),
(300,155,o),
(298,147,o),
(293,141,cs),
(288,136,o),
(282,133,o),
(270,133,cs),
(231,133,o),
(172,186,o),
(172,252,cs),
(172,277,o),
(187,293,o),
(215,293,cs),
(224,293,o),
(236,292,o),
(245,291,c),
(252,423,l),
(233,427,o),
(213,429,o),
(186,429,cs),
(82,429,o),
(20,373,o),
(20,277,cs),
(20,140,o),
(126,0,o),
(278,0,cs)
);
}
);
width = 504;
},
{
anchors = (
{
name = Anchor6;
pos = (255,0);
}
);
layerId = "04B5D069-3E89-43E6-853C-EFCF876AEDC5";
shapes = (
{
closed = 1;
nodes = (
(330,0,o),
(369,59,o),
(369,146,cs),
(369,554,l),
(440,554,l),
(440,622,l),
(-7,622,l),
(-7,554,l),
(294,554,l),
(294,159,ls),
(294,114,o),
(290,97,o),
(279,84,cs),
(270,74,o),
(257,69,o),
(239,69,cs),
(165,69,o),
(104,160,o),
(104,260,cs),
(104,316,o),
(131,337,o),
(174,337,cs),
(185,337,o),
(198,336,o),
(205,335,c),
(209,403,l),
(200,405,o),
(179,407,o),
(166,407,cs),
(81,407,o),
(29,359,o),
(29,268,cs),
(29,132,o),
(113,0,o),
(240,0,cs)
);
}
);
width = 433;
}
);
unicode = 2617;
},
{
category = Mark;
glyphname = nuktaguru;
lastChange = "2020-02-26 16:12:49 +0000";
layers = (
{
anchors = (
{
name = _Anchor4;
pos = (-283,0);
}
);
layerId = UUID0;
shapes = (
{
closed = 1;
nodes = (
(-251,-191,o),
(-228,-170,o),
(-228,-134,cs),
(-228,-98,o),
(-252,-77,o),
(-283,-77,cs),
(-313,-77,o),
(-338,-98,o),
(-338,-134,cs),
(-338,-170,o),
(-313,-191,o),
(-283,-191,cs)
);
}
);
width = 0;
},
{
anchors = (
{
name = _Anchor4;
pos = (-283,0);
}
);
layerId = "397B4BA1-1DC1-423A-91EE-9CBCF179C3D0";
shapes = (
{
closed = 1;
nodes = (
(-233,-207,o),
(-205,-178,o),
(-205,-134,cs),
(-205,-91,o),
(-233,-62,o),
(-283,-62,cs),
(-333,-62,o),
(-362,-91,o),
(-362,-134,cs),
(-362,-178,o),
(-333,-207,o),
(-283,-207,cs)
);
}
);
width = 0;
},
{
anchors = (
{
name = _Anchor4;
pos = (-283,0);
}
);
layerId = "AD832606-5186-48BF-AC4A-95D20F9D6762";
shapes = (
{
closed = 1;
nodes = (
(-267,-172,o),
(-254,-160,o),
(-254,-134,cs),
(-254,-111,o),
(-265,-96,o),
(-284,-96,cs),
(-302,-96,o),
(-315,-110,o),
(-315,-134,cs),
(-315,-159,o),
(-300,-172,o),
(-284,-172,cs)
);
}
);
width = 0;
},
{
anchors = (
{
name = _Anchor4;
pos = (-283,0);
}
);
layerId = "F506C8C4-888D-41F0-91C9-49F2C7D2D9C4";
shapes = (
{
closed = 1;
nodes = (
(-228,-214,o),
(-197,-182,o),
(-197,-134,cs),
(-197,-87,o),
(-228,-55,o),
(-283,-55,cs),
(-338,-55,o),
(-370,-87,o),
(-370,-134,cs),
(-370,-182,o),
(-338,-214,o),
(-283,-214,cs)
);
}
);
width = 0;
},
{
anchors = (
{
name = _Anchor4;
pos = (-283,0);
}
);
layerId = "C86CFEE0-D181-456A-AA08-2B118FAF25CE";
shapes = (
{
closed = 1;
nodes = (
(-269,-171,o),
(-257,-160,o),
(-257,-133,cs),
(-257,-109,o),
(-268,-95,o),
(-283,-95,cs),
(-297,-95,o),
(-310,-108,o),
(-310,-133,cs),
(-310,-159,o),
(-296,-171,o),
(-284,-171,cs)
);
}
);
width = 0;
},
{
anchors = (
{
name = _Anchor4;
pos = (-283,0);
}
);
layerId = "CBEC276F-1F9B-404D-BC73-2CB92054D876";
shapes = (
{
closed = 1;
nodes = (
(-234,-212,o),
(-207,-180,o),
(-207,-134,cs),
(-207,-89,o),
(-234,-56,o),
(-283,-56,cs),
(-333,-56,o),
(-360,-89,o),
(-360,-134,cs),
(-360,-180,o),
(-333,-212,o),
(-283,-212,cs)
);
}
);
width = 0;
},
{
anchors = (
{
name = _Anchor4;
pos = (-283,0);
}
);
layerId = "04B5D069-3E89-43E6-853C-EFCF876AEDC5";
shapes = (
{
closed = 1;
nodes = (
(-251,-188,o),
(-234,-166,o),
(-234,-133,cs),
(-234,-101,o),
(-251,-78,o),
(-283,-78,cs),
(-314,-78,o),
(-332,-101,o),
(-332,-133,cs),
(-332,-166,o),
(-314,-188,o),
(-283,-188,cs)
);
}
);
width = 0;
}
);
subCategory = Nonspacing;
unicode = 2620;
},
{
glyphname = aamatraguru;
lastChange = "2020-02-26 16:12:49 +0000";
layers = (
{
anchors = (
{
name = Anchor2;
pos = (154,622);
}
);
layerId = UUID0;
shapes = (
{
closed = 1;
nodes = (
(154,261,l),
(154,551,l),
(242,551,l),
(242,622,l),
(-7,622,l),
(-7,551,l),
(74,551,l),
(74,261,l)
);
}
);
width = 235;
},
{
anchors = (
{
name = Anchor2;
pos = (193,622);
}
);
layerId = "397B4BA1-1DC1-423A-91EE-9CBCF179C3D0";
shapes = (
{
closed = 1;
nodes = (
(193,242,l),
(193,512,l),
(266,512,l),
(266,622,l),
(-7,622,l),
(-7,512,l),
(59,512,l),
(59,242,l)
);
}
);
width = 258;
},
{
anchors = (
{
name = Anchor2;
pos = (131,622);
}
);
layerId = "AD832606-5186-48BF-AC4A-95D20F9D6762";
shapes = (
{
closed = 1;
nodes = (
(108,261,l),
(108,596,l),
(206,596,l),
(206,622,l),
(-7,622,l),
(-7,596,l),
(82,596,l),
(82,261,l)
);
}
);
width = 199;
},
{
anchors = (
{
name = Anchor2;
pos = (230,622);
}
);
layerId = "F506C8C4-888D-41F0-91C9-49F2C7D2D9C4";
shapes = (
{
closed = 1;
nodes = (
(230,242,l),
(230,484,l),
(295,484,l),
(295,622,l),
(-7,622,l),
(-7,484,l),
(53,484,l),
(53,242,l)
);
}
);
width = 288;
},
{
anchors = (
{
name = Anchor2;
pos = (91,622);
}
);
layerId = "C86CFEE0-D181-456A-AA08-2B118FAF25CE";
shapes = (
{
closed = 1;
nodes = (
(91,261,l),
(91,596,l),
(167,596,l),
(167,622,l),
(-7,622,l),
(-7,596,l),
(65,596,l),
(65,261,l)
);
}
);
width = 160;
},
{
anchors = (
{
name = Anchor2;
pos = (192,622);
}
);
layerId = "CBEC276F-1F9B-404D-BC73-2CB92054D876";
shapes = (
{
closed = 1;
nodes = (
(192,242,l),
(192,489,l),
(245,489,l),
(245,622,l),
(-7,622,l),
(-7,489,l),
(42,489,l),
(42,242,l)
);
}
);
width = 238;
},
{
anchors = (
{
name = Anchor2;
pos = (127,622);
}
);
layerId = "04B5D069-3E89-43E6-853C-EFCF876AEDC5";
shapes = (
{
closed = 1;
nodes = (
(127,261,l),
(127,554,l),
(190,554,l),
(190,622,l),
(-7,622,l),
(-7,554,l),
(52,554,l),
(52,261,l)
);
}
);
width = 183;
}
);
unicode = 2622;
},
